<svg width="60" height="62" viewBox="0 0 60 62" fill="none" xmlns="http://www.w3.org/2000/svg">
<path d="M24.7527 41.5955C25.7818 42.0073 26.749 42.1813 27.4313 42.2067C27.6545 42.2067 28.2796 42.2067 28.9939 42.2067C29.9553 42.2067 30.9995 41.7259 31.9126 41.1266M24.7527 41.5955C22.8637 40.8397 20.7664 39.2829 19.8415 36.3743C19.1718 34.4302 17.9168 27.1043 18.8097 23C19.5246 23 20.9543 23.6667 22.3841 23.6667C22.0864 26.9069 22.2526 33.8253 24.7527 35.7263C25.8689 36.5903 28.5474 37.8864 31.4494 35.7263C32.7888 33.9981 34.9834 31.4804 34.5369 25C35.252 25 36.7435 25 37.3966 25C37.3966 25.8641 38.3695 35.0782 34.3514 38.9665C34.0972 39.3354 33.1195 40.3345 31.9126 41.1266M24.7527 41.5955C24.9016 41.9433 25.1994 42.8115 25.1994 43.5028C25.1994 44.3669 25.4383 47.6071 26.9852 48.4711C27.6549 48.8452 27.5804 51.4233 27.6549 52.7914V54.5196M27.6549 54.5196V61H31.4494C31.2842 59.2731 31.0545 56.7451 30.8658 54.4077M27.6549 54.5196L30.8658 54.4077M31.9126 41.1266C31.9126 42.2067 31.9126 44.6693 31.9126 45.879C31.9126 47.3911 30.7243 47.8231 30.5569 48.4711C30.4576 48.8554 30.6296 51.4823 30.8658 54.4077" stroke="#F4C70F" stroke-linejoin="round"/>
<path d="M6.93015 6.20547C8.34589 5.83708 11.8033 5.32132 14.3069 6.20547C16.7659 7.31065 25.0368 13.4997 30.8488 13.0576C34.649 12.3945 43.0349 5.66667 45.3789 4.43718C46.4651 3.86742 49.8497 2.00578 54.0969 4.87926M6.93015 6.20547C6.18502 6.64754 4.56063 7.84114 4.02414 9.07894M6.93015 6.20547C6.40868 5.98443 5.32104 5.36553 5.14221 4.65821C4.91867 3.77407 4.91867 2.66889 3.3539 3.11096C2.10208 3.99511 1.19302 5.10029 0.894968 5.54236C0.596916 5.98443 0.179643 7.0012 0.894968 7.53169C1.61029 8.06217 3.27913 8.78423 4.02414 9.07894M54.0969 4.87926L55.8856 1.56371C56.0346 1.269 56.5115 0.767981 57.2268 1.12164C57.9421 1.4753 59.0151 2.88993 59.4622 3.55303C59.5367 3.70039 59.5516 4.17194 59.0151 4.87926C58.2998 5.58657 56.2792 6.64754 55.3584 7.08961M54.0969 4.87926C54.4716 5.3733 54.9685 6.12616 55.3584 7.08961M4.02414 9.07894C2.90644 12.6155 6.25953 15.9311 8.04784 17.0362C18.5542 24.3304 32.1901 24.9936 33.9784 24.9936C44.7083 25.2146 50.5203 19.6887 52.3086 17.9204C56.6579 13.4605 56.364 9.57457 55.3584 7.08961" stroke="#F4C70F"/>
</svg>
