<svg width="26" height="26" viewBox="0 0 26 26" fill="none" xmlns="http://www.w3.org/2000/svg">
<path d="M5 3.66667H23.9435C24.7113 3.66667 25.1927 4.49615 24.8117 5.16281L20.9092 11.9923C20.5531 12.6154 19.8904 13 19.1727 13H9.66667M9.66667 13L7.28958 16.8033C6.8733 17.4694 7.35214 18.3333 8.13758 18.3333H23M9.66667 13L4.21945 2.10557C3.88067 1.428 3.18814 1 2.4306 1H1.66667M9.66667 23.6667C9.66667 24.403 9.06971 25 8.33333 25C7.59695 25 7 24.403 7 23.6667C7 22.9303 7.59695 22.3333 8.33333 22.3333C9.06971 22.3333 9.66667 22.9303 9.66667 23.6667ZM23 23.6667C23 24.403 22.403 25 21.6667 25C20.9303 25 20.3333 24.403 20.3333 23.6667C20.3333 22.9303 20.9303 22.3333 21.6667 22.3333C22.403 22.3333 23 22.9303 23 23.6667Z" stroke="#F4C70F" stroke-width="2" stroke-linecap="round" stroke-linejoin="round"/>
</svg>
