<svg width="48" height="62" viewBox="0 0 48 62" fill="none" xmlns="http://www.w3.org/2000/svg">
<path d="M3.09826 35.9247C3.58728 42.7318 1.49147 52.7342 1.0723 54.4012C0.653138 56.0683 1.56133 57.3186 2.60925 58.4994C5.33383 61.5557 21.1224 61.0695 22.1703 60.7916C22.7991 60.5138 30.2742 59.9581 32.7194 59.6108C34.9549 58.8467 34.1166 55.7904 33.5577 53.4982C33.2084 50.0947 42.5698 45.6492 44.9451 44.1905C48.2285 42.3845 46.6916 32.66 46.5519 27.8672C46.4121 23.0744 44.1766 16.8924 43.3383 15.5727C42.2903 13.9056 39.0767 14.3918 36.3521 14.5308C32.8591 14.8086 32.7193 13.9056 32.3001 13.4889C31.6294 11.3773 32.1604 9.50644 32.5097 8.83499C32.6262 8.55715 32.6216 8.08481 31.6714 8.41822M32.5097 20.8517C32.5167 20.7888 32.527 20.7188 32.5408 20.6433M32.5097 20.8517C31.8389 19.7959 31.6714 15.9663 31.6714 14.1835M32.5097 20.8517C32.2302 21.0184 31.9275 31.6644 31.8112 36.9666C31.6947 37.5917 31.5038 39.62 31.6714 42.7318C31.7832 48.6221 30.3674 50.002 29.6455 49.9557M32.5408 20.6433C32.6645 19.9684 33.072 18.8594 33.9769 18.5595C35.2344 18.1427 38.7274 17.726 39.6356 18.1427C40.5438 18.5595 41.8013 20.3655 41.7314 21.0601C41.6616 21.7547 41.6616 24.0469 42.0109 25.0193C42.2903 25.7973 42.4999 27.7515 42.5698 28.6313C42.5465 29.0481 42.5837 30.1594 42.9191 31.2708C43.1287 32.0349 43.478 38.2863 41.7314 40.9258C40.4739 41.8983 34.3262 45.024 33.418 42.7318C32.9988 41.8288 32.3 40.8564 32.5097 36.4804C32.8591 33.7019 32.991 22.7271 32.5408 20.6433ZM33.0346 16.6146C34.6181 16.1515 38.434 15.3188 41.7314 16.0968C42.1227 16.2635 42.2604 17.0314 42.307 17.3092M3.09826 53.1509C2.93525 53.915 2.6791 55.5126 2.95854 55.7904C3.29387 56.0683 3.84345 56.2767 4.07632 56.3461M7.35979 57.5964C11.3884 58.1058 21.0578 60.2001 30.9097 56.9355M3.58729 43.4264C3.33113 45.6029 3.72701 50.3447 7.35979 51.9006M10.4333 52.6774C20.092 53.4516 24.2801 52.1507 26.851 51.4839M19.9348 15.3643C20.5402 15.4106 21.9188 15.4477 22.5895 15.2254M24.9648 15.2254C25.8497 15.1559 27.8291 14.9198 28.6674 14.5308M30.9728 13.7667C31.0893 13.6741 31.3361 13.4333 31.392 13.211M31.6714 8.41822C30.9728 8.69607 24.8251 9.94636 23.4278 9.5296C23.2183 9.80744 23.2183 10.9188 22.4498 10.641C21.8909 10.502 20.7731 10.502 20.7033 11.1272C20.7033 11.6273 20.9827 12.2154 21.1224 12.4469C20.6101 12.2849 19.4458 12.1274 18.8869 12.7943C18.5376 13.7667 18.6773 15.017 19.0266 15.7811C19.3759 16.5451 19.306 17.1008 18.4677 17.3092C17.6294 17.5176 16.9308 18.0038 17.1403 18.9068C17.308 19.6292 17.2102 20.2729 17.1403 20.5044C16.8143 21.1064 15.8689 22.2548 14.6952 22.0325C13.7171 22.1714 13.298 22.2409 13.1583 23.2828C13.2281 24.1163 13.2281 25.0888 13.0185 25.2972C12.809 25.5056 11.2021 26.6864 11.272 27.2421C11.3419 27.7978 11.1323 29.3954 11.5515 30.0205C11.761 30.7846 11.9008 32.7989 10.9926 33.563C10.0145 33.7714 9.52548 33.4935 9.52548 32.7989C9.73506 32.1043 10.2241 31.6181 9.80493 30.7151C9.24604 30.1594 9.24604 28.7702 9.52548 28.3535C9.80493 27.9367 10.6433 26.2002 10.2241 25.4361C9.80493 24.672 8.82687 23.2828 7.63923 23.6301C6.87076 24.1858 6.87076 24.5331 6.87076 25.0888C6.87076 25.6445 6.87076 26.8253 6.31187 27.0337C5.40368 27.7978 5.47354 28.0061 5.5434 28.5618C5.61326 29.1175 6.17215 29.0481 6.10229 29.6732C6.03243 30.2984 6.03243 32.1043 5.26396 32.2433C4.81685 32.6878 4.61192 33.3083 4.56535 33.563C4.63521 34.1418 4.55137 35.2995 3.65715 35.2995C3.09826 35.2301 2.25993 35.2995 2.46951 33.7714C2.5254 33.3268 2.35308 32.9379 2.25993 32.7989C2.19007 32.3359 2.09226 31.3542 2.25993 31.1319C2.60924 30.7151 2.81882 29.6732 2.81882 29.3259C2.81882 28.9786 2.39965 26.6169 2.25993 26.478C2.09226 26.2002 2.32979 24.9267 2.46951 24.3247C2.60924 23.7227 2.76293 22.2409 2.25993 21.1295C1.7709 20.0876 1.28188 18.9763 1.49146 18.629C1.70104 18.2816 1.98049 16.9619 1.91062 16.0589C1.85474 15.3365 2.16678 14.6465 2.32979 14.3918C2.65581 13.7667 3.16812 12.2664 2.60924 11.2661C1.91063 10.0158 1.07229 8.90445 1.70104 7.51524C2.14815 6.62614 2.16678 5.94079 2.12021 5.70926C2.09692 5.19988 2.2739 4.2089 3.16812 4.32004C4.06235 4.43118 5.17081 3.67174 5.61326 3.27813C5.91599 3.18552 6.61926 3.05586 7.01048 3.27813C7.40171 3.27813 7.68581 2.86137 7.77896 2.65299C8.26798 2.4446 9.34384 2.20844 9.73507 2.93083C10.4057 3.59765 11.1789 3.81066 11.4816 3.83382C11.7145 3.88012 12.292 4.0422 12.7391 4.32004C13.3678 4.66735 15.813 4.73681 16.0226 4.66735M31.6714 8.41822C32.2536 8.07092 33.3063 7.18182 32.8591 6.40386C32.7194 6.26494 32.2303 6.05656 31.9509 6.40386C31.2243 6.54631 30.9961 5.25923 30.9728 4.59788C30.6934 3.83382 29.4359 3.97274 29.2263 4.18112C29.0167 4.3895 28.5277 4.66735 27.3401 4.87573C26.3899 4.98686 25.4072 3.94958 25.0346 3.41705C24.3526 2.09908 22.2355 2.35852 21.2621 2.65299C19.8649 3.04197 18.817 2.49091 18.4677 2.16676C18.2581 1.91207 17.6992 1.33323 17.1403 1.05539C15.1283 0.666408 13.0418 2.42145 12.2501 3.34759M5.12423 13.9056C5.31053 14.415 5.93462 15.2809 6.94062 14.6697M8.96659 18.6984C9.03645 19.3467 9.49754 20.4488 10.783 19.6709C11.1323 19.2541 11.0624 18.8373 10.9227 18.7679M11.6912 14.8086C12.0871 15.2485 12.9347 15.8088 13.1583 14.5308M8.75701 9.46014C8.96659 10.039 9.59534 10.8493 10.4337 9.46014M3.65715 25.7834C3.77359 25.8992 4.13221 26.0613 4.63521 25.7834M16.9308 6.68171C17.3033 7.00586 18.1743 7.45967 18.6773 6.68171M36.7049 47.0645C35.7161 47.4658 33.6467 48.1369 33.1327 48.9138M32.9988 49.2611C33.0063 49.1499 33.0536 49.0334 33.1327 48.9138M33.1327 48.9138C32.9716 48.4971 32.8827 47.3979 34.0005 47.0645C35.3977 46.3699 41.5917 43.8432 42.7095 42.7318M42.7095 18.5595C43.2451 21.6158 44.7927 28.3346 44.6251 30.6129C44.4574 32.8912 44.5552 35.4616 44.6251 36.4804C44.6018 38.3326 43.9386 41.283 43.6592 41.8387" stroke="#F4C70F" stroke-width="0.774193" stroke-linecap="round" stroke-linejoin="round"/>
</svg>
