<svg width="48" height="62" viewBox="0 0 48 62" fill="none" xmlns="http://www.w3.org/2000/svg">
<path d="M46.6667 9.82353V57.4706L12.5847 61L1.55181 51.625V5.85294L1.33333 5.63235L19.4667 4.41912V3.31618C19.4897 3.13038 19.557 2.87931 19.6851 2.61438C19.9627 2.04053 20.5258 1.40169 21.5422 1.22059C22.9404 1.13235 26.7127 1.03676 28.4241 1C29.8807 1.01501 32.5266 1.37308 33.449 2.58435C33.6564 2.85674 33.7767 3.17228 33.7767 3.53676L46.6667 9.82353Z" fill="white"/>
<path d="M1.55181 5.85294V51.625L12.5847 61M1.55181 5.85294L1.33333 5.63235L19.4667 4.41912M1.55181 5.85294C2.75341 11.9191 5.22217 24.2941 5.48434 25.2647C5.59315 25.399 5.69764 25.5081 5.7974 25.5956M1.55181 5.85294L5.48434 8.05446M12.5847 12.0294L46.6667 9.82353M12.5847 12.0294V61M12.5847 12.0294L7.01365 25.5956C6.85678 25.849 6.41875 26.1407 5.7974 25.5956M12.5847 12.0294L5.48434 8.05446M46.6667 9.82353V57.4706L12.5847 61M46.6667 9.82353L33.7767 3.53676M33.7767 3.53676C33.7767 3.17228 33.6564 2.85674 33.449 2.58435M33.7767 3.53676V7.50735M19.4667 7.28676C19.139 7.28676 18.418 7.33088 18.1558 7.50735C17.9373 8.05882 19.2482 8.72059 19.7944 8.94118C22.5253 10.8162 30.1719 10.0441 31.2643 9.93382C33.3616 9.75735 33.8131 8.90441 33.7767 8.5V7.50735M19.4667 7.28676C19.6851 7.61765 20.6683 8.36765 22.853 8.72059C25.8024 8.94118 32.3566 9.27206 33.7767 7.50735M19.4667 7.28676V4.41912M19.6851 2.61438C19.557 2.87931 19.4897 3.13038 19.4667 3.31618V4.41912M19.6851 2.61438C19.9627 2.04053 20.5258 1.40169 21.5422 1.22059C22.9404 1.13235 26.7127 1.03676 28.4241 1C29.8807 1.01501 32.5266 1.37308 33.449 2.58435M19.6851 2.61438C20.559 2.92184 22.8093 3.53676 24.8193 3.53676C26.8292 3.53676 27.8415 3.53676 28.0964 3.53676C29.6985 3.60035 33.012 3.49889 33.449 2.58435M5.48434 8.05446L5.7974 25.5956" stroke="#F4C70F" stroke-width="1.36134" stroke-linecap="round" stroke-linejoin="round"/>
<path d="M22.667 4.33313V7.66646" stroke="#F4C70F" stroke-width="0.85084" stroke-linecap="round" stroke-linejoin="round"/>
<path d="M21.3339 4.33313V6.9998" stroke="#F4C70F" stroke-width="0.85084" stroke-linecap="round" stroke-linejoin="round"/>
<path d="M24.001 4.99988V7.66654" stroke="#F4C70F" stroke-width="0.85084" stroke-linecap="round" stroke-linejoin="round"/>
<path d="M29.3332 5.66663V7.66663" stroke="#F4C70F" stroke-width="0.85084" stroke-linecap="round" stroke-linejoin="round"/>
<path d="M30.6672 4.99988V7.66654" stroke="#F4C70F" stroke-width="0.85084" stroke-linecap="round" stroke-linejoin="round"/>
<path d="M31.9992 4.33313V6.9998" stroke="#F4C70F" stroke-width="0.85084" stroke-linecap="round" stroke-linejoin="round"/>
</svg>
