<svg width="82" height="62" viewBox="0 0 82 62" fill="none" xmlns="http://www.w3.org/2000/svg">
<path d="M38.3993 20.8849C37.7281 21.1086 36.3412 21.8692 36.1622 23.1219" stroke="#F4C70F" stroke-linecap="round" stroke-linejoin="round"/>
<path d="M51.1494 17.7523C50.4038 17.8269 48.8677 18.2892 48.6887 19.5419" stroke="#F4C70F" stroke-linecap="round" stroke-linejoin="round"/>
<path d="M56.0707 35.4248C56.9655 35.4994 58.8893 35.5143 59.4262 34.9774" stroke="#F4C70F" stroke-linecap="round" stroke-linejoin="round"/>
<path d="M31.4631 38.7807C32.3579 38.9298 34.416 38.9149 35.4898 37.6622" stroke="#F4C70F" stroke-linecap="round" stroke-linejoin="round"/>
<path d="M68.1485 30.7279C68.745 31.399 69.5355 33.0991 67.9248 34.5308" stroke="#F4C70F" stroke-linecap="round" stroke-linejoin="round"/>
<path d="M69.406 20.846C70.6737 22.4865 72.6368 26.5729 72.6368 29.6152" stroke="#F4C70F" stroke-linecap="round" stroke-linejoin="round"/>
<path d="M67.0325 15.7397C68.8967 17.1565 72.8487 21.0191 73.7435 25.1352" stroke="#F4C70F" stroke-linecap="round" stroke-linejoin="round"/>
<path d="M36.1622 41.6885C37.1316 41.9868 39.4283 42.4939 40.86 42.1359" stroke="#F4C70F" stroke-linecap="round" stroke-linejoin="round"/>
<path d="M32.5823 42.5833C33.9245 43.1799 37.28 44.194 39.9644 43.4781" stroke="#F4C70F" stroke-linecap="round" stroke-linejoin="round"/>
<path d="M15.3575 38.5569C15.5812 39.0043 16.2971 39.8991 17.3709 39.8991" stroke="#F4C70F" stroke-linecap="round" stroke-linejoin="round"/>
<path d="M23.4089 41.9124C24.08 41.7632 25.5565 41.1518 26.0934 39.899" stroke="#F4C70F" stroke-linecap="round" stroke-linejoin="round"/>
<path d="M25.5736 19.4619C23.6348 20.3567 19.5336 23.8017 18.6388 30.4233" stroke="#F4C70F" stroke-linecap="round" stroke-linejoin="round"/>
<path d="M22.9565 24.0773C22.0617 25.5686 20.3169 29.1777 20.4958 31.6831" stroke="#F4C70F" stroke-linecap="round" stroke-linejoin="round"/>
<path d="M80.4535 40.3467C80.6026 40.7941 80.6772 42.0469 79.7824 43.4786C78.4179 46.0125 74.8456 45.829 71.7291 45.2959M80.4535 40.3467H77.769M80.4535 40.3467C80.3589 39.5902 80.2523 38.5533 80.1737 37.4385M72.8476 13.9499C73.0266 15.0236 73.9661 16.6343 74.4135 17.3054C74.7202 17.7348 75.4003 18.7294 76.0305 19.7661M72.8476 13.9499C72.4896 15.2027 70.7597 16.4106 69.9396 16.8579M72.8476 13.9499C72.4613 12.9843 70.5746 9.85129 68.4828 8.58097M45.5559 1.19885C44.8848 1.19885 45.1085 0.751442 43.5426 1.19885C42.9675 1.36318 41.9094 1.73876 40.6346 2.14824M45.5559 1.19885C46.1362 0.966758 48.6916 1.09836 51.1486 1.3009M45.5559 1.19885C46.0927 1.91473 46.0779 3.43585 46.0034 4.10693M16.9221 20.6609C16.9221 19.9898 17.1458 19.5424 17.5932 18.4239C17.9997 18.2206 18.6833 17.4632 19.3083 16.6342M16.9221 20.6609C16.7431 21.1978 15.5053 22.3759 14.9088 22.8979C14.8102 22.9875 14.6999 23.0943 14.5819 23.216M16.9221 20.6609C17.2799 20.6609 18.662 21.2574 19.3083 21.5557M12.448 27.3719C12.2691 28.2668 11.3295 29.3853 10.8821 29.8327C10.7717 29.9707 10.6327 30.2027 10.5195 30.5038M12.448 27.3719C12.448 25.7973 13.7181 24.1072 14.5819 23.216M12.448 27.3719C12.8059 27.7299 14.9834 27.9685 16.0274 28.0431M10.8821 41.2415C10.6585 40.8686 10.2558 39.8098 10.4347 38.557C10.5217 38.354 10.5937 38.1283 10.6521 37.8859M10.8821 41.2415C10.9567 41.3906 11.061 41.8231 10.8821 42.36C10.6585 43.0311 11.5532 44.6994 12.0006 45.0445C13.1191 46.0139 16.3404 47.7289 20.2776 46.8341C21.7638 46.5156 23.3508 46.1972 24.7517 46.0221M10.8821 41.2415C11.24 41.4204 12.8209 41.4652 13.5666 41.4652M77.769 37.4385H80.1737M80.1737 37.4385C80.0323 35.4335 79.9812 33.1765 80.2529 31.846M77.769 32.2934C78.381 32.0697 79.7344 31.667 80.2529 31.846M80.2529 31.846C80.3065 31.5831 80.3728 31.3564 80.4535 31.1749C80.9009 29.609 81.3483 28.2668 80.0061 27.372C79.8012 27.2081 79.5739 26.9918 79.3351 26.7256M76.8743 26.9245C77.4709 26.7919 78.7982 26.5665 79.3351 26.7256M79.3351 26.7256C78.2696 25.5384 76.975 23.361 76.4268 20.4372C76.2999 20.2151 76.1663 19.9896 76.0305 19.7661M73.7425 21.5557C74.4476 21.2574 75.8923 20.4819 76.0305 19.7661M65.4655 12.1602C66.2094 11.5637 67.8542 10.0127 68.4828 8.58097M68.4828 8.58097C68.1515 8.37981 67.8151 8.22536 67.4787 8.13362C66.405 7.41777 65.3908 6.344 65.018 5.8966C64.662 5.70077 64.198 5.46074 63.6759 5.21121M61.6626 8.13362C62.1846 7.60214 63.318 6.27359 63.6759 5.21121M63.6759 5.21121C62.0113 4.41556 59.7568 3.52334 58.5307 3.65958C58.2719 3.61646 57.9647 3.51187 57.636 3.36958M57.1885 6.34395C57.636 6.00152 58.3518 4.92725 57.636 3.36958M57.636 3.36958C56.6002 2.92135 55.3503 2.09906 54.7277 1.64625C53.784 1.54139 52.4807 1.41072 51.1486 1.3009M51.1486 4.10693C51.2977 3.57846 51.5065 2.2774 51.1486 1.3009M41.5294 4.55433C41.2311 3.91963 40.6346 2.54984 40.6346 2.14824M40.6346 2.14824C39.0133 2.66901 37.0413 3.24461 35.2657 3.51022M37.2791 5.67284C36.9062 5.1259 35.9816 3.92766 35.2657 3.51022M35.2657 3.51022C34.6364 3.60438 34.0317 3.65958 33.476 3.65958C32.0561 4.17588 30.1148 4.6922 28.5547 5.55236M32.5813 8.58097C31.8356 7.68041 29.9864 5.8139 28.5547 5.55236M28.5547 5.55236C27.922 5.90117 27.3521 6.30653 26.905 6.79135M28.5547 10.3706C27.7526 10.1469 26.0311 9.52052 25.5619 8.80467M25.5619 8.80467C25.7915 8.558 25.9767 8.32875 26.0939 8.13356C26.263 7.62627 26.5439 7.1829 26.905 6.79135M25.5619 8.80467C24.4759 9.97151 22.3975 11.5281 21.8435 11.7128C21.6801 11.9307 21.5299 12.1487 21.3962 12.3633M24.528 13.9498C23.7078 13.4141 21.9332 12.3469 21.3962 12.3633M21.3962 12.3633C20.981 13.0302 20.725 13.6659 20.725 14.1735C20.725 14.5397 20.0589 15.6386 19.3083 16.6342M22.9621 17.9765C21.7939 17.6036 19.4276 16.8132 19.3083 16.6342M17.5933 24.4638C17.3696 24.4638 14.7024 23.3103 14.5819 23.216M14.0141 31.3986C12.952 31.2494 10.7662 30.8617 10.5195 30.5038M10.5195 30.5038C10.327 31.016 10.2093 31.7281 10.4347 32.5171C10.6059 33.1163 10.7444 33.9122 10.8124 34.7541M13.3429 34.7541H10.8124M10.8124 34.7541C10.8482 35.1961 10.8645 35.6507 10.856 36.0963M14.4615 37.8859C14.2825 37.8859 11.8473 37.8859 10.6521 37.8859M10.6521 37.8859C10.7812 37.35 10.8439 36.7324 10.856 36.0963M29.2258 14.8446C30.568 12.4585 34.3262 7.77564 38.6213 8.13356M26.905 6.79135C26.4855 6.71678 25.4676 6.70187 24.7517 7.23875C24.0806 7.90986 23.6332 8.58097 22.0673 8.58097M22.0673 8.58097C20.9936 8.75993 19.7806 9.55034 19.3083 9.92318C18.9626 10.1937 18.3589 10.6278 17.8169 10.9287M22.0673 8.58097C22.1419 9.10294 22.3357 10.1916 22.5147 10.3706M2.15784 28.4905C2.45611 28.4159 3.09739 28.1325 3.27635 27.5956C3.27635 27.1619 3.48657 26.6231 3.77964 26.132M2.15784 28.4905C1.63587 28.7142 0.726149 29.5642 1.26303 31.1749C2.15784 31.6223 4.17109 32.0697 4.17109 32.5171C4.39479 32.9645 9.93508 36.0963 10.856 36.0963M2.15784 28.4905C2.90349 29.0124 4.52902 30.0564 5.0659 30.0564M24.7517 46.0221C26.3027 45.8283 27.6256 45.8104 28.3309 46.163C29.6731 46.8341 32.3575 47.7289 35.4893 47.2815C37.279 46.8341 39.0686 45.4919 42.4241 46.163C44.5542 46.589 48.3068 47.8263 52.9381 47.8149M24.7517 46.0221C26.0193 46.9639 29.0915 48.8921 31.239 49.071C32.5813 49.2948 34.1472 49.2948 34.8183 50.637C35.7131 51.5318 38.3975 53.5451 42.6478 52.6503C43.3637 52.4713 44.2883 52.7248 44.6612 52.874C45.8542 53.3214 48.6431 54.1715 50.2537 53.9925C50.9696 54.1715 52.1925 54.5145 52.7144 54.6636C53.3855 55.1856 54.862 56.2743 55.3989 56.4532C56.07 56.6769 58.5307 57.1243 59.4255 58.0191C60.3203 58.9139 62.781 60.4799 63.2284 60.4799C63.5864 60.4799 64.1232 60.629 64.3469 60.7036C64.8689 60.9273 66.1813 61.2404 67.2551 60.7036C68.1499 60.0325 67.7025 59.1376 68.1499 58.4665M68.1499 58.4665C68.4935 57.951 69.6291 57.1716 70.0359 56.2295M68.1499 58.4665C67.792 57.9297 66.2111 57.9446 65.4655 58.0191M71.7291 45.2959C71.2689 45.2172 70.8186 45.1309 70.3869 45.0445C66.1365 43.4786 64.1232 45.2682 61.6625 46.163C58.558 47.3885 55.6026 47.8084 52.9381 47.8149M71.7291 45.2959C71.8073 45.4034 71.8672 45.5461 71.9118 45.7155M6.07225 23.569C6.82431 22.588 7.61502 21.3377 7.75039 20.6609C7.75039 20.0079 7.95889 19.4442 8.28893 18.959M6.07225 23.569C5.58152 24.2091 5.10726 24.7346 4.84227 24.9112C4.49644 25.1418 4.09122 25.6099 3.77964 26.132M6.07225 23.569C6.48247 24.091 7.3924 25.1349 7.75033 25.1349M3.77964 26.132C4.58123 26.6945 6.27389 27.8193 6.63182 27.8193M8.28893 18.959C8.86339 18.1146 9.80607 17.5079 10.6585 17.0816C10.9528 16.9976 11.255 16.8661 11.5533 16.702M8.28893 18.959C8.92964 19.8246 10.2558 21.5557 10.4347 21.5557M11.5533 16.702C12.8418 15.9932 14.0561 14.6765 14.2378 13.9498C14.2983 13.6471 14.4735 13.3444 14.7102 13.055M11.5533 16.702L13.3429 18.4239M14.7102 13.055C15.3482 12.2751 16.4327 11.5917 16.9222 11.2654C17.1344 11.2654 17.4625 11.1255 17.8169 10.9287M14.7102 13.055L16.0273 15.292M17.8169 10.9287L18.7117 12.6076M11.5533 24.4638C12.2989 22.6742 13.3429 20.0328 16.0273 18.959M8.86884 28.9379C8.7197 28.565 8.55565 27.7746 9.09254 27.5956C9.62942 27.4167 10.211 26.7754 10.4347 26.4771M45.3323 50.637C45.7051 50.5624 46.4508 50.3238 46.4508 49.9659M52.9381 47.8149C52.3416 48.1591 51.1485 49.0263 51.1485 49.7422M66.1366 45.4918C66.062 47.2814 64.4812 51.6468 63.2284 53.6154M66.8077 49.071C66.6585 50.3387 66.0471 53.2319 64.7944 54.6636M69.2684 45.9392C69.9122 45.9579 71.3421 45.9392 71.9118 45.7155M71.9118 45.7155C72.0855 46.3754 72.0257 47.44 71.8997 48.3999M70.1632 48.3999C70.7361 48.4464 71.8856 48.5114 71.8997 48.3999M71.8997 48.3999C71.7804 49.3093 71.6016 50.1248 71.5054 50.4133C71.3845 50.7759 71.0527 51.4312 70.7581 51.9792M69.0447 51.5318C69.5158 51.5318 70.5182 51.6213 70.7581 51.9792M70.7581 51.9792C70.6166 52.2424 70.4837 52.4809 70.3869 52.6503C70.2377 53.0977 69.9842 54.2609 70.1632 55.3347C70.2151 55.6459 70.1587 55.9451 70.0359 56.2295M67.4788 55.3347C68.0904 55.7075 69.4581 56.4085 70.0359 56.2295" stroke="#F4C70F" stroke-linecap="round" stroke-linejoin="round"/>
<path d="M50.0319 8.80439C51.896 9.25179 55.8481 10.4598 56.7429 11.7125M48.4659 7.01477C50.4793 7.16391 54.7296 7.8201 55.6244 9.25179" stroke="#F4C70F" stroke-linecap="round" stroke-linejoin="round"/>
</svg>
