<svg width="82" height="80" viewBox="0 0 82 80" fill="none" xmlns="http://www.w3.org/2000/svg">
<path d="M66.3598 17.3493C65.8727 17.595 64.2795 17.7587 63.5438 17.8099C63.4678 17.8867 63.4678 18.0018 63.5438 18.3473C63.8483 19.7291 65.066 19.5947 65.4465 19.4988C66.3598 19.2685 66.4359 17.6564 66.3598 17.3493Z" stroke="#F4C70F" stroke-width="0.490162" stroke-linecap="round" stroke-linejoin="round"/>
<path d="M56.0667 18.8078C55.657 19.0131 54.3168 19.1499 53.698 19.1927C53.6341 19.2568 53.634 19.353 53.698 19.6417C53.9541 20.7962 54.9784 20.684 55.2984 20.6038C56.0667 20.4114 56.1307 19.0644 56.0667 18.8078Z" stroke="#F4C70F" stroke-width="0.490162" stroke-linecap="round" stroke-linejoin="round"/>
<path d="M55.0033 26.9454C54.5936 27.1506 53.2535 27.2875 52.6346 27.3302C52.5707 27.3944 52.5707 27.4906 52.6346 27.7792C52.8907 28.9338 53.915 28.8216 54.2351 28.7414C55.0033 28.5489 55.0673 27.2019 55.0033 26.9454Z" stroke="#F4C70F" stroke-width="0.490162" stroke-linecap="round" stroke-linejoin="round"/>
<path d="M48.3971 27.5595V27.8666L48.2449 28.0201V28.711L47.5599 29.4019L47.4077 29.9393L47.2555 30.2464" stroke="#F4C70F" stroke-width="0.490162" stroke-linecap="round" stroke-linejoin="round"/>
<path d="M61.7938 25.3332C61.6416 25.4868 60.4239 25.4868 60.2717 25.4868C59.5106 25.9474 59.815 26.7918 60.2717 27.0221C61.1849 27.1756 62.3265 25.6403 62.2504 25.3332C62.1743 25.0262 61.946 25.1797 61.7938 25.3332Z" stroke="#F4C70F" stroke-width="0.490162" stroke-linecap="round" stroke-linejoin="round"/>
<path d="M63.1639 22.5691C63.2857 22.8148 63.1639 23.0809 63.0878 23.1832C62.7833 23.1832 62.7073 22.9529 62.5551 22.8762C62.4029 22.7994 62.3268 22.9529 62.0614 23.1832C61.872 23.26 61.4896 23.3368 61.4135 22.7994C61.3374 22.262 61.9462 21.6479 62.479 21.4176C63.1639 21.4944 63.0117 21.955 63.0117 22.0317C63.0117 22.1085 62.9356 22.3388 63.1639 22.5691Z" stroke="#F4C70F" stroke-width="0.490162" stroke-linecap="round" stroke-linejoin="round"/>
<path d="M51.4489 23.9513C51.5707 24.197 51.4489 24.4631 51.3728 24.5655C51.0683 24.5655 50.9924 24.3351 50.8402 24.2584C50.6879 24.1816 50.6118 24.3351 50.3464 24.5655C50.1571 24.6422 49.7746 24.719 49.6985 24.1816C49.6224 23.6442 50.2312 23.0301 50.764 22.7998C51.4489 22.8766 51.2967 23.3372 51.2967 23.4139C51.2967 23.4907 51.2206 23.721 51.4489 23.9513Z" stroke="#F4C70F" stroke-width="0.490162" stroke-linecap="round" stroke-linejoin="round"/>
<path d="M56.2771 6.06447L56.9995 4.29883C62.6822 5.57828 74.1387 11.3921 74.5041 24.4118C74.2776 24.4714 73.6061 24.6483 72.6014 24.913M56.2771 6.06447C61.5663 8.1898 72.2361 14.935 72.6014 24.913M56.2771 6.06447L55.4603 8.06042M72.6014 24.913C72.1762 25.025 71.6914 25.1527 71.1554 25.2939M55.4603 8.06042L45.6597 32.0118C52.6124 30.1797 65.125 26.8827 71.1554 25.2939M55.4603 8.06042C56.1003 7.83012 57.4714 7.40022 57.8367 7.52305C58.2934 7.67659 58.3695 8.29072 58.3695 8.44426C58.3695 8.59779 59.1305 10.9008 62.5553 11.3614C63.3925 11.5149 64.5341 11.6685 64.6102 12.82C64.6863 13.9715 65.0668 14.9695 65.8279 15.1998C66.589 15.4301 67.8828 15.8139 67.8828 16.2745C67.8828 16.7351 67.8067 18.8846 68.5677 19.6523C69.3288 20.4967 70.5465 21.725 70.4704 22.1856C70.4704 22.6462 70.4704 25.1013 71.1554 25.2939M55.5535 12.5897C56.0609 12.5385 57.1061 12.4515 57.2279 12.5129C57.3496 12.5129 57.3293 12.2059 57.304 12.0523C57.5577 12.0267 58.0955 11.9756 58.2173 11.9756C58.339 11.9756 58.4709 11.822 58.5217 11.7452M56.8473 9.82607C56.9234 9.7493 57.7606 9.2887 57.9128 9.2887C58.0955 9.41153 58.2934 10.3123 58.3695 10.7473C57.9382 10.5426 57.03 10.0717 56.8473 9.82607ZM54.488 14.4321C54.4373 14.5089 54.3663 14.6778 54.488 14.7392C54.6402 14.8159 55.0208 14.8927 55.0969 14.6624C55.2187 14.4782 55.4013 14.6368 55.4774 14.7392C55.6043 14.7903 55.9036 14.8159 56.0863 14.5089C56.1624 14.2018 55.9341 13.2806 54.7925 13.0503C54.4119 13.1271 54.1075 13.2806 54.2597 13.5109C54.4119 13.7412 54.5641 13.818 54.6402 13.9715C54.7163 14.125 54.6402 14.4321 54.488 14.4321ZM61.4137 17.5028C61.9972 17.0166 63.1794 15.9982 63.2403 15.8139C63.3925 16.0442 63.3925 17.5796 62.4792 18.1937C62.1748 18.3472 61.7182 18.2705 61.4137 17.5028ZM52.7376 18.3472C52.8137 18.2961 52.9963 18.1937 53.1181 18.1937C53.3464 18.1937 53.4225 18.3472 53.4225 18.424C53.4225 18.5008 52.5093 19.4987 52.5093 19.729C52.5093 19.9593 52.5854 21.0341 51.9765 21.0341C51.4438 20.9573 50.9871 20.6502 51.1393 20.1129C51.2611 19.683 52.2556 18.7567 52.7376 18.3472Z" stroke="#F4C70F" stroke-width="0.490162" stroke-linecap="round" stroke-linejoin="round"/>
<path d="M60.1201 20.3431H60.3484L60.5007 20.036H61.3378L61.5661 19.5754" stroke="#F4C70F" stroke-width="0.490162" stroke-linecap="round" stroke-linejoin="round"/>
<path d="M56.9999 27.8663H57.2282L57.3804 27.5592H58.2176L58.4459 27.0986" stroke="#F4C70F" stroke-width="0.490162" stroke-linecap="round" stroke-linejoin="round"/>
<path d="M68.1713 21.6482C68.1713 22.6595 67.359 23.4758 66.3615 23.4758C65.364 23.4758 64.5517 22.6595 64.5517 21.6482C64.5517 20.6368 65.364 19.8205 66.3615 19.8205C67.359 19.8205 68.1713 20.6368 68.1713 21.6482Z" stroke="#F4C70F" stroke-width="0.490162"/>
<path d="M59.9513 23.1072C59.9513 24.585 58.7642 25.7793 57.3043 25.7793C55.8444 25.7793 54.6573 24.585 54.6573 23.1072C54.6573 21.6295 55.8444 20.4351 57.3043 20.4351C58.7642 20.4351 59.9513 21.6295 59.9513 23.1072Z" stroke="#F4C70F" stroke-width="0.490162"/>
<path d="M60.7137 16.0447C60.7137 17.3528 59.663 18.4097 58.3712 18.4097C57.0794 18.4097 56.0287 17.3528 56.0287 16.0447C56.0287 14.7365 57.0794 13.6797 58.3712 13.6797C59.663 13.6797 60.7137 14.7365 60.7137 16.0447Z" stroke="#F4C70F" stroke-width="0.490162"/>
<path d="M54.3186 25.8709C54.3186 26.0767 54.1537 26.24 53.9548 26.24C53.7559 26.24 53.591 26.0767 53.591 25.8709C53.591 25.6651 53.7559 25.5019 53.9548 25.5019C54.1537 25.5019 54.3186 25.6651 54.3186 25.8709Z" stroke="#F4C70F" stroke-width="0.490162"/>
<path d="M54.3186 25.8709C54.3186 26.0767 54.1537 26.24 53.9548 26.24C53.7559 26.24 53.591 26.0767 53.591 25.8709C53.591 25.6651 53.7559 25.5019 53.9548 25.5019C54.1537 25.5019 54.3186 25.6651 54.3186 25.8709Z" stroke="#F4C70F" stroke-width="0.490162"/>
<path d="M54.3186 25.8709C54.3186 26.0767 54.1537 26.24 53.9548 26.24C53.7559 26.24 53.591 26.0767 53.591 25.8709C53.591 25.6651 53.7559 25.5019 53.9548 25.5019C54.1537 25.5019 54.3186 25.6651 54.3186 25.8709Z" stroke="#F4C70F" stroke-width="0.490162"/>
<path d="M55.3849 17.7329C55.3849 17.9387 55.22 18.102 55.0211 18.102C54.8222 18.102 54.6573 17.9387 54.6573 17.7329C54.6573 17.5271 54.8222 17.3639 55.0211 17.3639C55.22 17.3639 55.3849 17.5271 55.3849 17.7329Z" stroke="#F4C70F" stroke-width="0.490162"/>
<path d="M55.3849 17.7329C55.3849 17.9387 55.22 18.102 55.0211 18.102C54.8222 18.102 54.6573 17.9387 54.6573 17.7329C54.6573 17.5271 54.8222 17.3639 55.0211 17.3639C55.22 17.3639 55.3849 17.5271 55.3849 17.7329Z" stroke="#F4C70F" stroke-width="0.490162"/>
<path d="M55.3849 17.7329C55.3849 17.9387 55.22 18.102 55.0211 18.102C54.8222 18.102 54.6573 17.9387 54.6573 17.7329C54.6573 17.5271 54.8222 17.3639 55.0211 17.3639C55.22 17.3639 55.3849 17.5271 55.3849 17.7329Z" stroke="#F4C70F" stroke-width="0.490162"/>
<path d="M59.3872 15.0461C59.3872 15.2314 59.2384 15.3809 59.0557 15.3809C58.873 15.3809 58.7242 15.2314 58.7242 15.0461C58.7242 14.8608 58.873 14.7113 59.0557 14.7113C59.2384 14.7113 59.3872 14.8608 59.3872 15.0461Z" stroke="#F4C70F" stroke-width="0.0980324"/>
<path d="M57.4068 15.8143C57.4068 15.9996 57.2579 16.1491 57.0752 16.1491C56.8925 16.1491 56.7437 15.9996 56.7437 15.8143C56.7437 15.6289 56.8925 15.4794 57.0752 15.4794C57.2579 15.4794 57.4068 15.6289 57.4068 15.8143Z" stroke="#F4C70F" stroke-width="0.0980324"/>
<path d="M57.8649 16.8887C57.8649 17.074 57.7161 17.2235 57.5334 17.2235C57.3507 17.2235 57.2018 17.074 57.2018 16.8887C57.2018 16.7034 57.3507 16.5539 57.5334 16.5539C57.7161 16.5539 57.8649 16.7034 57.8649 16.8887Z" stroke="#F4C70F" stroke-width="0.0980324"/>
<path d="M59.3872 16.1211C59.3872 16.3064 59.2384 16.4559 59.0557 16.4559C58.873 16.4559 58.7242 16.3064 58.7242 16.1211C58.7242 15.9358 58.873 15.7863 59.0557 15.7863C59.2384 15.7863 59.3872 15.9358 59.3872 16.1211Z" stroke="#F4C70F" stroke-width="0.0980324"/>
<path d="M59.8414 17.196C59.8414 17.3813 59.6926 17.5309 59.5099 17.5309C59.3272 17.5309 59.1784 17.3813 59.1784 17.196C59.1784 17.0107 59.3272 16.8612 59.5099 16.8612C59.6926 16.8612 59.8414 17.0107 59.8414 17.196Z" stroke="#F4C70F" stroke-width="0.0980324"/>
<path d="M65.7777 21.1108C65.7777 21.2537 65.663 21.3688 65.5223 21.3688C65.3817 21.3688 65.2669 21.2537 65.2669 21.1108C65.2669 20.9679 65.3817 20.8527 65.5223 20.8527C65.663 20.8527 65.7777 20.9679 65.7777 21.1108Z" stroke="#F4C70F" stroke-width="0.0980324"/>
<path d="M67.148 20.6505C67.148 20.7934 67.0332 20.9085 66.8926 20.9085C66.7519 20.9085 66.6372 20.7934 66.6372 20.6505C66.6372 20.5075 66.7519 20.3924 66.8926 20.3924C67.0332 20.3924 67.148 20.5075 67.148 20.6505Z" stroke="#F4C70F" stroke-width="0.0980324"/>
<path d="M67.7582 21.8784C67.7582 22.0213 67.6435 22.1365 67.5028 22.1365C67.3621 22.1365 67.2474 22.0213 67.2474 21.8784C67.2474 21.7355 67.3621 21.6204 67.5028 21.6204C67.6435 21.6204 67.7582 21.7355 67.7582 21.8784Z" stroke="#F4C70F" stroke-width="0.0980324"/>
<path d="M66.995 22.4928C66.995 22.6357 66.8803 22.7509 66.7396 22.7509C66.5989 22.7509 66.4842 22.6357 66.4842 22.4928C66.4842 22.3499 66.5989 22.2347 66.7396 22.2347C66.8803 22.2347 66.995 22.3499 66.995 22.4928Z" stroke="#F4C70F" stroke-width="0.0980324"/>
<path d="M65.9307 22.4928C65.9307 22.6357 65.8159 22.7509 65.6753 22.7509C65.5346 22.7509 65.4199 22.6357 65.4199 22.4928C65.4199 22.3499 65.5346 22.2347 65.6753 22.2347C65.8159 22.2347 65.9307 22.3499 65.9307 22.4928Z" stroke="#F4C70F" stroke-width="0.0980324"/>
<path d="M51.8843 27.9431C51.8843 28.7001 51.2764 29.3101 50.5311 29.3101C49.7858 29.3101 49.1779 28.7001 49.1779 27.9431C49.1779 27.1861 49.7858 26.5761 50.5311 26.5761C51.2764 26.5761 51.8843 27.1861 51.8843 27.9431Z" stroke="#F4C70F" stroke-width="0.490162"/>
<path d="M50.0996 27.4825C50.0996 27.583 50.019 27.6638 49.9203 27.6638C49.8217 27.6638 49.741 27.583 49.741 27.4825C49.741 27.382 49.8217 27.3012 49.9203 27.3012C50.019 27.3012 50.0996 27.382 50.0996 27.4825Z" stroke="#F4C70F" stroke-width="0.0980324"/>
<path d="M51.1659 27.1757C51.1659 27.2762 51.0852 27.357 50.9866 27.357C50.888 27.357 50.8073 27.2762 50.8073 27.1757C50.8073 27.0752 50.888 26.9944 50.9866 26.9944C51.0852 26.9944 51.1659 27.0752 51.1659 27.1757Z" stroke="#F4C70F" stroke-width="0.0980324"/>
<path d="M51.622 28.0971C51.622 28.1976 51.5413 28.2784 51.4427 28.2784C51.344 28.2784 51.2634 28.1976 51.2634 28.0971C51.2634 27.9966 51.344 27.9158 51.4427 27.9158C51.5413 27.9158 51.622 27.9966 51.622 28.0971Z" stroke="#F4C70F" stroke-width="0.0980324"/>
<path d="M51.0138 28.5572C51.0138 28.6577 50.9331 28.7385 50.8345 28.7385C50.7359 28.7385 50.6552 28.6577 50.6552 28.5572C50.6552 28.4567 50.7359 28.3759 50.8345 28.3759C50.9331 28.3759 51.0138 28.4567 51.0138 28.5572Z" stroke="#F4C70F" stroke-width="0.0980324"/>
<path d="M50.2519 28.5572C50.2519 28.6021 50.2279 28.6463 50.1821 28.681C50.1363 28.7156 50.0708 28.7385 49.9964 28.7385C49.9221 28.7385 49.8566 28.7156 49.8108 28.681C49.765 28.6463 49.741 28.6021 49.741 28.5572C49.741 28.5123 49.765 28.4681 49.8108 28.4334C49.8566 28.3988 49.9221 28.3759 49.9964 28.3759C50.0708 28.3759 50.1363 28.3988 50.1821 28.4334C50.2279 28.4681 50.2519 28.5123 50.2519 28.5572Z" stroke="#F4C70F" stroke-width="0.0980324"/>
<path d="M58.168 21.6484C58.168 21.8337 58.0192 21.9832 57.8365 21.9832C57.6538 21.9832 57.5049 21.8337 57.5049 21.6484C57.5049 21.463 57.6538 21.3135 57.8365 21.3135C58.0192 21.3135 58.168 21.463 58.168 21.6484Z" stroke="#F4C70F" stroke-width="0.0980324"/>
<path d="M57.2548 22.416C57.2548 22.6013 57.106 22.7508 56.9233 22.7508C56.7406 22.7508 56.5917 22.6013 56.5917 22.416C56.5917 22.2307 56.7406 22.0812 56.9233 22.0812C57.106 22.0812 57.2548 22.2307 57.2548 22.416Z" stroke="#F4C70F" stroke-width="0.0980324"/>
<path d="M59.2352 22.416C59.2352 22.6013 59.0864 22.7508 58.9037 22.7508C58.721 22.7508 58.5722 22.6013 58.5722 22.416C58.5722 22.2307 58.721 22.0812 58.9037 22.0812C59.0864 22.0812 59.2352 22.2307 59.2352 22.416Z" stroke="#F4C70F" stroke-width="0.0980324"/>
<path d="M58.6242 23.7975C58.6242 23.9828 58.4753 24.1324 58.2926 24.1324C58.1099 24.1324 57.9611 23.9828 57.9611 23.7975C57.9611 23.6122 58.1099 23.4627 58.2926 23.4627C58.4753 23.4627 58.6242 23.6122 58.6242 23.7975Z" stroke="#F4C70F" stroke-width="0.0980324"/>
<path d="M57.5589 24.7187C57.5589 24.9041 57.41 25.0536 57.2273 25.0536C57.0446 25.0536 56.8958 24.9041 56.8958 24.7187C56.8958 24.5334 57.0446 24.3839 57.2273 24.3839C57.41 24.3839 57.5589 24.5334 57.5589 24.7187Z" stroke="#F4C70F" stroke-width="0.0980324"/>
<path d="M56.0365 23.9516C56.0365 24.1369 55.8877 24.2864 55.705 24.2864C55.5223 24.2864 55.3735 24.1369 55.3735 23.9516C55.3735 23.7663 55.5223 23.6168 55.705 23.6168C55.8877 23.6168 56.0365 23.7663 56.0365 23.9516Z" stroke="#F4C70F" stroke-width="0.0980324"/>
<path d="M40.4377 14.8875C40.2863 15.4151 39.3252 16.7071 38.8635 17.2872C38.8679 17.3956 38.9518 17.4737 39.255 17.6516C40.4682 18.3631 41.1962 17.3694 41.3843 17.0222C41.8359 16.189 40.713 15.0393 40.4377 14.8875Z" stroke="#F4C70F" stroke-width="0.490162" stroke-linecap="round" stroke-linejoin="round"/>
<path d="M34.5216 23.5066C34.3933 23.9495 33.5842 25.0357 33.1956 25.5234C33.199 25.6143 33.2691 25.6796 33.5227 25.8279C34.5376 26.4211 35.1505 25.5857 35.3091 25.2941C35.6899 24.5941 34.752 23.6332 34.5216 23.5066Z" stroke="#F4C70F" stroke-width="0.490162" stroke-linecap="round" stroke-linejoin="round"/>
<path d="M39.7257 29.8147C39.5974 30.2576 38.7883 31.3438 38.3997 31.8315C38.4031 31.9224 38.4732 31.9877 38.7268 32.136C39.7417 32.7292 40.3546 31.8939 40.5132 31.6022C40.894 30.9022 39.9561 29.9413 39.7257 29.8147Z" stroke="#F4C70F" stroke-width="0.490162" stroke-linecap="round" stroke-linejoin="round"/>
<path d="M35.6971 35.1253L35.9208 35.3335L35.9294 35.5505L36.4328 36.019L36.4716 36.9954L36.7599 37.4726L36.8804 37.7937" stroke="#F4C70F" stroke-width="0.490162" stroke-linecap="round" stroke-linejoin="round"/>
<path d="M43.157 23.6864C43.1656 23.9034 42.3398 24.806 42.2366 24.9188C42.056 25.7953 42.8777 26.1424 43.3552 25.9601C44.0864 25.3872 43.742 23.4997 43.4667 23.3479C43.1914 23.1961 43.1484 23.4694 43.157 23.6864Z" stroke="#F4C70F" stroke-width="0.490162" stroke-linecap="round" stroke-linejoin="round"/>
<path d="M42.073 20.797C42.3345 20.8733 42.4458 21.1441 42.4688 21.2699C42.2623 21.4956 42.043 21.3957 41.8838 21.4565C41.7246 21.5173 41.7849 21.6778 41.7727 22.0307C41.7002 22.2231 41.4967 22.5587 41.0536 22.2507C40.6105 21.9427 40.576 21.0748 40.7695 20.5237C41.2899 20.0681 41.5223 20.4933 41.5782 20.5454C41.6341 20.5974 41.7503 20.81 42.073 20.797Z" stroke="#F4C70F" stroke-width="0.490162" stroke-linecap="round" stroke-linejoin="round"/>
<path d="M35.1368 30.4169C35.3984 30.4932 35.5097 30.764 35.5326 30.8898C35.3261 31.1155 35.1068 31.0157 34.9476 31.0764C34.7885 31.1372 34.8487 31.2977 34.8365 31.6507C34.764 31.8431 34.5606 32.1787 34.1174 31.8706C33.6743 31.5626 33.6398 30.6948 33.8333 30.1437C34.3538 29.688 34.5861 30.1132 34.6421 30.1653C34.698 30.2174 34.8142 30.43 35.1368 30.4169Z" stroke="#F4C70F" stroke-width="0.490162" stroke-linecap="round" stroke-linejoin="round"/>
<path d="M25.3789 14.7084L24.5825 12.9754C29.3686 9.6308 41.3741 5.08139 51.1074 13.6405C50.9973 13.8488 50.6708 14.4664 50.1822 15.3907M25.3789 14.7084C30.5144 12.2291 42.6649 8.89449 50.1822 15.3907M25.3789 14.7084L26.2791 16.6674M50.1822 15.3907C49.9754 15.7818 49.7397 16.2279 49.479 16.721M26.2791 16.6674L37.0824 40.176C40.4629 33.7797 46.5468 22.2686 49.479 16.721M26.2791 16.6674C26.5453 16.0369 27.162 14.729 27.4993 14.5415C27.9208 14.3071 28.4199 14.6672 28.5317 14.7713C28.6436 14.8755 30.8376 15.8732 33.4959 13.6469C34.1755 13.1305 35.0616 12.3884 35.9521 13.1129C36.8427 13.8374 37.8279 14.2322 38.5118 13.8242C39.1957 13.4163 40.3528 12.7175 40.6884 13.0299C41.024 13.3423 42.5384 14.8565 43.6138 14.8129C44.7452 14.8215 46.4659 14.7519 46.7499 15.1207C47.0855 15.433 48.8742 17.0981 49.479 16.721M29.6422 19.6701C29.949 19.2593 30.5944 18.4255 30.7218 18.3769C30.8044 18.2866 30.5669 18.0934 30.4378 18.0081C30.5912 17.8027 30.9187 17.3693 31.0013 17.2791C31.0838 17.1888 31.0615 16.9869 31.0399 16.8972M28.5062 16.8368C28.5019 16.7283 28.734 15.7954 28.8373 15.6825C29.0506 15.6304 29.8411 16.0946 30.2096 16.3332C29.768 16.5141 28.809 16.868 28.5062 16.8368ZM30.2619 21.7094C30.2834 21.7991 30.3583 21.9663 30.4856 21.9177C30.6447 21.8569 30.9588 21.6269 30.8426 21.4143C30.7909 21.1991 31.0304 21.1713 31.1566 21.1843C31.2799 21.125 31.5016 20.9204 31.4017 20.5768C31.2296 20.3121 30.4036 19.8566 29.4616 20.5466C29.2595 20.8808 29.1649 21.2105 29.4359 21.2539C29.7069 21.2973 29.8661 21.2365 30.0295 21.2842C30.193 21.3319 30.3651 21.5966 30.2619 21.7094ZM37.196 18.6582C37.2375 17.8959 37.2973 16.3289 37.2043 16.1588C37.4753 16.2022 38.5939 17.2435 38.422 18.3369C38.3274 18.6667 37.9618 18.9532 37.196 18.6582ZM31.9271 25.6622C31.9415 25.5711 31.9908 25.3662 32.0733 25.276C32.2282 25.1067 32.3917 25.1544 32.4476 25.2065C32.5035 25.2586 32.6112 26.6124 32.779 26.7686C32.9468 26.9248 33.7814 27.5972 33.3685 28.0485C32.9513 28.3914 32.4179 28.5216 32.1296 28.0443C31.899 27.6625 31.8985 26.2971 31.9271 25.6622Z" stroke="#F4C70F" stroke-width="0.490162" stroke-linecap="round" stroke-linejoin="round"/>
<path d="M38.3857 21.5439L38.5406 21.3746L38.4201 21.0536L38.9878 20.433L38.8071 19.9514" stroke="#F4C70F" stroke-width="0.490162" stroke-linecap="round" stroke-linejoin="round"/>
<path d="M41.7514 28.9587L41.9063 28.7895L41.7858 28.4684L42.3536 27.8478L42.1728 27.3662" stroke="#F4C70F" stroke-width="0.490162" stroke-linecap="round" stroke-linejoin="round"/>
<path d="M44.7984 16.46C45.5332 17.144 45.5793 18.2996 44.9009 19.0411C44.2225 19.7826 43.0768 19.8288 42.342 19.1447C41.6072 18.4607 41.5611 17.3051 42.2395 16.5636C42.9179 15.8221 44.0636 15.776 44.7984 16.46Z" stroke="#F4C70F" stroke-width="0.490162"/>
<path d="M40.2878 23.5423C41.3624 24.5426 41.4297 26.2324 40.4378 27.3166C39.4458 28.4009 37.7705 28.4685 36.6959 27.4682C35.6213 26.4679 35.5539 24.778 36.5459 23.6938C37.5379 22.6096 39.2132 22.542 40.2878 23.5423Z" stroke="#F4C70F" stroke-width="0.490162"/>
<path d="M35.6574 18.188C36.6084 19.0733 36.6681 20.5688 35.7901 21.5284C34.9122 22.488 33.4294 22.5479 32.4784 21.6626C31.5274 20.7773 31.4677 19.2817 32.3457 18.3221C33.2236 17.3625 34.7063 17.3027 35.6574 18.188Z" stroke="#F4C70F" stroke-width="0.490162"/>
<path d="M38.4802 29.5913C38.6281 29.729 38.6375 29.9618 38.5007 30.1113C38.3639 30.2608 38.1331 30.27 37.9852 30.1323C37.8373 29.9946 37.8278 29.7618 37.9646 29.6123C38.1014 29.4628 38.3322 29.4536 38.4802 29.5913Z" stroke="#F4C70F" stroke-width="0.490162"/>
<path d="M38.4802 29.5913C38.6281 29.729 38.6375 29.9618 38.5007 30.1113C38.3639 30.2608 38.1331 30.27 37.9852 30.1323C37.8373 29.9946 37.8278 29.7618 37.9646 29.6123C38.1014 29.4628 38.3322 29.4536 38.4802 29.5913Z" stroke="#F4C70F" stroke-width="0.490162"/>
<path d="M38.4802 29.5913C38.6281 29.729 38.6375 29.9618 38.5007 30.1113C38.3639 30.2608 38.1331 30.27 37.9852 30.1323C37.8373 29.9946 37.8278 29.7618 37.9646 29.6123C38.1014 29.4628 38.3322 29.4536 38.4802 29.5913Z" stroke="#F4C70F" stroke-width="0.490162"/>
<path d="M33.2761 23.2827C33.424 23.4204 33.4334 23.6532 33.2966 23.8027C33.1598 23.9522 32.929 23.9614 32.7811 23.8237C32.6332 23.686 32.6237 23.4532 32.7605 23.3037C32.8973 23.1542 33.1281 23.145 33.2761 23.2827Z" stroke="#F4C70F" stroke-width="0.490162"/>
<path d="M33.2761 23.2827C33.424 23.4204 33.4334 23.6532 33.2966 23.8027C33.1598 23.9522 32.929 23.9614 32.7811 23.8237C32.6332 23.686 32.6237 23.4532 32.7605 23.3037C32.8973 23.1542 33.1281 23.145 33.2761 23.2827Z" stroke="#F4C70F" stroke-width="0.490162"/>
<path d="M33.2761 23.2827C33.424 23.4204 33.4334 23.6532 33.2966 23.8027C33.1598 23.9522 32.929 23.9614 32.7811 23.8237C32.6332 23.686 32.6237 23.4532 32.7605 23.3037C32.8973 23.1542 33.1281 23.145 33.2761 23.2827Z" stroke="#F4C70F" stroke-width="0.490162"/>
<path d="M34.031 18.4951C34.1656 18.6204 34.1741 18.8321 34.0498 18.9679C33.9255 19.1038 33.7157 19.1122 33.581 18.9869C33.4464 18.8616 33.438 18.6499 33.5623 18.5141C33.6865 18.3782 33.8964 18.3698 34.031 18.4951Z" stroke="#F4C70F" stroke-width="0.0980324"/>
<path d="M33.2479 20.4828C33.3825 20.6081 33.391 20.8198 33.2667 20.9556C33.1424 21.0915 32.9326 21.0999 32.798 20.9746C32.6634 20.8493 32.6549 20.6376 32.7792 20.5018C32.9035 20.366 33.1133 20.3575 33.2479 20.4828Z" stroke="#F4C70F" stroke-width="0.0980324"/>
<path d="M34.3421 20.8731C34.4767 20.9984 34.4851 21.2101 34.3608 21.3459C34.2366 21.4817 34.0267 21.4902 33.8921 21.3649C33.7575 21.2396 33.749 21.0279 33.8733 20.8921C33.9976 20.7562 34.2074 20.7478 34.3421 20.8731Z" stroke="#F4C70F" stroke-width="0.0980324"/>
<path d="M34.8151 19.224C34.9497 19.3493 34.9581 19.561 34.8339 19.6969C34.7096 19.8327 34.4997 19.8412 34.3651 19.7159C34.2305 19.5905 34.222 19.3789 34.3463 19.243C34.4706 19.1072 34.6805 19.0987 34.8151 19.224Z" stroke="#F4C70F" stroke-width="0.0980324"/>
<path d="M35.9081 19.6143C36.0427 19.7396 36.0512 19.9513 35.9269 20.0871C35.8026 20.223 35.5927 20.2314 35.4581 20.1061C35.3235 19.9808 35.3151 19.7691 35.4393 19.6333C35.5636 19.4974 35.7735 19.489 35.9081 19.6143Z" stroke="#F4C70F" stroke-width="0.0980324"/>
<path d="M42.7854 17.8692C42.8892 17.9658 42.8957 18.1289 42.7999 18.2336C42.7041 18.3382 42.5424 18.3447 42.4387 18.2482C42.335 18.1517 42.3284 17.9885 42.4242 17.8838C42.52 17.7792 42.6817 17.7727 42.7854 17.8692Z" stroke="#F4C70F" stroke-width="0.0980324"/>
<path d="M43.3767 16.5419C43.4805 16.6384 43.487 16.8015 43.3912 16.9062C43.2954 17.0109 43.1337 17.0174 43.03 16.9209C42.9263 16.8243 42.9198 16.6612 43.0155 16.5565C43.1113 16.4518 43.273 16.4453 43.3767 16.5419Z" stroke="#F4C70F" stroke-width="0.0980324"/>
<path d="M44.6855 16.9227C44.7892 17.0193 44.7957 17.1824 44.6999 17.2871C44.6042 17.3918 44.4424 17.3983 44.3387 17.3017C44.235 17.2052 44.2285 17.0421 44.3242 16.9374C44.42 16.8327 44.5817 16.8262 44.6855 16.9227Z" stroke="#F4C70F" stroke-width="0.0980324"/>
<path d="M44.6178 17.9038C44.7216 18.0003 44.7281 18.1634 44.6323 18.2681C44.5365 18.3728 44.3748 18.3793 44.2711 18.2827C44.1674 18.1862 44.1608 18.0231 44.2566 17.9184C44.3524 17.8137 44.5141 17.8072 44.6178 17.9038Z" stroke="#F4C70F" stroke-width="0.0980324"/>
<path d="M43.8954 18.6935C43.9991 18.79 44.0057 18.9532 43.9099 19.0578C43.8141 19.1625 43.6524 19.169 43.5487 19.0725C43.445 18.9759 43.4384 18.8128 43.5342 18.7081C43.63 18.6034 43.7917 18.5969 43.8954 18.6935Z" stroke="#F4C70F" stroke-width="0.0980324"/>
<path d="M38.3393 32.8023C38.8887 33.3138 38.9233 34.178 38.4159 34.7325C37.9085 35.2871 37.0518 35.3216 36.5023 34.8101C35.9528 34.2986 35.9183 33.4344 36.4257 32.8799C36.933 32.3253 37.7898 32.2908 38.3393 32.8023Z" stroke="#F4C70F" stroke-width="0.490162"/>
<path d="M36.7931 33.8123C36.866 33.8801 36.8706 33.9946 36.8033 34.0682C36.736 34.1417 36.6225 34.1463 36.5496 34.0785C36.4768 34.0107 36.4722 33.8961 36.5395 33.8226C36.6067 33.7491 36.7203 33.7445 36.7931 33.8123Z" stroke="#F4C70F" stroke-width="0.0980324"/>
<path d="M37.292 32.8141C37.3649 32.8819 37.3695 32.9965 37.3022 33.07C37.2349 33.1435 37.1214 33.1481 37.0485 33.0803C36.9757 33.0125 36.9711 32.8979 37.0384 32.8244C37.1056 32.7509 37.2192 32.7463 37.292 32.8141Z" stroke="#F4C70F" stroke-width="0.0980324"/>
<path d="M38.2739 33.0996C38.3467 33.1674 38.3513 33.2819 38.284 33.3555C38.2167 33.429 38.1032 33.4335 38.0303 33.3658C37.9575 33.298 37.9529 33.1834 38.0202 33.1099C38.0875 33.0364 38.201 33.0318 38.2739 33.0996Z" stroke="#F4C70F" stroke-width="0.0980324"/>
<path d="M38.1954 33.864C38.2682 33.9318 38.2728 34.0463 38.2055 34.1199C38.1383 34.1934 38.0247 34.198 37.9519 34.1302C37.879 34.0624 37.8744 33.9478 37.9417 33.8743C38.009 33.8008 38.1225 33.7962 38.1954 33.864Z" stroke="#F4C70F" stroke-width="0.0980324"/>
<path d="M37.6804 34.4279C37.7129 34.4581 37.729 34.5057 37.7231 34.5632C37.7173 34.6207 37.6895 34.6849 37.639 34.7401C37.5884 34.7954 37.5272 34.8285 37.4708 34.839C37.4145 34.8494 37.3662 34.8371 37.3337 34.8069C37.3012 34.7766 37.2852 34.729 37.291 34.6715C37.2968 34.614 37.3246 34.5498 37.3752 34.4946C37.4257 34.4393 37.4869 34.4062 37.5433 34.3958C37.5996 34.3853 37.6479 34.3976 37.6804 34.4279Z" stroke="#F4C70F" stroke-width="0.0980324"/>
<path d="M38.0148 23.8748C38.1494 24.0001 38.1578 24.2118 38.0336 24.3477C37.9093 24.4835 37.6994 24.492 37.5648 24.3667C37.4302 24.2414 37.4217 24.0297 37.546 23.8938C37.6703 23.758 37.8802 23.7495 38.0148 23.8748Z" stroke="#F4C70F" stroke-width="0.0980324"/>
<path d="M37.9552 25.0725C38.0898 25.1978 38.0983 25.4095 37.974 25.5454C37.8497 25.6812 37.6398 25.6897 37.5052 25.5644C37.3706 25.4391 37.3622 25.2274 37.4865 25.0915C37.6107 24.9557 37.8206 24.9472 37.9552 25.0725Z" stroke="#F4C70F" stroke-width="0.0980324"/>
<path d="M39.2966 23.606C39.4313 23.7313 39.4397 23.943 39.3154 24.0789C39.1911 24.2147 38.9813 24.2232 38.8467 24.0979C38.7121 23.9726 38.7036 23.7609 38.8279 23.625C38.9522 23.4892 39.162 23.4807 39.2966 23.606Z" stroke="#F4C70F" stroke-width="0.0980324"/>
<path d="M39.892 24.9945C40.0266 25.1198 40.035 25.3315 39.9108 25.4674C39.7865 25.6032 39.5766 25.6117 39.442 25.4864C39.3074 25.3611 39.2989 25.1494 39.4232 25.0135C39.5475 24.8777 39.7574 24.8692 39.892 24.9945Z" stroke="#F4C70F" stroke-width="0.0980324"/>
<path d="M39.8392 26.4088C39.9739 26.5341 39.9823 26.7458 39.858 26.8817C39.7338 27.0175 39.5239 27.026 39.3893 26.9007C39.2547 26.7754 39.2462 26.5637 39.3705 26.4278C39.4948 26.292 39.7046 26.2835 39.8392 26.4088Z" stroke="#F4C70F" stroke-width="0.0980324"/>
<path d="M38.2483 27.0165C38.3829 27.1418 38.3914 27.3535 38.2671 27.4893C38.1428 27.6252 37.9329 27.6336 37.7983 27.5083C37.6637 27.383 37.6553 27.1713 37.7795 27.0355C37.9038 26.8997 38.1137 26.8912 38.2483 27.0165Z" stroke="#F4C70F" stroke-width="0.0980324"/>
<path d="M18.6727 22.6939C19.0051 23.1291 19.4697 24.6749 19.6605 25.3934C19.7498 25.454 19.8618 25.4319 20.1834 25.2905C21.4696 24.7243 21.1055 23.5445 20.9392 23.1862C20.5401 22.3262 18.9569 22.5598 18.6727 22.6939Z" stroke="#F4C70F" stroke-width="0.490162" stroke-linecap="round" stroke-linejoin="round"/>
<path d="M22.0623 32.6051C22.3405 32.9714 22.7305 34.2719 22.8907 34.8763C22.9653 34.9273 23.059 34.9089 23.3276 34.7903C24.4019 34.3155 24.0964 33.323 23.957 33.0215C23.6226 32.2978 22.2997 32.4926 22.0623 32.6051Z" stroke="#F4C70F" stroke-width="0.490162" stroke-linecap="round" stroke-linejoin="round"/>
<path d="M30.1848 32.1006C30.4631 32.4669 30.853 33.7674 31.0132 34.3718C31.0879 34.4228 31.1815 34.4044 31.4501 34.2858C32.5245 33.811 32.219 32.8185 32.0796 32.517C31.7452 31.7933 30.4222 31.9881 30.1848 32.1006Z" stroke="#F4C70F" stroke-width="0.490162" stroke-linecap="round" stroke-linejoin="round"/>
<path d="M32.048 38.5188L32.3467 38.4599L32.5253 38.5812L33.1976 38.4488L34.0011 38.9945L34.5531 39.0422L34.8811 39.134" stroke="#F4C70F" stroke-width="0.490162" stroke-linecap="round" stroke-linejoin="round"/>
<path d="M27.3147 25.6848C27.4932 25.806 27.7266 27.0116 27.7558 27.1623C28.3498 27.8274 29.1131 27.3642 29.2497 26.868C29.2241 25.9345 27.5114 25.0985 27.2272 25.2327C26.943 25.3669 27.1361 25.5635 27.3147 25.6848Z" stroke="#F4C70F" stroke-width="0.490162" stroke-linecap="round" stroke-linejoin="round"/>
<path d="M24.3644 24.8586C24.5801 24.6909 24.8624 24.7605 24.9766 24.8162C25.035 25.1177 24.8254 25.237 24.7799 25.4024C24.7344 25.5678 24.8983 25.6137 25.1733 25.8324C25.2843 26.0051 25.4323 26.369 24.924 26.5473C24.4157 26.7257 23.7014 26.2406 23.3753 25.7573C23.3187 25.0645 23.796 25.1269 23.8707 25.1122C23.9454 25.0975 24.1841 25.1287 24.3644 24.8586Z" stroke="#F4C70F" stroke-width="0.490162" stroke-linecap="round" stroke-linejoin="round"/>
<path d="M27.9538 36.1904C28.1695 36.0228 28.4518 36.0923 28.566 36.1481C28.6243 36.4495 28.4148 36.5688 28.3692 36.7342C28.3237 36.8996 28.4877 36.9456 28.7627 37.1642C28.8736 37.3369 29.0216 37.7009 28.5133 37.8792C28.005 38.0575 27.2908 37.5724 26.9646 37.0892C26.9081 36.3963 27.3854 36.4588 27.4601 36.4441C27.5348 36.4294 27.7735 36.4606 27.9538 36.1904Z" stroke="#F4C70F" stroke-width="0.490162" stroke-linecap="round" stroke-linejoin="round"/>
<path d="M9.62332 34.8393L7.76686 34.4624C7.92282 28.5915 11.3844 16.1355 23.9828 13.2789C24.0842 13.4916 24.3849 14.1225 24.835 15.0664M9.62332 34.8393C10.6777 29.1957 15.1962 17.3402 24.835 15.0664M9.62332 34.8393L11.7219 35.2653M24.835 15.0664C25.0255 15.4659 25.2427 15.9214 25.4828 16.425M11.7219 35.2653L36.9052 40.378C33.7902 33.846 28.1843 22.0905 25.4828 16.425M11.7219 35.2653C11.3752 34.676 10.6942 33.4009 10.7437 33.0157C10.8056 32.5342 11.3885 32.3412 11.5379 32.3118C11.6873 32.2824 13.7824 31.0876 13.5742 27.6088C13.5632 26.7506 13.4938 25.591 14.5997 25.295C15.7055 24.999 16.6037 24.431 16.6819 23.6335C16.7601 22.8359 16.8857 21.4815 17.3339 21.3932C17.782 21.3049 19.8881 20.9684 20.4892 20.0678C21.1651 19.1525 22.1268 17.7117 22.5896 17.6987C23.0378 17.6105 25.4266 17.14 25.4828 16.425M16.1111 34.3051C15.9641 33.8127 15.6792 32.7946 15.7156 32.6623C15.6923 32.5417 15.3974 32.6207 15.2528 32.6752C15.1793 32.429 15.0265 31.9063 15.0031 31.7858C14.9798 31.6652 14.8051 31.564 14.7207 31.5285M13.1741 33.5539C13.0849 33.4933 12.4763 32.7527 12.4471 32.602C12.5316 32.3977 13.3701 32.0292 13.7788 31.8705C13.6623 32.3366 13.3782 33.326 13.1741 33.5539ZM18.108 35.0069C18.1924 35.0424 18.3704 35.0804 18.4068 34.9481C18.4523 34.7827 18.4541 34.3912 18.2154 34.36C18.0128 34.2748 18.1322 34.0635 18.2172 33.9686C18.2427 33.8332 18.2102 33.5319 17.8765 33.41C17.5631 33.3935 16.7105 33.796 16.7052 34.9703C16.8528 35.3323 17.0605 35.6043 17.2554 35.4095C17.4503 35.2146 17.4959 35.0492 17.6307 34.9445C17.7655 34.8397 18.0789 34.8562 18.108 35.0069ZM19.7687 27.5621C19.1838 27.0776 17.9663 26.1025 17.7753 26.0775C17.9703 25.8827 19.4642 25.5884 20.2368 26.3749C20.4445 26.6468 20.4573 27.1136 19.7687 27.5621ZM22.253 35.9896C22.1886 35.924 22.054 35.7628 22.0307 35.6423C21.9869 35.4162 22.1217 35.3115 22.1964 35.2967C22.2711 35.282 23.4172 35.9949 23.6413 35.9508C23.8653 35.9067 24.8965 35.6254 25.0132 36.2281C25.0406 36.7702 24.8293 37.2812 24.2773 37.2334C23.8356 37.1953 22.7437 36.3883 22.253 35.9896Z" stroke="#F4C70F" stroke-width="0.490162" stroke-linecap="round" stroke-linejoin="round"/>
<path d="M22.7814 28.2989L22.7376 28.0728L22.4097 27.981L22.2492 27.1522L21.7573 27.0144" stroke="#F4C70F" stroke-width="0.490162" stroke-linecap="round" stroke-linejoin="round"/>
<path d="M30.6984 29.9457L30.6546 29.7197L30.3267 29.6278L30.1662 28.7991L29.6743 28.6613" stroke="#F4C70F" stroke-width="0.490162" stroke-linecap="round" stroke-linejoin="round"/>
<path d="M22.5074 20.0768C23.4866 19.8839 24.4388 20.5282 24.6309 21.5206C24.823 22.513 24.181 23.4713 23.2018 23.6641C22.2226 23.857 21.2704 23.2127 21.0782 22.2203C20.8861 21.2278 21.5281 20.2696 22.5074 20.0768Z" stroke="#F4C70F" stroke-width="0.490162"/>
<path d="M25.5004 27.9344C26.9334 27.6522 28.3253 28.5951 28.606 30.0452C28.8867 31.4954 27.9486 32.8971 26.5156 33.1794C25.0826 33.4616 23.6907 32.5187 23.41 31.0686C23.1293 29.6184 24.0673 28.2166 25.5004 27.9344Z" stroke="#F4C70F" stroke-width="0.490162"/>
<path d="M18.4835 28.5342C19.7515 28.2845 20.9835 29.1187 21.232 30.4025C21.4805 31.6862 20.6501 32.9267 19.3821 33.1764C18.1141 33.4261 16.8821 32.5918 16.6336 31.3081C16.3851 30.0244 17.2155 28.7839 18.4835 28.5342Z" stroke="#F4C70F" stroke-width="0.490162"/>
<path d="M29.27 32.9806C29.4655 32.9422 29.6582 33.0706 29.6973 33.2725C29.7363 33.4743 29.6057 33.6664 29.4102 33.7049C29.2148 33.7434 29.0221 33.6149 28.983 33.4131C28.944 33.2113 29.0746 33.0191 29.27 32.9806Z" stroke="#F4C70F" stroke-width="0.490162"/>
<path d="M29.27 32.9806C29.4655 32.9422 29.6582 33.0706 29.6973 33.2725C29.7363 33.4743 29.6057 33.6664 29.4102 33.7049C29.2148 33.7434 29.0221 33.6149 28.983 33.4131C28.944 33.2113 29.0746 33.0191 29.27 32.9806Z" stroke="#F4C70F" stroke-width="0.490162"/>
<path d="M29.27 32.9806C29.4655 32.9422 29.6582 33.0706 29.6973 33.2725C29.7363 33.4743 29.6057 33.6664 29.4102 33.7049C29.2148 33.7434 29.0221 33.6149 28.983 33.4131C28.944 33.2113 29.0746 33.0191 29.27 32.9806Z" stroke="#F4C70F" stroke-width="0.490162"/>
<path d="M21.1475 33.485C21.3429 33.4465 21.5356 33.575 21.5747 33.7768C21.6138 33.9786 21.4831 34.1708 21.2877 34.2093C21.0923 34.2477 20.8995 34.1193 20.8605 33.9175C20.8214 33.7156 20.9521 33.5235 21.1475 33.485Z" stroke="#F4C70F" stroke-width="0.490162"/>
<path d="M21.1475 33.485C21.3429 33.4465 21.5356 33.575 21.5747 33.7768C21.6138 33.9786 21.4831 34.1708 21.2877 34.2093C21.0923 34.2477 20.8995 34.1193 20.8605 33.9175C20.8214 33.7156 20.9521 33.5235 21.1475 33.485Z" stroke="#F4C70F" stroke-width="0.490162"/>
<path d="M21.1475 33.485C21.3429 33.4465 21.5356 33.575 21.5747 33.7768C21.6138 33.9786 21.4831 34.1708 21.2877 34.2093C21.0923 34.2477 20.8995 34.1193 20.8605 33.9175C20.8214 33.7156 20.9521 33.5235 21.1475 33.485Z" stroke="#F4C70F" stroke-width="0.490162"/>
<path d="M17.7669 30.0401C17.9462 30.0048 18.1207 30.1228 18.1559 30.3046C18.1911 30.4865 18.0734 30.662 17.8941 30.6973C17.7147 30.7326 17.5403 30.6146 17.5051 30.4328C17.4699 30.2509 17.5875 30.0754 17.7669 30.0401Z" stroke="#F4C70F" stroke-width="0.0980324"/>
<path d="M18.8938 31.8517C19.0732 31.8164 19.2476 31.9343 19.2828 32.1162C19.318 32.298 19.2004 32.4736 19.021 32.5089C18.8417 32.5442 18.6672 32.4262 18.632 32.2444C18.5968 32.0625 18.7145 31.887 18.8938 31.8517Z" stroke="#F4C70F" stroke-width="0.0980324"/>
<path d="M19.8527 31.1941C20.032 31.1588 20.2065 31.2768 20.2417 31.4586C20.2769 31.6404 20.1592 31.816 19.9799 31.8513C19.8005 31.8866 19.6261 31.7686 19.5909 31.5868C19.5557 31.4049 19.6733 31.2294 19.8527 31.1941Z" stroke="#F4C70F" stroke-width="0.0980324"/>
<path d="M18.8132 29.8342C18.9926 29.7988 19.167 29.9168 19.2022 30.0987C19.2374 30.2805 19.1198 30.456 18.9405 30.4914C18.7611 30.5267 18.5867 30.4087 18.5515 30.2268C18.5163 30.045 18.6339 29.8695 18.8132 29.8342Z" stroke="#F4C70F" stroke-width="0.0980324"/>
<path d="M19.7732 29.1756C19.9526 29.1403 20.127 29.2583 20.1622 29.4401C20.1974 29.622 20.0798 29.7975 19.9004 29.8328C19.7211 29.8681 19.5466 29.7501 19.5114 29.5683C19.4762 29.3864 19.5939 29.2109 19.7732 29.1756Z" stroke="#F4C70F" stroke-width="0.0980324"/>
<path d="M22.4435 22.5489C22.5816 22.5217 22.7161 22.6126 22.7432 22.7528C22.7704 22.8931 22.6796 23.0283 22.5415 23.0554C22.4035 23.0826 22.269 22.9918 22.2418 22.8516C22.2147 22.7113 22.3054 22.5761 22.4435 22.5489Z" stroke="#F4C70F" stroke-width="0.0980324"/>
<path d="M21.73 21.2807C21.8681 21.2535 22.0026 21.3443 22.0297 21.4846C22.0569 21.6248 21.9661 21.76 21.828 21.7872C21.69 21.8144 21.5555 21.7235 21.5283 21.5833C21.5012 21.4431 21.5919 21.3079 21.73 21.2807Z" stroke="#F4C70F" stroke-width="0.0980324"/>
<path d="M22.8112 20.443C22.9493 20.4158 23.0837 20.5066 23.1109 20.6469C23.138 20.7871 23.0473 20.9223 22.9092 20.9495C22.7711 20.9767 22.6367 20.8858 22.6095 20.7456C22.5824 20.6054 22.6731 20.4702 22.8112 20.443Z" stroke="#F4C70F" stroke-width="0.0980324"/>
<path d="M23.5535 21.0782C23.6916 21.051 23.8261 21.1419 23.8532 21.2821C23.8803 21.4223 23.7896 21.5575 23.6515 21.5847C23.5134 21.6119 23.379 21.5211 23.3518 21.3809C23.3247 21.2406 23.4154 21.1054 23.5535 21.0782Z" stroke="#F4C70F" stroke-width="0.0980324"/>
<path d="M23.7562 22.1333C23.8943 22.1061 24.0288 22.1969 24.056 22.3372C24.0831 22.4774 23.9924 22.6126 23.8543 22.6398C23.7162 22.667 23.5817 22.5761 23.5546 22.4359C23.5274 22.2957 23.6182 22.1605 23.7562 22.1333Z" stroke="#F4C70F" stroke-width="0.0980324"/>
<path d="M31.752 34.9944C32.4837 34.8503 33.1961 35.3317 33.3399 36.0744C33.4837 36.8172 33.0031 37.5335 32.2714 37.6776C31.5397 37.8217 30.8274 37.3404 30.6836 36.5976C30.5398 35.8548 31.0203 35.1385 31.752 34.9944Z" stroke="#F4C70F" stroke-width="0.490162"/>
<path d="M31.6465 36.8484C31.7433 36.8294 31.8379 36.8931 31.8569 36.9917C31.876 37.0903 31.8122 37.1852 31.7154 37.2043C31.6185 37.2233 31.524 37.1596 31.5049 37.061C31.4859 36.9624 31.5497 36.8675 31.6465 36.8484Z" stroke="#F4C70F" stroke-width="0.0980324"/>
<path d="M31.1457 35.8525C31.2425 35.8334 31.337 35.8971 31.3561 35.9958C31.3752 36.0944 31.3114 36.1893 31.2145 36.2083C31.1177 36.2274 31.0232 36.1637 31.0041 36.0651C30.985 35.9665 31.0488 35.8716 31.1457 35.8525Z" stroke="#F4C70F" stroke-width="0.0980324"/>
<path d="M31.9525 35.2242C32.0494 35.2052 32.1439 35.2689 32.163 35.3675C32.1821 35.4661 32.1183 35.561 32.0214 35.58C31.9246 35.5991 31.8301 35.5354 31.811 35.4368C31.7919 35.3382 31.8557 35.2433 31.9525 35.2242Z" stroke="#F4C70F" stroke-width="0.0980324"/>
<path d="M32.518 35.7382C32.6148 35.7191 32.7093 35.7828 32.7284 35.8815C32.7475 35.9801 32.6837 36.075 32.5868 36.094C32.49 36.1131 32.3955 36.0494 32.3764 35.9508C32.3573 35.8522 32.4211 35.7573 32.518 35.7382Z" stroke="#F4C70F" stroke-width="0.0980324"/>
<path d="M32.6637 36.4928C32.7069 36.4843 32.7543 36.4993 32.7969 36.5381C32.8395 36.5768 32.8744 36.6375 32.8887 36.7114C32.903 36.7853 32.8933 36.8547 32.8683 36.9068C32.8433 36.9589 32.805 36.9908 32.7618 36.9993C32.7186 37.0078 32.6712 36.9928 32.6286 36.954C32.586 36.9152 32.5511 36.8546 32.5368 36.7807C32.5224 36.7068 32.5322 36.6374 32.5572 36.5853C32.5822 36.5332 32.6205 36.5013 32.6637 36.4928Z" stroke="#F4C70F" stroke-width="0.0980324"/>
<path d="M24.4229 29.9808C24.6022 29.9454 24.7767 30.0634 24.8119 30.2453C24.8471 30.4271 24.7294 30.6026 24.5501 30.638C24.3707 30.6733 24.1963 30.5553 24.1611 30.3734C24.1259 30.1916 24.2435 30.0161 24.4229 29.9808Z" stroke="#F4C70F" stroke-width="0.0980324"/>
<path d="M25.3469 30.7372C25.5263 30.7019 25.7007 30.8199 25.7359 31.0018C25.7711 31.1836 25.6535 31.3591 25.4742 31.3944C25.2948 31.4298 25.1204 31.3118 25.0852 31.1299C25.05 30.9481 25.1676 30.7726 25.3469 30.7372Z" stroke="#F4C70F" stroke-width="0.0980324"/>
<path d="M24.9674 28.7786C25.1468 28.7433 25.3212 28.8613 25.3564 29.0431C25.3916 29.225 25.274 29.4005 25.0946 29.4358C24.9153 29.4711 24.7408 29.3531 24.7056 29.1713C24.6704 28.9895 24.7881 28.8139 24.9674 28.7786Z" stroke="#F4C70F" stroke-width="0.0980324"/>
<path d="M26.4281 29.116C26.6075 29.0806 26.7819 29.1986 26.8171 29.3805C26.8523 29.5623 26.7347 29.7378 26.5553 29.7732C26.376 29.8085 26.2015 29.6905 26.1663 29.5086C26.1311 29.3268 26.2488 29.1513 26.4281 29.116Z" stroke="#F4C70F" stroke-width="0.0980324"/>
<path d="M27.5282 29.9947C27.7076 29.9594 27.882 30.0774 27.9172 30.2592C27.9524 30.441 27.8348 30.6166 27.6554 30.6519C27.4761 30.6872 27.3016 30.5692 27.2664 30.3874C27.2312 30.2055 27.3489 30.03 27.5282 29.9947Z" stroke="#F4C70F" stroke-width="0.0980324"/>
<path d="M27.073 31.6487C27.2524 31.6134 27.4268 31.7313 27.462 31.9132C27.4972 32.095 27.3796 32.2706 27.2002 32.3059C27.0209 32.3412 26.8464 32.2232 26.8112 32.0414C26.776 31.8595 26.8937 31.684 27.073 31.6487Z" stroke="#F4C70F" stroke-width="0.0980324"/>
<path d="M12.4627 47.1658C13.0043 47.1082 14.5531 47.5189 15.2598 47.7314C15.3577 47.6865 15.3978 47.5786 15.4468 47.2282C15.6425 45.8266 14.4556 45.5213 14.0658 45.4764C13.1305 45.3687 12.4983 46.8514 12.4627 47.1658Z" stroke="#F4C70F" stroke-width="0.490162" stroke-linecap="round" stroke-linejoin="round"/>
<path d="M22.6106 49.4445C23.0657 49.3973 24.3682 49.7436 24.9625 49.9226C25.0447 49.8852 25.0782 49.7951 25.1188 49.5022C25.2807 48.3304 24.2825 48.0729 23.9549 48.0347C23.1686 47.9429 22.64 49.1815 22.6106 49.4445Z" stroke="#F4C70F" stroke-width="0.490162" stroke-linecap="round" stroke-linejoin="round"/>
<path d="M26.4403 42.2018C26.8954 42.1546 28.1979 42.5009 28.7922 42.68C28.8744 42.6425 28.9079 42.5524 28.9485 42.2595C29.1104 41.0877 28.1122 40.8302 27.7846 40.792C26.9983 40.7002 26.4697 41.9389 26.4403 42.2018Z" stroke="#F4C70F" stroke-width="0.490162" stroke-linecap="round" stroke-linejoin="round"/>
<path d="M32.8335 43.9641L32.9403 43.6766L33.1363 43.5867L33.3767 42.9398L34.2585 42.5353L34.588 42.086L34.8374 41.8524" stroke="#F4C70F" stroke-width="0.490162" stroke-linecap="round" stroke-linejoin="round"/>
<path d="M19.5143 41.3069C19.7103 41.217 20.8505 41.6481 20.993 41.702C21.866 41.5401 21.8747 40.6416 21.5273 40.2643C20.7255 39.7973 19.1223 40.8308 19.0867 41.1453C19.0511 41.4597 19.3184 41.3968 19.5143 41.3069Z" stroke="#F4C70F" stroke-width="0.490162" stroke-linecap="round" stroke-linejoin="round"/>
<path d="M17.2713 43.4093C17.2427 43.1362 17.4493 42.9301 17.5562 42.8612C17.8413 42.969 17.8323 43.2115 17.9482 43.3373C18.064 43.4631 18.1887 43.3462 18.5173 43.2246C18.7213 43.2197 19.1062 43.2832 18.9905 43.8134C18.8748 44.3435 18.091 44.703 17.512 44.7301C16.8973 44.4157 17.2001 44.0383 17.2268 43.9664C17.2535 43.8945 17.4049 43.7058 17.2713 43.4093Z" stroke="#F4C70F" stroke-width="0.490162" stroke-linecap="round" stroke-linejoin="round"/>
<path d="M28.7238 46.2625C28.6952 45.9894 28.9019 45.7833 29.0087 45.7144C29.2939 45.8222 29.2849 46.0647 29.4007 46.1905C29.5165 46.3163 29.6412 46.1995 29.9699 46.0778C30.1739 46.0729 30.5587 46.1364 30.443 46.6666C30.3273 47.1967 29.5435 47.5562 28.9645 47.5833C28.3498 47.2689 28.6526 46.8915 28.6793 46.8196C28.706 46.7477 28.8574 46.559 28.7238 46.2625Z" stroke="#F4C70F" stroke-width="0.490162" stroke-linecap="round" stroke-linejoin="round"/>
<path d="M17.9795 61.3026L16.6886 62.7002C11.8127 59.4904 3.10783 49.9905 7.29599 37.6697C7.52879 37.6941 8.21905 37.7662 9.25199 37.874M17.9795 61.3026C13.7663 57.44 6.1222 47.3467 9.25199 37.874M17.9795 61.3026L19.4388 59.7228M9.25199 37.874C9.68907 37.9197 10.1875 37.9717 10.7386 38.0292M19.4388 59.7228L36.9499 40.7647C29.802 40.0188 16.9382 38.6764 10.7386 38.0292M19.4388 59.7228C18.7594 59.7119 17.3259 59.629 17.0266 59.3847C16.6524 59.0793 16.7948 58.4773 16.8483 58.3335C16.9017 58.1897 16.9904 55.7638 13.9437 54.12C13.2132 53.6799 12.1977 53.132 12.5271 52.0268C12.8565 50.9216 12.8474 49.8524 12.2149 49.3673C11.5823 48.8822 10.5044 48.0648 10.6647 47.6335C10.8249 47.2022 11.6441 45.2164 11.1986 44.2281C10.7797 43.1679 10.0669 41.5867 10.2984 41.1823C10.4587 40.751 11.3129 38.4521 10.7386 38.0292M20.9275 55.4487C20.4346 55.317 19.4256 55.0284 19.3329 54.9278C19.2189 54.8847 19.1311 55.1794 19.1014 55.3322C18.8549 55.2663 18.3335 55.1238 18.2195 55.0807C18.1055 55.0376 17.9285 55.1347 17.8543 55.1886M18.7544 57.5784C18.6564 57.6234 17.7122 57.7583 17.5697 57.7044C17.4414 57.5248 17.5695 56.6113 17.6496 56.177C17.9822 56.5213 18.6688 57.2838 18.7544 57.5784ZM22.5663 54.1007C22.6405 54.0467 22.7658 53.9137 22.6731 53.8131C22.5573 53.6874 22.2277 53.4808 22.0763 53.6695C21.8981 53.7989 21.7823 53.5857 21.7467 53.4629C21.6457 53.37 21.3743 53.2401 21.0964 53.463C20.9183 53.7236 20.8116 54.667 21.8004 55.2868C22.1834 55.3496 22.5219 55.3136 22.4595 55.0441C22.3971 54.7746 22.2813 54.6488 22.2635 54.4781C22.2456 54.3074 22.4237 54.0468 22.5663 54.1007ZM17.1496 48.7735C16.434 49.0222 14.9727 49.5573 14.8516 49.7083C14.7892 49.4388 15.3234 48.0011 16.3923 47.7493C16.7308 47.7133 17.1316 47.9469 17.1496 48.7735ZM25.5676 51.0543C25.4786 51.0753 25.2719 51.1064 25.1579 51.0633C24.9441 50.9825 24.9262 50.8118 24.953 50.7399C24.9797 50.668 26.1821 50.0569 26.2622 49.8412C26.3424 49.6255 26.6451 48.5922 27.2152 48.8078C27.6873 49.0683 28.0081 49.5175 27.6786 49.9668C27.415 50.3262 26.1614 50.8415 25.5676 51.0543Z" stroke="#F4C70F" stroke-width="0.490162" stroke-linecap="round" stroke-linejoin="round"/>
<path d="M19.3473 46.5719L19.1335 46.4911L18.8841 46.7248L18.1002 46.4284L17.7262 46.7789" stroke="#F4C70F" stroke-width="0.490162" stroke-linecap="round" stroke-linejoin="round"/>
<path d="M24.8892 40.6317L24.6754 40.5509L24.426 40.7846L23.6421 40.4882L23.268 40.8387" stroke="#F4C70F" stroke-width="0.490162" stroke-linecap="round" stroke-linejoin="round"/>
<path d="M12.267 42.5C12.6187 41.5536 13.6631 41.0763 14.5978 41.4297C15.5325 41.7831 16.0086 42.8352 15.6569 43.7816C15.3052 44.7281 14.2608 45.2053 13.3261 44.8519C12.3915 44.4986 11.9154 43.4465 12.267 42.5Z" stroke="#F4C70F" stroke-width="0.490162"/>
<path d="M20.4701 44.0431C20.9841 42.6599 22.511 41.9613 23.8786 42.4784C25.2462 42.9954 25.9417 44.5343 25.4278 45.9174C24.9138 47.3005 23.3869 47.9991 22.0193 47.4821C20.6516 46.965 19.9561 45.4262 20.4701 44.0431Z" stroke="#F4C70F" stroke-width="0.490162"/>
<path d="M17.2964 50.3879C17.7514 49.1636 19.1028 48.5455 20.313 49.003C21.5232 49.4606 22.1389 50.8224 21.6839 52.0467C21.229 53.2711 19.8775 53.8892 18.6674 53.4317C17.4572 52.9741 16.8414 51.6123 17.2964 50.3879Z" stroke="#F4C70F" stroke-width="0.490162"/>
<path d="M26.7032 43.45C26.7746 43.2579 26.9856 43.1629 27.1724 43.2336C27.3593 43.3042 27.4564 43.5156 27.385 43.7078C27.3136 43.8999 27.1026 43.9949 26.9158 43.9242C26.7289 43.8536 26.6318 43.6422 26.7032 43.45Z" stroke="#F4C70F" stroke-width="0.490162"/>
<path d="M26.7032 43.45C26.7746 43.2579 26.9856 43.1629 27.1724 43.2336C27.3593 43.3042 27.4564 43.5156 27.385 43.7078C27.3136 43.8999 27.1026 43.9949 26.9158 43.9242C26.7289 43.8536 26.6318 43.6422 26.7032 43.45Z" stroke="#F4C70F" stroke-width="0.490162"/>
<path d="M26.7032 43.45C26.7746 43.2579 26.9856 43.1629 27.1724 43.2336C27.3593 43.3042 27.4564 43.5156 27.385 43.7078C27.3136 43.8999 27.1026 43.9949 26.9158 43.9242C26.7289 43.8536 26.6318 43.6422 26.7032 43.45Z" stroke="#F4C70F" stroke-width="0.490162"/>
<path d="M22.8745 50.6925C22.9459 50.5004 23.1568 50.4054 23.3437 50.476C23.5305 50.5467 23.6276 50.7581 23.5562 50.9503C23.4848 51.1424 23.2739 51.2374 23.087 51.1667C22.9002 51.0961 22.8031 50.8846 22.8745 50.6925Z" stroke="#F4C70F" stroke-width="0.490162"/>
<path d="M22.8745 50.6925C22.9459 50.5004 23.1568 50.4054 23.3437 50.476C23.5305 50.5467 23.6276 50.7581 23.5562 50.9503C23.4848 51.1424 23.2739 51.2374 23.087 51.1667C22.9002 51.0961 22.8031 50.8846 22.8745 50.6925Z" stroke="#F4C70F" stroke-width="0.490162"/>
<path d="M22.8745 50.6925C22.9459 50.5004 23.1568 50.4054 23.3437 50.476C23.5305 50.5467 23.6276 50.7581 23.5562 50.9503C23.4848 51.1424 23.2739 51.2374 23.087 51.1667C22.9002 51.0961 22.8031 50.8846 22.8745 50.6925Z" stroke="#F4C70F" stroke-width="0.490162"/>
<path d="M18.1921 51.7914C18.2565 51.618 18.4479 51.5306 18.6191 51.5953C18.7902 51.6601 18.8775 51.8528 18.813 52.0262C18.7486 52.1996 18.5573 52.287 18.3861 52.2223C18.2149 52.1576 18.1277 51.9648 18.1921 51.7914Z" stroke="#F4C70F" stroke-width="0.0980324"/>
<path d="M20.3117 51.7733C20.3762 51.5999 20.5675 51.5125 20.7387 51.5772C20.9099 51.6419 20.9971 51.8347 20.9327 52.0081C20.8682 52.1815 20.6769 52.2689 20.5057 52.2042C20.3345 52.1394 20.2473 51.9467 20.3117 51.7733Z" stroke="#F4C70F" stroke-width="0.0980324"/>
<path d="M20.2611 50.605C20.3255 50.4316 20.5168 50.3442 20.688 50.4089C20.8592 50.4736 20.9465 50.6663 20.882 50.8397C20.8176 51.0131 20.6262 51.1006 20.4551 51.0358C20.2839 50.9711 20.1966 50.7784 20.2611 50.605Z" stroke="#F4C70F" stroke-width="0.0980324"/>
<path d="M18.5667 50.7856C18.6312 50.6122 18.8225 50.5248 18.9937 50.5895C19.1649 50.6542 19.2521 50.8469 19.1877 51.0203C19.1232 51.1938 18.9319 51.2812 18.7607 51.2164C18.5895 51.1517 18.5023 50.959 18.5667 50.7856Z" stroke="#F4C70F" stroke-width="0.0980324"/>
<path d="M18.5122 49.6177C18.5766 49.4443 18.7679 49.3569 18.9391 49.4216C19.1103 49.4863 19.1976 49.679 19.1331 49.8524C19.0687 50.0258 18.8773 50.1132 18.7062 50.0485C18.535 49.9838 18.4477 49.7911 18.5122 49.6177Z" stroke="#F4C70F" stroke-width="0.0980324"/>
<path d="M14.3162 43.8495C14.3659 43.7158 14.5134 43.6485 14.6452 43.6983C14.777 43.7482 14.8443 43.8966 14.7946 44.0303C14.745 44.164 14.5975 44.2313 14.4657 44.1815C14.3338 44.1316 14.2665 43.9832 14.3162 43.8495Z" stroke="#F4C70F" stroke-width="0.0980324"/>
<path d="M12.8753 43.7958C12.925 43.6621 13.0724 43.5948 13.2043 43.6447C13.3361 43.6945 13.4034 43.843 13.3537 43.9767C13.304 44.1104 13.1566 44.1777 13.0247 44.1278C12.8929 44.078 12.8256 43.9295 12.8753 43.7958Z" stroke="#F4C70F" stroke-width="0.0980324"/>
<path d="M12.7322 42.4302C12.7819 42.2965 12.9294 42.2292 13.0612 42.2791C13.193 42.3289 13.2603 42.4774 13.2107 42.6111C13.161 42.7448 13.0135 42.8121 12.8817 42.7622C12.7498 42.7124 12.6825 42.5639 12.7322 42.4302Z" stroke="#F4C70F" stroke-width="0.0980324"/>
<path d="M13.6574 42.1249C13.7071 41.9912 13.8546 41.9239 13.9864 41.9738C14.1182 42.0236 14.1855 42.1721 14.1358 42.3058C14.0861 42.4395 13.9387 42.5068 13.8068 42.4569C13.675 42.4071 13.6077 42.2586 13.6574 42.1249Z" stroke="#F4C70F" stroke-width="0.0980324"/>
<path d="M14.6551 42.502C14.7048 42.3683 14.8522 42.301 14.9841 42.3508C15.1159 42.4007 15.1832 42.5492 15.1335 42.6829C15.0838 42.8166 14.9364 42.8839 14.8045 42.834C14.6727 42.7842 14.6054 42.6357 14.6551 42.502Z" stroke="#F4C70F" stroke-width="0.0980324"/>
<path d="M29.7061 42.371C29.9693 41.6627 30.7505 41.3062 31.449 41.5703C32.1475 41.8344 32.5039 42.621 32.2407 43.3292C31.9776 44.0375 31.1964 44.394 30.4979 44.1299C29.7993 43.8658 29.4429 43.0792 29.7061 42.371Z" stroke="#F4C70F" stroke-width="0.490162"/>
<path d="M31.2149 43.4334C31.2498 43.3394 31.3534 43.2922 31.4459 43.3272C31.5384 43.3622 31.5857 43.4664 31.5508 43.5604C31.5158 43.6544 31.4122 43.7016 31.3198 43.6666C31.2273 43.6317 31.1799 43.5274 31.2149 43.4334Z" stroke="#F4C70F" stroke-width="0.0980324"/>
<path d="M30.1118 43.3438C30.1468 43.2498 30.2504 43.2026 30.3429 43.2375C30.4353 43.2725 30.4827 43.3767 30.4477 43.4707C30.4128 43.5648 30.3092 43.6119 30.2167 43.577C30.1243 43.542 30.0769 43.4378 30.1118 43.3438Z" stroke="#F4C70F" stroke-width="0.0980324"/>
<path d="M30.0026 42.3195C30.0375 42.2255 30.1411 42.1783 30.2336 42.2133C30.3261 42.2482 30.3734 42.3524 30.3385 42.4465C30.3036 42.5405 30.2 42.5876 30.1075 42.5527C30.015 42.5177 29.9677 42.4135 30.0026 42.3195Z" stroke="#F4C70F" stroke-width="0.0980324"/>
<path d="M30.7349 42.1036C30.7698 42.0096 30.8734 41.9624 30.9659 41.9974C31.0584 42.0323 31.1057 42.1366 31.0708 42.2306C31.0359 42.3246 30.9323 42.3717 30.8398 42.3368C30.7473 42.3018 30.7 42.1976 30.7349 42.1036Z" stroke="#F4C70F" stroke-width="0.0980324"/>
<path d="M31.447 42.3737C31.4626 42.3317 31.5003 42.2988 31.5553 42.2825C31.6103 42.2663 31.6796 42.2681 31.7492 42.2944C31.8189 42.3208 31.8723 42.3654 31.9032 42.4141C31.934 42.4627 31.941 42.5126 31.9254 42.5546C31.9098 42.5965 31.872 42.6295 31.8171 42.6457C31.7621 42.6619 31.6928 42.6602 31.6231 42.6338C31.5534 42.6075 31.5001 42.5629 31.4692 42.5142C31.4384 42.4655 31.4314 42.4156 31.447 42.3737Z" stroke="#F4C70F" stroke-width="0.0980324"/>
<path d="M21.6305 46.0408C21.6949 45.8674 21.8862 45.78 22.0574 45.8447C22.2286 45.9095 22.3158 46.1022 22.2514 46.2756C22.187 46.449 21.9956 46.5364 21.8244 46.4717C21.6533 46.407 21.566 46.2142 21.6305 46.0408Z" stroke="#F4C70F" stroke-width="0.0980324"/>
<path d="M22.7553 45.6456C22.8198 45.4722 23.0111 45.3848 23.1823 45.4495C23.3535 45.5142 23.4407 45.7069 23.3763 45.8803C23.3118 46.0537 23.1205 46.1411 22.9493 46.0764C22.7781 46.0117 22.6909 45.819 22.7553 45.6456Z" stroke="#F4C70F" stroke-width="0.0980324"/>
<path d="M20.9 44.9448C20.9644 44.7713 21.1558 44.6839 21.3269 44.7487C21.4981 44.8134 21.5854 45.0061 21.5209 45.1795C21.4565 45.3529 21.2652 45.4403 21.094 45.3756C20.9228 45.3109 20.8355 45.1182 20.9 44.9448Z" stroke="#F4C70F" stroke-width="0.0980324"/>
<path d="M21.9494 43.8661C22.0139 43.6927 22.2052 43.6053 22.3764 43.67C22.5476 43.7347 22.6348 43.9274 22.5704 44.1008C22.5059 44.2743 22.3146 44.3617 22.1434 44.2969C21.9722 44.2322 21.885 44.0395 21.9494 43.8661Z" stroke="#F4C70F" stroke-width="0.0980324"/>
<path d="M23.267 43.3809C23.3315 43.2074 23.5228 43.12 23.694 43.1848C23.8652 43.2495 23.9524 43.4422 23.888 43.6156C23.8236 43.789 23.6322 43.8764 23.461 43.8117C23.2899 43.747 23.2026 43.5543 23.267 43.3809Z" stroke="#F4C70F" stroke-width="0.0980324"/>
<path d="M24.4277 44.6384C24.4921 44.465 24.6835 44.3776 24.8547 44.4423C25.0258 44.5071 25.1131 44.6998 25.0486 44.8732C24.9842 45.0466 24.7929 45.134 24.6217 45.0693C24.4505 45.0046 24.3633 44.8118 24.4277 44.6384Z" stroke="#F4C70F" stroke-width="0.0980324"/>
<path d="M28.1775 64.5917C28.4413 64.1111 29.663 63.0667 30.2409 62.6046C30.2604 62.498 30.1959 62.403 29.9394 62.1616C28.9132 61.196 27.9846 62.0019 27.7247 62.2982C27.1009 63.0093 27.9425 64.382 28.1775 64.5917Z" stroke="#F4C70F" stroke-width="0.490162" stroke-linecap="round" stroke-linejoin="round"/>
<path d="M35.8476 57.514C36.0702 57.1109 37.0984 56.2332 37.5846 55.8447C37.6014 55.7553 37.5474 55.676 37.3327 55.4745C36.4739 54.6687 35.6923 55.3459 35.4734 55.5948C34.948 56.1919 35.6509 57.339 35.8476 57.514Z" stroke="#F4C70F" stroke-width="0.490162" stroke-linecap="round" stroke-linejoin="round"/>
<path d="M32.1589 50.1971C32.3815 49.794 33.4097 48.9162 33.8959 48.5278C33.9126 48.4384 33.8587 48.359 33.644 48.1576C32.7852 47.3518 32.0036 48.029 31.7847 48.2778C31.2593 48.8749 31.9621 50.0221 32.1589 50.1971Z" stroke="#F4C70F" stroke-width="0.490162" stroke-linecap="round" stroke-linejoin="round"/>
<path d="M37.2586 45.9222L37.0863 45.6691L37.1257 45.4556L36.7381 44.8859L36.9152 43.9253L36.7393 43.3954L36.6925 43.0553" stroke="#F4C70F" stroke-width="0.490162" stroke-linecap="round" stroke-linejoin="round"/>
<path d="M27.464 55.4033C27.5034 55.1898 28.5074 54.4947 28.6329 54.4079C29.002 53.5937 28.2772 53.0712 27.7716 53.142C26.9324 53.5367 26.8525 55.4542 27.0875 55.6639C27.3226 55.8736 27.4247 55.6167 27.464 55.4033Z" stroke="#F4C70F" stroke-width="0.490162" stroke-linecap="round" stroke-linejoin="round"/>
<path d="M27.8852 58.4637C27.647 58.3307 27.5981 58.0417 27.6034 57.9139C27.8544 57.7401 28.0463 57.8866 28.2148 57.863C28.3834 57.8394 28.36 57.6694 28.4497 57.328C28.5627 57.1567 28.835 56.8751 29.1992 57.2747C29.5634 57.6743 29.4059 58.5282 29.0959 59.0221C28.4881 59.3498 28.3552 58.8832 28.3121 58.8199C28.2691 58.7566 28.2026 58.5233 27.8852 58.4637Z" stroke="#F4C70F" stroke-width="0.490162" stroke-linecap="round" stroke-linejoin="round"/>
<path d="M36.7681 50.6382C36.5299 50.5052 36.481 50.2162 36.4863 50.0884C36.7374 49.9146 36.9292 50.0611 37.0978 50.0375C37.2663 50.0139 37.243 49.8439 37.3326 49.5025C37.4456 49.3312 37.7179 49.0496 38.0821 49.4492C38.4463 49.8488 38.2889 50.7027 37.9788 51.1966C37.371 51.5243 37.2381 51.0577 37.1951 50.9944C37.152 50.9311 37.0856 50.6978 36.7681 50.6382Z" stroke="#F4C70F" stroke-width="0.490162" stroke-linecap="round" stroke-linejoin="round"/>
<path d="M42.8225 68.1405L43.2174 70.0086C37.8143 72.1973 25.1069 73.9431 17.5016 63.417C17.6549 63.2385 18.1093 62.7095 18.7892 61.9178M42.8225 68.1405C37.2693 69.4072 24.6881 69.936 18.7892 61.9178M42.8225 68.1405L42.3762 66.0287M18.7892 61.9178C19.0769 61.5827 19.4049 61.2007 19.7677 60.7783M42.3762 66.0287L37.02 40.6869C32.3153 46.1659 23.8484 56.0263 19.7677 60.7783M42.3762 66.0287C41.9778 66.5838 41.0884 67.7209 40.7183 67.8281C40.2557 67.9622 39.8484 67.4993 39.7623 67.3727C39.6762 67.2461 37.7567 65.7817 34.6745 67.3568C33.8982 67.708 32.8708 68.233 32.162 67.3271C31.4533 66.4211 30.5797 65.8155 29.823 66.06C29.0663 66.3045 27.7842 66.7265 27.5258 66.3468C27.2674 65.967 26.1243 64.1514 25.0662 63.9528C23.9649 63.691 22.2719 63.3733 22.0762 62.9501C21.8178 62.5704 20.4405 60.5462 19.7677 60.7783M39.7584 62.3475C39.3688 62.6793 38.5558 63.3476 38.421 63.3665C38.3206 63.436 38.5096 63.6776 38.6166 63.7897C38.4218 63.9556 38.0071 64.3048 37.9067 64.3743C37.8063 64.4438 37.7837 64.6457 37.7849 64.7379M40.2421 65.3646C40.2224 65.4713 39.7905 66.3289 39.6651 66.4158C39.4455 66.4188 38.7771 65.7891 38.4703 65.4739C38.9407 65.3965 39.9537 65.2663 40.2421 65.3646ZM39.6033 60.2203C39.6021 60.1281 39.5659 59.9483 39.431 59.9671C39.2625 59.9907 38.9057 60.1446 38.9721 60.378C38.9751 60.5994 38.7355 60.5728 38.6153 60.5319C38.482 60.5621 38.2208 60.7118 38.2425 61.0693C38.352 61.3659 39.0571 61.9951 40.1275 61.5334C40.3982 61.2529 40.563 60.9525 40.3083 60.8495C40.0537 60.7465 39.8851 60.7701 39.7362 60.687C39.5873 60.6038 39.4778 60.3072 39.6033 60.2203ZM32.1705 61.6416C31.9621 62.3755 31.5588 63.89 31.6119 64.0767C31.3572 63.9737 30.4959 62.7078 30.9044 61.6802C31.0692 61.3798 31.4888 61.1825 32.1705 61.6416ZM38.8501 55.9932C38.8161 56.0788 38.7229 56.2675 38.6225 56.337C38.4343 56.4673 38.2854 56.3841 38.2423 56.3209C38.1993 56.2576 38.3924 54.9135 38.2632 54.7236C38.134 54.5337 37.4683 53.691 37.9703 53.3435C38.4526 53.1027 39.0014 53.0952 39.1773 53.6252C39.3181 54.0491 39.0179 55.3805 38.8501 55.9932Z" stroke="#F4C70F" stroke-width="0.490162" stroke-linecap="round" stroke-linejoin="round"/>
<path d="M31.6439 58.5616L31.4557 58.692L31.5024 59.032L30.8122 59.5099L30.8823 60.02" stroke="#F4C70F" stroke-width="0.490162" stroke-linecap="round" stroke-linejoin="round"/>
<path d="M29.9973 50.5774L29.8091 50.7077L29.8558 51.0478L29.1656 51.5256L29.2357 52.0357" stroke="#F4C70F" stroke-width="0.490162" stroke-linecap="round" stroke-linejoin="round"/>
<path d="M24.2746 62.0811C23.7082 61.2486 23.9186 60.1117 24.7424 59.5414C25.5662 58.9711 26.6936 59.1818 27.2601 60.0143C27.8265 60.8468 27.6161 61.9837 26.7923 62.554C25.9685 63.1243 24.8411 62.9136 24.2746 62.0811Z" stroke="#F4C70F" stroke-width="0.490162"/>
<path d="M30.233 56.1869C29.4049 54.9699 29.7123 53.3074 30.9173 52.4731C32.1224 51.6389 33.7709 51.9474 34.599 53.1644C35.4271 54.3815 35.1197 56.044 33.9147 56.8782C32.7096 57.7125 31.0611 57.404 30.233 56.1869Z" stroke="#F4C70F" stroke-width="0.490162"/>
<path d="M33.5675 62.4442C32.8345 61.367 33.1066 59.8956 34.173 59.1574C35.2394 58.4191 36.6984 58.692 37.4314 59.7692C38.1643 60.8464 37.8922 62.3178 36.8258 63.0561C35.7594 63.7944 34.3004 63.5214 33.5675 62.4442Z" stroke="#F4C70F" stroke-width="0.490162"/>
<path d="M33.3234 50.6941C33.2089 50.5258 33.2519 50.2968 33.4173 50.1823C33.5826 50.0679 33.8099 50.1097 33.9244 50.278C34.039 50.4464 33.996 50.6753 33.8306 50.7898C33.6652 50.9043 33.438 50.8624 33.3234 50.6941Z" stroke="#F4C70F" stroke-width="0.490162"/>
<path d="M33.3234 50.6941C33.2089 50.5258 33.2519 50.2968 33.4173 50.1823C33.5826 50.0679 33.8099 50.1097 33.9244 50.278C34.039 50.4464 33.996 50.6753 33.8306 50.7898C33.6652 50.9043 33.438 50.8624 33.3234 50.6941Z" stroke="#F4C70F" stroke-width="0.490162"/>
<path d="M33.3234 50.6941C33.2089 50.5258 33.2519 50.2968 33.4173 50.1823C33.5826 50.0679 33.8099 50.1097 33.9244 50.278C34.039 50.4464 33.996 50.6753 33.8306 50.7898C33.6652 50.9043 33.438 50.8624 33.3234 50.6941Z" stroke="#F4C70F" stroke-width="0.490162"/>
<path d="M37.014 58.011C36.8995 57.8427 36.9425 57.6138 37.1078 57.4993C37.2732 57.3848 37.5004 57.4267 37.615 57.595C37.7295 57.7633 37.6865 57.9923 37.5211 58.1068C37.3558 58.2212 37.1285 58.1794 37.014 58.011Z" stroke="#F4C70F" stroke-width="0.490162"/>
<path d="M37.014 58.011C36.8995 57.8427 36.9425 57.6138 37.1078 57.4993C37.2732 57.3848 37.5004 57.4267 37.615 57.595C37.7295 57.7633 37.6865 57.9923 37.5211 58.1068C37.3558 58.2212 37.1285 58.1794 37.014 58.011Z" stroke="#F4C70F" stroke-width="0.490162"/>
<path d="M37.014 58.011C36.8995 57.8427 36.9425 57.6138 37.1078 57.4993C37.2732 57.3848 37.5004 57.4267 37.615 57.595C37.7295 57.7633 37.6865 57.9923 37.5211 58.1068C37.3558 58.2212 37.1285 58.1794 37.014 58.011Z" stroke="#F4C70F" stroke-width="0.490162"/>
<path d="M35.2201 62.51C35.1163 62.3574 35.1548 62.1492 35.3057 62.0447C35.4566 61.9402 35.6632 61.9788 35.7669 62.1314C35.8707 62.2839 35.8322 62.4921 35.6813 62.5966C35.5304 62.7011 35.3238 62.6625 35.2201 62.51Z" stroke="#F4C70F" stroke-width="0.0980324"/>
<path d="M36.4205 60.7476C36.3167 60.5951 36.3553 60.3868 36.5062 60.2824C36.6571 60.1779 36.8636 60.2165 36.9674 60.369C37.0712 60.5215 37.0326 60.7298 36.8817 60.8343C36.7308 60.9387 36.5243 60.9001 36.4205 60.7476Z" stroke="#F4C70F" stroke-width="0.0980324"/>
<path d="M35.4427 60.1223C35.3389 59.9698 35.3775 59.7615 35.5284 59.6571C35.6793 59.5526 35.8858 59.5912 35.9896 59.7437C36.0934 59.8962 36.0548 60.1045 35.9039 60.209C35.753 60.3134 35.5465 60.2748 35.4427 60.1223Z" stroke="#F4C70F" stroke-width="0.0980324"/>
<path d="M34.6189 61.6238C34.5151 61.4713 34.5536 61.263 34.7045 61.1585C34.8554 61.0541 35.062 61.0927 35.1658 61.2452C35.2695 61.3977 35.231 61.606 35.0801 61.7104C34.9292 61.8149 34.7226 61.7763 34.6189 61.6238Z" stroke="#F4C70F" stroke-width="0.0980324"/>
<path d="M33.638 60.999C33.5342 60.8465 33.5728 60.6383 33.7237 60.5338C33.8746 60.4293 34.0811 60.4679 34.1849 60.6204C34.2887 60.7729 34.2501 60.9812 34.0992 61.0857C33.9483 61.1901 33.7418 61.1516 33.638 60.999Z" stroke="#F4C70F" stroke-width="0.0980324"/>
<path d="M26.5466 61.159C26.4666 61.0415 26.4963 60.881 26.6126 60.8005C26.7288 60.72 26.888 60.7498 26.968 60.8673C27.048 60.9849 27.0182 61.1454 26.902 61.2258C26.7857 61.3063 26.6266 61.2766 26.5466 61.159Z" stroke="#F4C70F" stroke-width="0.0980324"/>
<path d="M25.675 62.3207C25.595 62.2031 25.6248 62.0426 25.741 61.9621C25.8572 61.8817 26.0164 61.9114 26.0964 62.0289C26.1764 62.1465 26.1466 62.307 26.0304 62.3874C25.9141 62.4679 25.755 62.4382 25.675 62.3207Z" stroke="#F4C70F" stroke-width="0.0980324"/>
<path d="M24.4855 61.6554C24.4056 61.5378 24.4353 61.3773 24.5516 61.2969C24.6678 61.2164 24.8269 61.2461 24.9069 61.3637C24.9869 61.4812 24.9572 61.6417 24.8409 61.7222C24.7247 61.8026 24.5655 61.7729 24.4855 61.6554Z" stroke="#F4C70F" stroke-width="0.0980324"/>
<path d="M24.7668 60.7143C24.6868 60.5968 24.7166 60.4363 24.8328 60.3558C24.949 60.2753 25.1082 60.305 25.1882 60.4226C25.2682 60.5402 25.2384 60.7006 25.1222 60.7811C25.0059 60.8616 24.8468 60.8319 24.7668 60.7143Z" stroke="#F4C70F" stroke-width="0.0980324"/>
<path d="M25.6483 60.1059C25.5683 59.9884 25.598 59.8279 25.7143 59.7474C25.8305 59.6669 25.9897 59.6967 26.0697 59.8142C26.1497 59.9318 26.1199 60.0923 26.0037 60.1727C25.8874 60.2532 25.7283 60.2235 25.6483 60.1059Z" stroke="#F4C70F" stroke-width="0.0980324"/>
<path d="M34.1698 47.5953C33.7461 46.9725 33.9036 46.1223 34.5195 45.696C35.1354 45.2696 35.9785 45.427 36.4023 46.0498C36.826 46.6725 36.6685 47.5227 36.0526 47.9491C35.4367 48.3754 34.5936 48.218 34.1698 47.5953Z" stroke="#F4C70F" stroke-width="0.490162"/>
<path d="M35.898 46.9566C35.8418 46.874 35.8627 46.7613 35.9443 46.7048C36.0259 46.6483 36.1377 46.6691 36.1939 46.7517C36.2501 46.8343 36.2292 46.947 36.1476 47.0035C36.066 47.06 35.9542 47.0392 35.898 46.9566Z" stroke="#F4C70F" stroke-width="0.0980324"/>
<path d="M35.1924 47.8179C35.1362 47.7353 35.1572 47.6226 35.2388 47.5661C35.3204 47.5096 35.4321 47.5304 35.4883 47.613C35.5445 47.6956 35.5236 47.8083 35.442 47.8648C35.3604 47.9213 35.2486 47.9005 35.1924 47.8179Z" stroke="#F4C70F" stroke-width="0.0980324"/>
<path d="M34.2991 47.3193C34.2429 47.2367 34.2639 47.124 34.3455 47.0675C34.427 47.011 34.5388 47.0318 34.595 47.1144C34.6512 47.1971 34.6303 47.3097 34.5487 47.3662C34.4671 47.4227 34.3553 47.4019 34.2991 47.3193Z" stroke="#F4C70F" stroke-width="0.0980324"/>
<path d="M34.5427 46.5911C34.4865 46.5085 34.5074 46.3958 34.589 46.3394C34.6706 46.2829 34.7823 46.3037 34.8386 46.3863C34.8948 46.4689 34.8738 46.5816 34.7922 46.6381C34.7106 46.6946 34.5989 46.6737 34.5427 46.5911Z" stroke="#F4C70F" stroke-width="0.0980324"/>
<path d="M35.1703 46.1578C35.1452 46.1209 35.1401 46.0709 35.1585 46.0162C35.1768 45.9614 35.218 45.9051 35.2794 45.8626C35.3408 45.8201 35.4077 45.8016 35.465 45.804C35.5222 45.8064 35.5666 45.8292 35.5917 45.8661C35.6168 45.903 35.6219 45.953 35.6036 46.0077C35.5853 46.0625 35.5441 46.1188 35.4827 46.1613C35.4213 46.2038 35.3544 46.2224 35.2971 46.2199C35.2399 46.2175 35.1954 46.1947 35.1703 46.1578Z" stroke="#F4C70F" stroke-width="0.0980324"/>
<path d="M32.5211 56.3715C32.4173 56.219 32.4559 56.0107 32.6068 55.9063C32.7577 55.8018 32.9642 55.8404 33.068 55.9929C33.1718 56.1454 33.1332 56.3537 32.9823 56.4582C32.8314 56.5626 32.6249 56.524 32.5211 56.3715Z" stroke="#F4C70F" stroke-width="0.0980324"/>
<path d="M32.8421 55.2173C32.7384 55.0648 32.7769 54.8565 32.9278 54.752C33.0787 54.6476 33.2852 54.6862 33.389 54.8387C33.4928 54.9912 33.4542 55.1995 33.3033 55.3039C33.1524 55.4084 32.9459 55.3698 32.8421 55.2173Z" stroke="#F4C70F" stroke-width="0.0980324"/>
<path d="M31.2124 56.3467C31.1086 56.1942 31.1472 55.9859 31.2981 55.8814C31.449 55.777 31.6555 55.8156 31.7593 55.9681C31.863 56.1206 31.8245 56.3289 31.6736 56.4333C31.5227 56.5378 31.3161 56.4992 31.2124 56.3467Z" stroke="#F4C70F" stroke-width="0.0980324"/>
<path d="M30.9361 54.8598C30.8323 54.7073 30.8709 54.499 31.0218 54.3946C31.1727 54.2901 31.3792 54.3287 31.483 54.4812C31.5868 54.6337 31.5482 54.842 31.3973 54.9465C31.2464 55.0509 31.0399 55.0123 30.9361 54.8598Z" stroke="#F4C70F" stroke-width="0.0980324"/>
<path d="M31.2999 53.4925C31.1961 53.34 31.2347 53.1317 31.3856 53.0273C31.5365 52.9228 31.743 52.9614 31.8468 53.1139C31.9506 53.2664 31.912 53.4747 31.7611 53.5791C31.6102 53.6836 31.4037 53.645 31.2999 53.4925Z" stroke="#F4C70F" stroke-width="0.0980324"/>
<path d="M32.9871 53.2565C32.8834 53.104 32.9219 52.8957 33.0728 52.7912C33.2237 52.6868 33.4303 52.7254 33.534 52.8779C33.6378 53.0304 33.5993 53.2387 33.4484 53.3431C33.2975 53.4476 33.0909 53.409 32.9871 53.2565Z" stroke="#F4C70F" stroke-width="0.0980324"/>
<path d="M51.1896 61.7932C50.9537 61.2981 50.8162 59.6887 50.7769 58.946C50.702 58.8681 50.5878 58.8663 50.2442 58.9376C48.8697 59.2231 48.9839 60.4533 49.0731 60.8386C49.2871 61.7633 50.884 61.8652 51.1896 61.7932Z" stroke="#F4C70F" stroke-width="0.490162" stroke-linecap="round" stroke-linejoin="round"/>
<path d="M49.9019 51.3889C49.7048 50.9724 49.5901 49.6187 49.5573 48.9939C49.4947 48.9284 49.3994 48.9269 49.1122 48.9869C47.9638 49.2272 48.0591 50.262 48.1335 50.5861C48.3123 51.3639 49.6466 51.4494 49.9019 51.3889Z" stroke="#F4C70F" stroke-width="0.490162" stroke-linecap="round" stroke-linejoin="round"/>
<path d="M41.8528 50.1877C41.6557 49.7713 41.541 48.4175 41.5083 47.7927C41.4457 47.7273 41.3503 47.7257 41.0632 47.7857C39.9147 48.026 40.01 49.0608 40.0845 49.3849C40.2632 50.1627 41.5975 50.2483 41.8528 50.1877Z" stroke="#F4C70F" stroke-width="0.490162" stroke-linecap="round" stroke-linejoin="round"/>
<path d="M41.349 43.519L41.0446 43.5143L40.8948 43.3583L40.2099 43.3476L39.5357 42.646L39.0054 42.4841L38.7034 42.3258" stroke="#F4C70F" stroke-width="0.490162" stroke-linecap="round" stroke-linejoin="round"/>
<path d="M43.3463 57.0636C43.1965 56.9077 43.2154 55.6795 43.2178 55.526C42.7731 54.7513 41.9313 55.0451 41.6959 55.5021C41.5294 56.4208 43.0336 57.5961 43.3392 57.5241C43.6447 57.4522 43.4961 57.2195 43.3463 57.0636Z" stroke="#F4C70F" stroke-width="0.490162" stroke-linecap="round" stroke-linejoin="round"/>
<path d="M46.0638 58.4881C45.8184 58.6071 45.5565 58.4801 45.4562 58.4017C45.461 58.0946 45.6904 58.0216 45.7689 57.8693C45.8474 57.717 45.6964 57.6378 45.4722 57.3665C45.3991 57.1744 45.3289 56.7874 45.8628 56.7191C46.3967 56.6507 46.996 57.2743 47.216 57.8152C47.1292 58.5048 46.675 58.3441 46.5989 58.3429C46.5228 58.3417 46.2957 58.2614 46.0638 58.4881Z" stroke="#F4C70F" stroke-width="0.490162" stroke-linecap="round" stroke-linejoin="round"/>
<path d="M44.8784 46.6521C44.633 46.7711 44.3711 46.6442 44.2708 46.5658C44.2755 46.2587 44.505 46.1857 44.5835 46.0334C44.662 45.881 44.511 45.8019 44.2868 45.5306C44.2137 45.3384 44.1435 44.9515 44.6774 44.8831C45.2113 44.8147 45.8105 45.4384 46.0305 45.9793C45.9437 46.6689 45.4895 46.5082 45.4134 46.507C45.3373 46.5058 45.1102 46.4254 44.8784 46.6521Z" stroke="#F4C70F" stroke-width="0.490162" stroke-linecap="round" stroke-linejoin="round"/>
<path d="M62.5321 51.799L64.271 52.5552C62.9141 58.2665 56.9724 69.7304 44.0606 69.8958C44.005 69.6665 43.8402 68.9866 43.5935 67.9691M62.5321 51.799C60.3428 57.1003 53.4901 67.7562 43.5935 67.9691M62.5321 51.799L60.5663 50.9441M43.5935 67.9691C43.4891 67.5385 43.37 67.0476 43.2384 66.5047M60.5663 50.9441L36.9767 40.6861C38.6844 47.7268 41.7576 60.398 43.2384 66.5047M60.5663 50.9441C60.7846 51.5931 61.1894 52.9827 61.0619 53.3492C60.9026 53.8074 60.2926 53.8745 60.1404 53.8722C59.9882 53.8698 57.6934 54.6014 57.1835 58.0483C57.0182 58.8903 56.8482 60.0393 55.7056 60.0981C54.5629 60.1569 53.5677 60.5251 53.3276 61.2891C53.0874 62.0531 52.6867 63.352 52.2302 63.3448C51.7736 63.3376 49.644 63.2273 48.8712 63.9829C48.0223 64.7374 46.7857 65.9463 46.3303 65.8624C45.8737 65.8552 43.4401 65.8169 43.2384 66.5047M56.0751 50.9675C56.1179 51.48 56.1878 52.5355 56.1251 52.6573C56.1232 52.7802 56.4279 52.7645 56.5805 52.7413C56.6019 52.9975 56.6442 53.5408 56.6423 53.6636C56.6404 53.7864 56.7906 53.9218 56.8659 53.9742M58.7944 52.3154C58.8693 52.3934 59.3129 53.2449 59.3105 53.3984C59.1859 53.5807 58.2899 53.7663 57.8575 53.8362C58.0672 53.4045 58.5481 52.4958 58.7944 52.3154ZM54.2654 49.8641C54.1901 49.8118 54.0237 49.7375 53.961 49.8593C53.8825 50.0117 53.8005 50.3943 54.0276 50.4746C54.2083 50.6003 54.0482 50.782 53.9455 50.8572C53.8928 50.9843 53.8628 51.2858 54.1643 51.4748C54.4675 51.5564 55.3843 51.3405 55.6304 50.1927C55.5602 49.8077 55.4128 49.4983 55.1821 49.6482C54.9514 49.7981 54.873 49.9505 54.7196 50.0248C54.5662 50.0992 54.263 50.0176 54.2654 49.8641ZM51.1135 56.8012C51.5863 57.3973 52.5774 58.6055 52.7591 58.6697C52.5285 58.8197 51.0065 58.7957 50.412 57.8651C50.2645 57.5556 50.3478 57.0963 51.1135 56.8012ZM50.4117 48.0376C50.4612 48.1152 50.5599 48.301 50.558 48.4238C50.5544 48.6541 50.401 48.7285 50.3249 48.7273C50.2488 48.7261 49.2738 47.7894 49.0455 47.7858C48.8172 47.7822 47.7507 47.8422 47.7602 47.2282C47.8446 46.6921 48.1561 46.2363 48.6864 46.3982C49.1106 46.5277 50.0134 47.5451 50.4117 48.0376Z" stroke="#F4C70F" stroke-width="0.490162" stroke-linecap="round" stroke-linejoin="round"/>
<path d="M48.317 55.4526L48.3135 55.6829L48.6155 55.8412L48.6024 56.6855L49.0555 56.923" stroke="#F4C70F" stroke-width="0.490162" stroke-linecap="round" stroke-linejoin="round"/>
<path d="M40.9109 52.1883L40.9073 52.4186L41.2094 52.5769L41.1963 53.4212L41.6493 53.6587" stroke="#F4C70F" stroke-width="0.490162" stroke-linecap="round" stroke-linejoin="round"/>
<path d="M46.9005 63.554C45.903 63.5383 45.1035 62.7093 45.1191 61.6981C45.1348 60.6868 45.9596 59.8834 46.957 59.8991C47.9544 59.9148 48.7539 60.7438 48.7383 61.755C48.7227 62.7663 47.8979 63.5696 46.9005 63.554Z" stroke="#F4C70F" stroke-width="0.490162"/>
<path d="M45.5822 55.2414C44.1225 55.2184 42.954 54.0055 42.9769 52.528C42.9997 51.0504 44.2051 49.8749 45.6648 49.8979C47.1245 49.9208 48.293 51.1337 48.2702 52.6112C48.2473 54.0888 47.0419 55.2643 45.5822 55.2414Z" stroke="#F4C70F" stroke-width="0.490162"/>
<path d="M52.5719 56.1192C51.2803 56.0989 50.2459 55.0256 50.2662 53.7176C50.2864 52.4097 51.3534 51.3695 52.645 51.3898C53.9366 51.4101 54.9709 52.4833 54.9507 53.7913C54.9305 55.0993 53.8635 56.1395 52.5719 56.1192Z" stroke="#F4C70F" stroke-width="0.490162"/>
<path d="M42.929 49.5179C42.7301 49.5147 42.5678 49.3489 42.571 49.1431C42.5742 48.9373 42.7415 48.7767 42.9404 48.7798C43.1393 48.783 43.3016 48.9488 43.2984 49.1546C43.2953 49.3604 43.1279 49.521 42.929 49.5179Z" stroke="#F4C70F" stroke-width="0.490162"/>
<path d="M42.929 49.5179C42.7301 49.5147 42.5678 49.3489 42.571 49.1431C42.5742 48.9373 42.7415 48.7767 42.9404 48.7798C43.1393 48.783 43.3016 48.9488 43.2984 49.1546C43.2953 49.3604 43.1279 49.521 42.929 49.5179Z" stroke="#F4C70F" stroke-width="0.490162"/>
<path d="M42.929 49.5179C42.7301 49.5147 42.5678 49.3489 42.571 49.1431C42.5742 48.9373 42.7415 48.7767 42.9404 48.7798C43.1393 48.783 43.3016 48.9488 43.2984 49.1546C43.2953 49.3604 43.1279 49.521 42.929 49.5179Z" stroke="#F4C70F" stroke-width="0.490162"/>
<path d="M50.979 50.7195C50.7802 50.7164 50.6178 50.5506 50.621 50.3448C50.6242 50.139 50.7916 49.9784 50.9905 49.9815C51.1893 49.9846 51.3517 50.1504 51.3485 50.3562C51.3453 50.562 51.1779 50.7227 50.979 50.7195Z" stroke="#F4C70F" stroke-width="0.490162"/>
<path d="M50.979 50.7195C50.7802 50.7164 50.6178 50.5506 50.621 50.3448C50.6242 50.139 50.7916 49.9784 50.9905 49.9815C51.1893 49.9846 51.3517 50.1504 51.3485 50.3562C51.3453 50.562 51.1779 50.7227 50.979 50.7195Z" stroke="#F4C70F" stroke-width="0.490162"/>
<path d="M50.979 50.7195C50.7802 50.7164 50.6178 50.5506 50.621 50.3448C50.6242 50.139 50.7916 49.9784 50.9905 49.9815C51.1893 49.9846 51.3517 50.1504 51.3485 50.3562C51.3453 50.562 51.1779 50.7227 50.979 50.7195Z" stroke="#F4C70F" stroke-width="0.490162"/>
<path d="M53.5795 54.7954C53.3968 54.7925 53.2503 54.6407 53.2532 54.4554C53.256 54.2701 53.4072 54.123 53.5898 54.1258C53.7725 54.1287 53.919 54.2805 53.9161 54.4658C53.9133 54.6511 53.7621 54.7983 53.5795 54.7954Z" stroke="#F4C70F" stroke-width="0.0980324"/>
<path d="M52.8501 52.7876C52.6674 52.7847 52.5209 52.6329 52.5238 52.4476C52.5267 52.2623 52.6778 52.1152 52.8605 52.118C53.0431 52.1209 53.1896 52.2727 53.1868 52.458C53.1839 52.6433 53.0328 52.7905 52.8501 52.7876Z" stroke="#F4C70F" stroke-width="0.0980324"/>
<path d="M51.7778 53.2316C51.5952 53.2287 51.4487 53.0769 51.4515 52.8916C51.4544 52.7063 51.6055 52.5591 51.7882 52.562C51.9709 52.5649 52.1174 52.7167 52.1145 52.902C52.1116 53.0873 51.9605 53.2344 51.7778 53.2316Z" stroke="#F4C70F" stroke-width="0.0980324"/>
<path d="M52.5143 54.7785C52.3316 54.7756 52.1851 54.6238 52.188 54.4385C52.1909 54.2532 52.342 54.1061 52.5246 54.1089C52.7073 54.1118 52.8538 54.2636 52.8509 54.4489C52.8481 54.6342 52.697 54.7814 52.5143 54.7785Z" stroke="#F4C70F" stroke-width="0.0980324"/>
<path d="M51.443 55.2225C51.2603 55.2196 51.1138 55.0678 51.1167 54.8825C51.1196 54.6972 51.2707 54.55 51.4534 54.5529C51.636 54.5558 51.7825 54.7076 51.7797 54.8929C51.7768 55.0782 51.6257 55.2253 51.443 55.2225Z" stroke="#F4C70F" stroke-width="0.0980324"/>
<path d="M47.4691 61.1482C47.3285 61.146 47.2155 61.0291 47.2177 60.8862C47.2199 60.7433 47.3364 60.63 47.4771 60.6322C47.6177 60.6344 47.7307 60.7513 47.7285 60.8942C47.7263 61.0371 47.6097 61.1504 47.4691 61.1482Z" stroke="#F4C70F" stroke-width="0.0980324"/>
<path d="M47.9044 62.5369C47.7638 62.5347 47.6508 62.4178 47.653 62.2749C47.6552 62.132 47.7717 62.0187 47.9124 62.0209C48.053 62.0231 48.166 62.14 48.1638 62.2829C48.1616 62.4258 48.045 62.5392 47.9044 62.5369Z" stroke="#F4C70F" stroke-width="0.0980324"/>
<path d="M46.6781 63.1324C46.5374 63.1302 46.4245 63.0133 46.4267 62.8704C46.4289 62.7275 46.5454 62.6142 46.6861 62.6164C46.8267 62.6186 46.9397 62.7355 46.9375 62.8784C46.9352 63.0213 46.8187 63.1346 46.6781 63.1324Z" stroke="#F4C70F" stroke-width="0.0980324"/>
<path d="M46.0799 62.3546C45.9393 62.3524 45.8263 62.2354 45.8286 62.0925C45.8308 61.9496 45.9473 61.8363 46.0879 61.8385C46.2286 61.8407 46.3415 61.9577 46.3393 62.1006C46.3371 62.2435 46.2206 62.3568 46.0799 62.3546Z" stroke="#F4C70F" stroke-width="0.0980324"/>
<path d="M46.0958 61.2804C45.9552 61.2781 45.8422 61.1612 45.8444 61.0183C45.8466 60.8754 45.9631 60.7621 46.1038 60.7643C46.2444 60.7665 46.3574 60.8835 46.3552 61.0264C46.353 61.1693 46.2365 61.2826 46.0958 61.2804Z" stroke="#F4C70F" stroke-width="0.0980324"/>
<path d="M40.9141 47.0298C40.1689 47.018 39.5706 46.3985 39.5823 45.6416C39.594 44.8847 40.2111 44.2843 40.9564 44.296C41.7016 44.3077 42.3 44.9273 42.2883 45.6842C42.2766 46.4411 41.6594 47.0415 40.9141 47.0298Z" stroke="#F4C70F" stroke-width="0.490162"/>
<path d="M41.3964 45.2368C41.2978 45.2353 41.2184 45.1532 41.22 45.0527C41.2215 44.9522 41.3034 44.8727 41.4021 44.8743C41.5007 44.8758 41.5801 44.9579 41.5785 45.0584C41.577 45.1589 41.4951 45.2384 41.3964 45.2368Z" stroke="#F4C70F" stroke-width="0.0980324"/>
<path d="M41.6856 46.3167C41.587 46.3151 41.5076 46.2331 41.5092 46.1326C41.5107 46.0321 41.5926 45.9526 41.6912 45.9542C41.7899 45.9557 41.8693 46.0377 41.8677 46.1383C41.8662 46.2388 41.7842 46.3182 41.6856 46.3167Z" stroke="#F4C70F" stroke-width="0.0980324"/>
<path d="M40.7655 46.7621C40.6669 46.7606 40.5874 46.6786 40.589 46.578C40.5905 46.4775 40.6725 46.3981 40.7711 46.3996C40.8697 46.4012 40.9491 46.4832 40.9476 46.5837C40.946 46.6842 40.8641 46.7637 40.7655 46.7621Z" stroke="#F4C70F" stroke-width="0.0980324"/>
<path d="M40.3173 46.1416C40.2187 46.14 40.1393 46.058 40.1409 45.9575C40.1424 45.857 40.2243 45.7775 40.323 45.7791C40.4216 45.7806 40.501 45.8626 40.4994 45.9631C40.4979 46.0637 40.416 46.1431 40.3173 46.1416Z" stroke="#F4C70F" stroke-width="0.0980324"/>
<path d="M40.3278 45.3734C40.2838 45.3727 40.2405 45.3482 40.2068 45.3013C40.1731 45.2545 40.1513 45.1879 40.1525 45.1126C40.1537 45.0373 40.1774 44.9714 40.2126 44.9256C40.2477 44.8799 40.2918 44.8567 40.3358 44.8574C40.3797 44.8581 40.4231 44.8826 40.4568 44.9295C40.4905 44.9763 40.5122 45.0429 40.5111 45.1182C40.5099 45.1935 40.4861 45.2594 40.451 45.3052C40.4158 45.3509 40.3718 45.3741 40.3278 45.3734Z" stroke="#F4C70F" stroke-width="0.0980324"/>
<path d="M47.0537 53.4644C46.871 53.4615 46.7246 53.3097 46.7274 53.1244C46.7303 52.9391 46.8814 52.7919 47.0641 52.7948C47.2467 52.7977 47.3932 52.9495 47.3904 53.1348C47.3875 53.3201 47.2364 53.4672 47.0537 53.4644Z" stroke="#F4C70F" stroke-width="0.0980324"/>
<path d="M46.3085 52.531C46.1258 52.5281 45.9793 52.3763 45.9822 52.191C45.985 52.0057 46.1362 51.8586 46.3188 51.8614C46.5015 51.8643 46.648 52.0161 46.6451 52.2014C46.6423 52.3867 46.4911 52.5339 46.3085 52.531Z" stroke="#F4C70F" stroke-width="0.0980324"/>
<path d="M46.2787 54.5269C46.096 54.524 45.9495 54.3722 45.9524 54.1869C45.9553 54.0016 46.1064 53.8544 46.289 53.8573C46.4717 53.8602 46.6182 54.012 46.6153 54.1973C46.6125 54.3826 46.4614 54.5297 46.2787 54.5269Z" stroke="#F4C70F" stroke-width="0.0980324"/>
<path d="M44.9172 53.8914C44.7346 53.8885 44.5881 53.7367 44.5909 53.5514C44.5938 53.3661 44.7449 53.2189 44.9276 53.2218C45.1103 53.2247 45.2568 53.3765 45.2539 53.5618C45.251 53.7471 45.0999 53.8942 44.9172 53.8914Z" stroke="#F4C70F" stroke-width="0.0980324"/>
<path d="M44.0209 52.8022C43.8382 52.7994 43.6917 52.6475 43.6946 52.4623C43.6974 52.277 43.8486 52.1298 44.0312 52.1327C44.2139 52.1356 44.3604 52.2874 44.3575 52.4727C44.3547 52.658 44.2036 52.8051 44.0209 52.8022Z" stroke="#F4C70F" stroke-width="0.0980324"/>
<path d="M44.806 51.2792C44.6234 51.2763 44.4769 51.1245 44.4797 50.9392C44.4826 50.7539 44.6337 50.6067 44.8164 50.6096C44.9991 50.6125 45.1456 50.7643 45.1427 50.9496C45.1398 51.1349 44.9887 51.282 44.806 51.2792Z" stroke="#F4C70F" stroke-width="0.0980324"/>
<path d="M67.4436 42.8995C66.9075 42.803 65.5329 41.9743 64.9126 41.572C64.8062 41.5878 64.7379 41.6801 64.5943 42.003C64.0201 43.2945 65.0762 43.9206 65.4382 44.0729C66.307 44.4385 67.3228 43.1916 67.4436 42.8995Z" stroke="#F4C70F" stroke-width="0.490162" stroke-linecap="round" stroke-linejoin="round"/>
<path d="M58.323 37.8663C57.8729 37.784 56.7172 37.0862 56.1955 36.7476C56.1063 36.7605 56.0493 36.8377 55.9296 37.1077C55.4512 38.1879 56.3391 38.7151 56.6433 38.8437C57.3733 39.1523 58.2224 38.1106 58.323 37.8663Z" stroke="#F4C70F" stroke-width="0.490162" stroke-linecap="round" stroke-linejoin="round"/>
<path d="M52.6508 43.7501C52.2007 43.6678 51.0449 42.97 50.5233 42.6314C50.434 42.6443 50.377 42.7215 50.2574 42.9915C49.7789 44.0717 50.6669 44.5989 50.971 44.7275C51.7011 45.0361 52.5502 43.9944 52.6508 43.7501Z" stroke="#F4C70F" stroke-width="0.490162" stroke-linecap="round" stroke-linejoin="round"/>
<path d="M46.9927 40.264L46.8108 40.5102L46.5978 40.5416L46.1886 41.0957L45.2301 41.237L44.7898 41.5762L44.4859 41.7308" stroke="#F4C70F" stroke-width="0.490162" stroke-linecap="round" stroke-linejoin="round"/>
<path d="M59.0519 46.5499C58.8389 46.5813 57.8623 45.8475 57.7403 45.7558C56.8572 45.6666 56.6012 46.5272 56.831 46.9871C57.4724 47.6605 59.2973 47.1172 59.4181 46.8251C59.5389 46.5329 59.2649 46.5185 59.0519 46.5499Z" stroke="#F4C70F" stroke-width="0.490162" stroke-linecap="round" stroke-linejoin="round"/>
<path d="M61.7884 45.1592C61.7405 45.4296 61.4853 45.5696 61.3636 45.6058C61.1194 45.4224 61.1949 45.1919 61.1183 45.0386C61.0417 44.8853 60.8897 44.9626 60.5405 44.9873C60.3432 44.9348 59.991 44.7659 60.2482 44.2891C60.5054 43.8123 61.3574 43.6867 61.9211 43.823C62.4249 44.2973 62.03 44.575 61.9846 44.6365C61.9391 44.6981 61.7417 44.8369 61.7884 45.1592Z" stroke="#F4C70F" stroke-width="0.490162" stroke-linecap="round" stroke-linejoin="round"/>
<path d="M51.577 39.2093C51.5291 39.4797 51.2739 39.6197 51.1522 39.656C50.908 39.4725 50.9835 39.242 50.9069 39.0887C50.8303 38.9354 50.6783 39.0127 50.3291 39.0375C50.1318 38.9849 49.7796 38.816 50.0368 38.3392C50.294 37.8624 51.146 37.7368 51.7096 37.8731C52.2135 38.3474 51.8186 38.6251 51.7731 38.6866C51.7277 38.7482 51.5303 38.887 51.577 39.2093Z" stroke="#F4C70F" stroke-width="0.490162" stroke-linecap="round" stroke-linejoin="round"/>
<path d="M66.04 27.7733L67.6651 26.7927C71.4645 31.243 77.2088 42.8088 69.7909 53.4701C69.5739 53.3815 68.9307 53.1187 67.9682 52.7255M66.04 27.7733C69.0229 32.6649 73.5847 44.5035 67.9682 52.7255M66.04 27.7733L64.2029 28.8818M67.9682 52.7255C67.5609 52.5592 67.0965 52.3694 66.583 52.1597M64.2029 28.8818L42.158 42.184C48.8188 44.9043 60.806 49.8 66.583 52.1597M64.2029 28.8818C64.8525 29.0827 66.2067 29.5642 66.4269 29.8828C66.7022 30.2811 66.3995 30.8195 66.3085 30.9426C66.2176 31.0657 65.464 33.3712 67.9377 35.8043C68.5181 36.4319 69.3427 37.2429 68.7218 38.2122C68.1008 39.1816 67.8149 40.2112 68.2889 40.8545C68.7628 41.4978 69.5731 42.5852 69.3003 42.9546C69.0275 43.324 67.6934 45.0019 67.8491 46.0761C67.9593 47.2119 68.2084 48.9307 67.8746 49.2542C67.6018 49.6236 66.1478 51.5925 66.583 52.1597M61.5952 32.5702C62.0324 32.8349 62.9221 33.3949 62.9834 33.5176C63.081 33.5909 63.2466 33.3325 63.3172 33.194C63.5358 33.3264 63.9974 33.6094 64.0951 33.6828C64.1927 33.7562 64.3894 33.7125 64.4756 33.6815M64.2695 31.1335C64.376 31.1178 65.3201 31.2529 65.4422 31.3446C65.5159 31.5532 65.1412 32.3948 64.9446 32.7895C64.72 32.3655 64.2705 31.4406 64.2695 31.1335ZM59.6495 33.4057C59.5634 33.4367 59.4064 33.5293 59.4677 33.6519C59.5443 33.8052 59.804 34.0961 60.0014 33.9573C60.2082 33.8829 60.2607 34.1202 60.2611 34.2481C60.3325 34.3656 60.5574 34.5665 60.8858 34.4303C61.1287 34.2299 61.4911 33.3536 60.712 32.481C60.3614 32.3132 60.0263 32.2529 60.012 32.5293C59.9977 32.8058 60.0743 32.959 60.0444 33.128C60.0145 33.297 59.7716 33.4974 59.6495 33.4057ZM63.385 40.0415C64.1408 40.0032 65.6921 39.8988 65.85 39.7877C65.8357 40.0641 64.9264 41.2954 63.8302 41.2376C63.4952 41.1773 63.1744 40.8406 63.385 40.0415ZM55.927 35.4906C56.0183 35.4955 56.2254 35.5234 56.3231 35.5968C56.5062 35.7344 56.4763 35.9034 56.4308 35.9649C56.3854 36.0265 55.0619 36.2765 54.9255 36.4612C54.7891 36.6459 54.2136 37.5536 53.7254 37.1868C53.3436 36.8042 53.1593 36.2828 53.5996 35.9435C53.9519 35.6722 55.298 35.5285 55.927 35.4906Z" stroke="#F4C70F" stroke-width="0.490162" stroke-linecap="round" stroke-linejoin="round"/>
<path d="M60.6673 41.5392L60.8504 41.6767L61.1543 41.5222L61.8257 42.0267L62.2816 41.7949" stroke="#F4C70F" stroke-width="0.490162" stroke-linecap="round" stroke-linejoin="round"/>
<path d="M53.7064 45.6927L53.8895 45.8302L54.1934 45.6757L54.8648 46.1802L55.3207 45.9484" stroke="#F4C70F" stroke-width="0.490162" stroke-linecap="round" stroke-linejoin="round"/>
<path d="M66.3491 47.4378C65.7512 48.2474 64.6166 48.4141 63.8152 47.8119C63.0137 47.2097 62.8473 46.0654 63.4452 45.2558C64.0431 44.4462 65.1777 44.2795 65.9791 44.8817C66.7806 45.4839 66.947 46.6282 66.3491 47.4378Z" stroke="#F4C70F" stroke-width="0.490162"/>
<path d="M58.8922 43.6545C58.0181 44.8381 56.359 45.0821 55.1867 44.2013C54.0145 43.3205 53.7714 41.6472 54.6455 40.4636C55.5196 39.28 57.1787 39.036 58.3509 39.9168C59.5232 40.7976 59.7663 42.4709 58.8922 43.6545Z" stroke="#F4C70F" stroke-width="0.490162"/>
<path d="M63.6876 38.4491C62.9139 39.4967 61.4455 39.7126 60.4081 38.9331C59.3707 38.1536 59.1555 36.6727 59.9292 35.6251C60.7028 34.5775 62.1712 34.3616 63.2086 35.1411C64.246 35.9206 64.4612 37.4015 63.6876 38.4491Z" stroke="#F4C70F" stroke-width="0.490162"/>
<path d="M52.7395 42.4779C52.6187 42.6414 52.39 42.6745 52.229 42.5536C52.0681 42.4326 52.034 42.2021 52.1548 42.0385C52.2757 41.875 52.5043 41.8419 52.6653 41.9628C52.8263 42.0838 52.8603 42.3143 52.7395 42.4779Z" stroke="#F4C70F" stroke-width="0.490162"/>
<path d="M52.7395 42.4779C52.6187 42.6414 52.39 42.6745 52.229 42.5536C52.0681 42.4326 52.034 42.2021 52.1548 42.0385C52.2757 41.875 52.5043 41.8419 52.6653 41.9628C52.8263 42.0838 52.8603 42.3143 52.7395 42.4779Z" stroke="#F4C70F" stroke-width="0.490162"/>
<path d="M52.7395 42.4779C52.6187 42.6414 52.39 42.6745 52.229 42.5536C52.0681 42.4326 52.034 42.2021 52.1548 42.0385C52.2757 41.875 52.5043 41.8419 52.6653 41.9628C52.8263 42.0838 52.8603 42.3143 52.7395 42.4779Z" stroke="#F4C70F" stroke-width="0.490162"/>
<path d="M58.4147 36.5933C58.2939 36.7569 58.0652 36.7899 57.9042 36.669C57.7432 36.548 57.7092 36.3175 57.83 36.154C57.9508 35.9904 58.1795 35.9573 58.3405 36.0782C58.5015 36.1992 58.5355 36.4297 58.4147 36.5933Z" stroke="#F4C70F" stroke-width="0.490162"/>
<path d="M58.4147 36.5933C58.2939 36.7569 58.0652 36.7899 57.9042 36.669C57.7432 36.548 57.7092 36.3175 57.83 36.154C57.9508 35.9904 58.1795 35.9573 58.3405 36.0782C58.5015 36.1992 58.5355 36.4297 58.4147 36.5933Z" stroke="#F4C70F" stroke-width="0.490162"/>
<path d="M58.4147 36.5933C58.2939 36.7569 58.0652 36.7899 57.9042 36.669C57.7432 36.548 57.7092 36.3175 57.83 36.154C57.9508 35.9904 58.1795 35.9573 58.3405 36.0782C58.5015 36.1992 58.5355 36.4297 58.4147 36.5933Z" stroke="#F4C70F" stroke-width="0.490162"/>
<path d="M63.2138 36.8499C63.1043 36.9983 62.8964 37.0288 62.7496 36.9185C62.6028 36.8082 62.5723 36.5986 62.6819 36.4502C62.7914 36.3019 62.9992 36.2714 63.146 36.3817C63.2929 36.492 63.3234 36.7016 63.2138 36.8499Z" stroke="#F4C70F" stroke-width="0.0980324"/>
<path d="M61.1737 36.2729C61.0641 36.4212 60.8563 36.4517 60.7095 36.3414C60.5627 36.2311 60.5322 36.0215 60.6417 35.8732C60.7512 35.7248 60.9591 35.6943 61.1059 35.8046C61.2527 35.9149 61.2832 36.1245 61.1737 36.2729Z" stroke="#F4C70F" stroke-width="0.0980324"/>
<path d="M60.8994 37.4101C60.7898 37.5584 60.582 37.589 60.4352 37.4787C60.2884 37.3684 60.2579 37.1587 60.3674 37.0104C60.4769 36.8621 60.6848 36.8316 60.8316 36.9419C60.9784 37.0522 61.0089 37.2618 60.8994 37.4101Z" stroke="#F4C70F" stroke-width="0.0980324"/>
<path d="M62.5788 37.7115C62.4693 37.8598 62.2614 37.8903 62.1146 37.78C61.9678 37.6697 61.9373 37.4601 62.0468 37.3117C62.1564 37.1634 62.3642 37.1329 62.511 37.2432C62.6578 37.3535 62.6883 37.5631 62.5788 37.7115Z" stroke="#F4C70F" stroke-width="0.0980324"/>
<path d="M62.3045 38.8485C62.195 38.9969 61.9871 39.0274 61.8403 38.9171C61.6935 38.8068 61.663 38.5972 61.7726 38.4488C61.8821 38.3005 62.0899 38.27 62.2367 38.3803C62.3835 38.4906 62.4141 38.7002 62.3045 38.8485Z" stroke="#F4C70F" stroke-width="0.0980324"/>
<path d="M64.751 45.5653C64.6666 45.6796 64.5064 45.7031 64.3933 45.6181C64.2802 45.5332 64.2567 45.3716 64.3411 45.2573C64.4255 45.143 64.5857 45.1195 64.6988 45.2045C64.8119 45.2895 64.8354 45.451 64.751 45.5653Z" stroke="#F4C70F" stroke-width="0.0980324"/>
<path d="M66.1202 46.0212C66.0358 46.1355 65.8757 46.159 65.7626 46.074C65.6495 45.989 65.6259 45.8275 65.7104 45.7132C65.7948 45.5989 65.9549 45.5754 66.068 45.6604C66.1811 45.7454 66.2047 45.9069 66.1202 46.0212Z" stroke="#F4C70F" stroke-width="0.0980324"/>
<path d="M65.8809 47.3736C65.7964 47.4879 65.6363 47.5114 65.5232 47.4264C65.4101 47.3415 65.3865 47.1799 65.471 47.0656C65.5554 46.9513 65.7156 46.9278 65.8287 47.0128C65.9418 47.0978 65.9653 47.2593 65.8809 47.3736Z" stroke="#F4C70F" stroke-width="0.0980324"/>
<path d="M64.908 47.4069C64.8235 47.5213 64.6634 47.5447 64.5503 47.4598C64.4372 47.3748 64.4136 47.2133 64.4981 47.0989C64.5825 46.9846 64.7427 46.9611 64.8558 47.0461C64.9689 47.1311 64.9924 47.2926 64.908 47.4069Z" stroke="#F4C70F" stroke-width="0.0980324"/>
<path d="M64.0543 46.7658C63.9699 46.8801 63.8097 46.9036 63.6966 46.8186C63.5835 46.7336 63.56 46.5721 63.6444 46.4578C63.7289 46.3434 63.889 46.32 64.0021 46.4049C64.1152 46.4899 64.1388 46.6514 64.0543 46.7658Z" stroke="#F4C70F" stroke-width="0.0980324"/>
<path d="M49.5587 42.6724C49.1115 43.278 48.263 43.4025 47.6638 42.9522C47.0646 42.502 46.9399 41.6463 47.3872 41.0407C47.8344 40.4351 48.6829 40.3106 49.2821 40.7609C49.8813 41.2111 50.0059 42.0668 49.5587 42.6724Z" stroke="#F4C70F" stroke-width="0.490162"/>
<path d="M48.4023 41.2283C48.343 41.3086 48.2305 41.325 48.1511 41.2654C48.0717 41.2057 48.0551 41.0923 48.1145 41.012C48.1738 40.9317 48.2863 40.9152 48.3657 40.9749C48.445 41.0345 48.4616 41.1479 48.4023 41.2283Z" stroke="#F4C70F" stroke-width="0.0980324"/>
<path d="M49.4396 41.6238C49.3803 41.7041 49.2678 41.7205 49.1885 41.6609C49.1091 41.6012 49.0925 41.4878 49.1518 41.4075C49.2111 41.3272 49.3236 41.3107 49.403 41.3704C49.4824 41.43 49.499 41.5434 49.4396 41.6238Z" stroke="#F4C70F" stroke-width="0.0980324"/>
<path d="M49.2589 42.6378C49.1995 42.7181 49.0871 42.7346 49.0077 42.6749C48.9283 42.6153 48.9117 42.5019 48.971 42.4215C49.0303 42.3412 49.1428 42.3248 49.2222 42.3844C49.3016 42.4441 49.3182 42.5575 49.2589 42.6378Z" stroke="#F4C70F" stroke-width="0.0980324"/>
<path d="M48.4986 42.6401C48.4393 42.7204 48.3268 42.7368 48.2474 42.6772C48.168 42.6175 48.1515 42.5041 48.2108 42.4238C48.2701 42.3435 48.3826 42.327 48.462 42.3867C48.5414 42.4463 48.5579 42.5597 48.4986 42.6401Z" stroke="#F4C70F" stroke-width="0.0980324"/>
<path d="M47.8874 42.182C47.8609 42.2179 47.8156 42.239 47.7584 42.2391C47.701 42.2393 47.6349 42.2182 47.5752 42.1733C47.5154 42.1284 47.4764 42.0705 47.4602 42.0151C47.444 41.9597 47.451 41.9099 47.4775 41.874C47.504 41.8382 47.5493 41.8171 47.6065 41.8169C47.6638 41.8168 47.73 41.8379 47.7897 41.8828C47.8495 41.9277 47.8885 41.9855 47.9047 42.041C47.9209 42.0964 47.9139 42.1462 47.8874 42.182Z" stroke="#F4C70F" stroke-width="0.0980324"/>
<path d="M58.3267 41.4104C58.2172 41.5587 58.0093 41.5892 57.8625 41.4789C57.7157 41.3686 57.6852 41.159 57.7948 41.0107C57.9043 40.8623 58.1122 40.8318 58.259 40.9421C58.4058 41.0524 58.4363 41.2621 58.3267 41.4104Z" stroke="#F4C70F" stroke-width="0.0980324"/>
<path d="M57.1392 41.4759C57.0297 41.6242 56.8218 41.6548 56.675 41.5445C56.5282 41.4341 56.4977 41.2245 56.6073 41.0762C56.7168 40.9279 56.9247 40.8974 57.0715 41.0077C57.2183 41.118 57.2488 41.3276 57.1392 41.4759Z" stroke="#F4C70F" stroke-width="0.0980324"/>
<path d="M58.7252 42.6684C58.6156 42.8167 58.4078 42.8472 58.261 42.7369C58.1142 42.6266 58.0837 42.417 58.1932 42.2687C58.3027 42.1203 58.5106 42.0898 58.6574 42.2001C58.8042 42.3104 58.8347 42.5201 58.7252 42.6684Z" stroke="#F4C70F" stroke-width="0.0980324"/>
<path d="M57.4213 43.4095C57.3118 43.5578 57.104 43.5883 56.9571 43.478C56.8103 43.3677 56.7798 43.1581 56.8894 43.0097C56.9989 42.8614 57.2068 42.8309 57.3536 42.9412C57.5004 43.0515 57.5309 43.2611 57.4213 43.4095Z" stroke="#F4C70F" stroke-width="0.0980324"/>
<path d="M56.0202 43.5066C55.9107 43.6549 55.7028 43.6854 55.556 43.5751C55.4092 43.4648 55.3787 43.2552 55.4883 43.1069C55.5978 42.9585 55.8056 42.928 55.9524 43.0383C56.0992 43.1486 56.1297 43.3582 56.0202 43.5066Z" stroke="#F4C70F" stroke-width="0.0980324"/>
<path d="M55.2551 41.9731C55.1455 42.1214 54.9377 42.1519 54.7909 42.0416C54.6441 41.9313 54.6136 41.7217 54.7231 41.5733C54.8326 41.425 55.0405 41.3945 55.1873 41.5048C55.3341 41.6151 55.3646 41.8247 55.2551 41.9731Z" stroke="#F4C70F" stroke-width="0.0980324"/>
</svg>
