<svg width="84" height="62" viewBox="0 0 84 62" fill="none" xmlns="http://www.w3.org/2000/svg">
<path d="M20.1377 51.73C17.7686 49.9532 7.99644 41.3656 7.70032 29.8166C6.71322 25.3747 8.88483 15.484 25.468 11.4567C32.575 9.97607 50.6387 7.0148 64.5567 12.3451C68.9986 14.1219 77.2903 16.787 79.6592 22.4134C80.2514 23.894 81.14 26.5592 79.6592 31.5934C79.6592 32.1711 79.5536 33.3298 79.222 34.8507C79.0302 35.7307 78.7628 36.732 78.3964 37.812C76.7993 42.52 73.3227 48.7254 66.0374 52.9145C65.8399 54.0003 64.8528 56.4087 62.4838 57.3564C59.8186 58.5409 44.1239 64.1674 28.7253 58.5409C26.6524 57.6525 23.0989 56.1719 22.5066 55.2835C21.9143 54.3951 21.9143 53.9591 21.3221 52.5484C20.9173 52.2866 20.5218 52.014 20.1377 51.73Z" fill="white"/>
<path d="M79.6592 31.5934C68.7025 46.6959 38.4976 43.7346 32.575 43.1423C17.4133 41.484 10.6616 33.9624 9.18095 30.4089C8.88482 30.4089 8.17412 30.2904 7.70032 29.8166M79.6592 31.5934C81.14 26.5592 80.2514 23.894 79.6592 22.4134C77.2903 16.787 68.9986 14.1219 64.5567 12.3451C50.6387 7.0148 32.575 9.97607 25.468 11.4567C8.88483 15.484 6.71322 25.3747 7.70032 29.8166M79.6592 31.5934C79.6592 32.1711 79.5536 33.3298 79.222 34.8507M66.0374 52.9145C61.0032 55.5797 52.4155 59.4293 39.9782 58.5409C37.4634 58.2615 28.0933 56.9274 21.3221 52.5484M66.0374 52.9145C65.8399 54.0003 64.8528 56.4087 62.4838 57.3564C59.8186 58.5409 44.1239 64.1674 28.7253 58.5409C26.6524 57.6525 23.0989 56.1719 22.5066 55.2835C21.9143 54.3951 21.9143 53.9591 21.3221 52.5484M66.0374 52.9145C73.3227 48.7254 76.7993 42.52 78.3964 37.812M7.70032 29.8166C7.99644 41.3656 17.7686 49.9532 20.1377 51.73C20.5218 52.014 20.9173 52.2866 21.3221 52.5484M43.0354 45.715C51.5291 45.8137 70.8177 43.853 79.222 34.8507M79.222 34.8507C79.0302 35.7307 78.7628 36.732 78.3964 37.812M45.1083 47.4918C52.8076 47.4918 69.0946 46.3405 78.3964 37.812M59.5225 47.8803C62.1877 47.4855 68.1102 46.222 70.4792 44.3268M63.9644 49.6571C64.9515 49.5584 67.3403 49.0648 68.9986 47.8803M14.5112 42.55C17.275 46.5971 25.2902 54.8097 35.2401 55.2835" stroke="#F4C70F" stroke-width="0.486618" stroke-linecap="round" stroke-linejoin="round"/>
<path d="M47.7658 30.721C49.2464 30.9184 52.3935 30.0245 53.1042 27.6554M48.0706 32.0932C49.8077 32.3893 53.0567 31.2682 54.2887 27.9516M54.2887 27.9516C53.7389 26.4134 51.8903 26.2155 50.7271 25.9829C46.8774 25.3906 44.8126 27.3593 44.212 28.648C43.0275 31.3132 43.6286 34.1661 44.2208 34.4622C44.9315 34.6991 46.7874 35.8441 47.4783 36.5351C47.1819 35.0544 47.1822 33.8699 48.6628 33.2777C50.7357 32.9816 54.5854 30.9087 54.8815 30.0203C55.0085 29.449 54.4387 28.3712 54.2887 27.9516Z" stroke="#F4C70F" stroke-width="0.486618" stroke-linecap="round"/>
<path d="M45.6926 30.1289C45.3964 30.1289 44.5081 30.7212 44.5081 31.6095C44.5081 33.031 45.6926 33.5837 46.2848 33.6824C46.5351 33.6824 46.7326 33.5237 46.8771 33.2734M45.6926 30.1289C46.0894 30.1289 46.8771 30.1289 47.1732 31.9057C47.1732 32.2122 47.1379 32.5188 47.0674 32.7889M45.6926 30.1289C45.6926 30.5237 45.4557 31.4319 45.6926 31.9057M45.1084 31.5053C45.1084 32.3937 46.1664 33.42 46.8771 33.2734M46.8771 33.2734C46.9565 33.1359 47.0199 32.9706 47.0674 32.7889M47.0674 32.7889C46.8065 32.728 46.2848 32.407 46.2848 31.6095" stroke="#F4C70F" stroke-width="0.389295" stroke-linecap="round"/>
<path d="M47.601 37.1517C48.0748 37.8624 47.9958 39.0272 47.8971 39.5207C47.601 40.6065 46.9495 42.8966 46.7126 43.3704C46.1836 43.4326 45.625 43.4785 45.0484 43.5106M47.601 37.1517C47.0087 36.2633 45.232 34.4866 42.2707 34.1904C41.3823 34.1904 37.2365 33.8943 35.7559 35.3749M47.601 37.1517C45.7058 36.9148 43.4552 37.4478 42.5668 37.7439M35.7559 35.3749C35.519 35.8487 35.4598 36.5594 35.4598 36.8556C35.2623 38.1388 34.7491 40.8829 34.2752 41.5936C33.9791 42.1858 34.2752 42.7781 34.5714 43.0742C34.8296 43.1065 35.1279 43.1409 35.4598 43.176M35.7559 35.3749C37.0391 35.2762 40.1977 35.6118 42.5668 37.7439M42.5668 37.7439C42.8037 37.9808 42.6655 39.422 42.5668 40.113L41.5307 43.5593M41.5307 43.5593C39.6399 43.5209 37.7938 43.3961 36.3481 43.2634M41.5307 43.5593C41.8988 43.5668 42.2686 43.571 42.6374 43.5714M36.3481 43.2634C36.2494 42.312 36.2296 40.2906 36.9403 39.8168M36.3481 43.2634C36.0315 43.2344 35.7342 43.2049 35.4598 43.176M35.4598 43.176C35.2623 42.8459 34.9859 42.0082 35.4597 41.2975C35.7558 40.7052 36.3481 38.6323 36.3481 38.3362M42.6374 43.5714C42.7126 42.5173 43.0406 40.2314 43.7513 39.5207M42.6374 43.5714C43.4551 43.5721 44.2683 43.554 45.0484 43.5106M45.0484 43.5106C45.6031 42.6742 46.7125 40.7052 46.7125 39.5207" stroke="#F4C70F" stroke-width="0.486618" stroke-linecap="round"/>
<path d="M48.0581 36.5004C48.5546 38.9234 59.2439 41.0704 61.8455 41.8981C61.2292 42.1402 51.9009 43.3856 50.7211 43.2799C49.8363 43.2006 48.2209 38.0016 48.0581 36.5004Z" fill="white" stroke="#F4C70F" stroke-width="0.486618" stroke-linecap="round"/>
<path d="M47.9438 36.4475C49.0636 39.8777 54.6173 41.6042 57.2542 42.0387C66.719 42.5894 67.7315 37.9232 68.7749 36.2328C71.5794 28.1593 68.2779 25.1876 67.5252 23.6336C65.9141 21.7054 64.0123 23.0215 63.3695 23.5586C63.0217 24.122 61.362 26.0545 58.8175 27.9077C55.6038 30.5929 49.7357 33.0403 48.8244 33.256C47.9131 33.4716 47.781 34.9464 47.9438 36.4475Z" fill="white"/>
<path d="M55.1503 32.3362C56.9816 31.8066 60.3885 30.2909 62.6567 26.2128M57.2984 34.9072C58.4606 35.2095 61.2393 34.7251 63.0567 30.3688M57.2542 42.0387C54.6173 41.6042 49.0636 39.8777 47.9438 36.4475C47.781 34.9464 47.9131 33.4716 48.8244 33.256C49.7357 33.0403 55.6038 30.5929 58.8175 27.9077C61.362 26.0545 63.0217 24.122 63.3695 23.5586C64.0123 23.0215 65.9141 21.7054 67.5252 23.6336C68.2779 25.1876 71.5794 28.1593 68.7749 36.2328C67.7315 37.9232 66.719 42.5894 57.2542 42.0387ZM52.0729 36.8175C51.8396 36.1029 51.6839 34.5231 52.9271 33.9209C53.6358 33.5776 54.4282 33.758 55.0181 33.8109C56.2786 34.1221 59.2706 34.1325 61.1549 31.685C62.1983 29.9946 62.2032 27.9561 63.7572 27.2033C64.6685 26.9877 65.4384 27.0144 65.9755 27.6572C66.4 28.1653 70.0032 32.4777 63.4965 38.733C61.7327 40.4287 53.9832 42.043 52.0729 36.8175Z" stroke="#F4C70F" stroke-width="0.486618" stroke-linecap="round"/>
<path d="M55.9427 38.0983C55.9691 37.8034 56.4417 36.9538 56.6647 36.6764C57.2018 37.3192 57.1489 37.9091 57.0961 38.499C57.0696 38.7939 55.8898 38.6882 55.9427 38.0983Z" fill="#F4C70F"/>
<path d="M59.4886 38.1667C59.3983 37.8847 59.5032 36.9182 59.6009 36.5759C60.3456 36.9592 60.5263 37.5233 60.707 38.0873C60.7974 38.3693 59.6693 38.7307 59.4886 38.1667Z" fill="#F4C70F"/>
<path d="M61.9249 36.6506C61.7255 36.4317 61.4188 35.5092 61.3652 35.1574C62.2019 35.1961 62.6008 35.6338 62.9998 36.0715C63.1993 36.2903 62.3239 37.0883 61.9249 36.6506Z" fill="#F4C70F"/>
<path d="M64.3171 34.0191C64.0303 33.9453 63.2684 33.3415 63.0308 33.0765C63.752 32.6506 64.3255 32.7982 64.8991 32.9458C65.1859 33.0196 64.8906 34.1668 64.3171 34.0191Z" fill="#F4C70F"/>
<path d="M32.0796 37.2222C30.6009 37.4179 29.0432 37.9554 28.23 39.1753C28.5261 39.4714 29.7106 41.2733 29.1184 42.4579C28.8222 42.754 29.7106 42.754 35.0409 43.3462C34.5474 43.1488 33.6786 42.5511 34.1524 41.8404C34.3652 41.5212 34.5105 40.998 34.7448 40.385M32.0796 37.2222C32.9398 37.7745 34.5924 39.2005 34.7448 40.385M32.0796 37.2222C32.7071 37.1391 33.3203 37.1176 33.8564 37.1315M34.7448 40.385C34.8715 40.0535 34.9325 39.5184 35.0408 39.1753M33.8564 37.1315C34.8171 37.1565 35.234 37.1191 35.337 37.2222C35.337 37.6188 35.2896 38.3865 35.0408 39.1753M33.8564 37.1315C34.2634 37.5243 34.9369 38.3553 35.0408 39.1753" stroke="#F4C70F" stroke-width="0.486618" stroke-linecap="round"/>
<path d="M24.7238 41.3584C26.1009 41.7013 27.9774 42.2791 28.8696 42.4575C29.1657 42.4575 29.1065 41.806 28.8696 40.3846C28.2773 39.2001 24.7238 34.462 24.7238 31.2046C24.7238 30.3163 24.4277 22.9131 21.1703 22.9131C20.2819 22.9131 17.0245 24.3937 15.84 29.724C15.84 30.9085 15.2477 35.9427 18.209 39.2001C19.024 39.6529 20.3266 40.1201 21.7628 40.5521M24.7238 41.3584C27.5664 40.2423 26.6981 38.4674 25.9085 37.7194C24.9214 36.9298 22.888 35.1728 22.6511 34.462C22.355 33.5737 22.6511 30.6124 22.9473 29.1318C22.9473 27.6511 22.0589 26.7627 21.1705 26.4666C19.2753 26.4666 18.2092 28.6382 17.9131 29.724C17.5183 32.5009 17.7354 38.5541 21.7628 40.5521M24.7238 41.3584C23.7478 41.1154 22.7253 40.8417 21.7628 40.5521" stroke="#F4C70F" stroke-width="0.486618" stroke-linecap="round"/>
<path d="M14.9026 28.8358C14.2117 30.9086 13.3038 33.5738 15.1989 35.9428M21.1213 22.9132C19.5419 23.308 15.2581 26.3483 15.495 32.9815C15.495 34.166 16.0871 37.1273 18.16 39.2002C16.3835 38.0157 12.5338 35.9428 12.2377 33.2777C12.2377 31.2048 12.8297 23.5055 21.1213 22.9132Z" stroke="#F4C70F" stroke-width="0.486618" stroke-linecap="round"/>
<path d="M22.3062 38.6077C22.3062 38.1339 23.0958 37.818 23.4907 37.7193C23.4907 38.1931 23.4418 38.7802 23.1945 38.9038C22.9971 39.0025 22.3062 39.1999 22.3062 38.6077Z" fill="#F4C70F"/>
<path d="M20.1079 36.1576C20.3059 35.7272 21.1553 35.7702 21.5553 35.8455C21.3573 36.276 21.0675 36.7889 20.7912 36.7979C20.5706 36.8051 19.8604 36.6957 20.1079 36.1576Z" fill="#F4C70F"/>
<path d="M19.5992 32.9098C19.9709 32.6161 20.7083 33.0399 21.0305 33.2886C20.6587 33.5823 20.1677 33.9078 19.9175 33.7904C19.7176 33.6967 19.1344 33.2769 19.5992 32.9098Z" fill="#F4C70F"/>
<path d="M19.7201 29.7855C20.1538 29.5948 20.7608 30.1905 21.0101 30.5122C20.5764 30.7029 20.0193 30.8945 19.8066 30.7179C19.6368 30.577 19.1779 30.0239 19.7201 29.7855Z" fill="#F4C70F"/>
<path d="M27.7715 38.0568C28.0082 38.2876 28.2595 38.4625 28.5258 38.569C29.1181 37.9767 31.7832 36.2 35.3367 37.0884C35.3367 36.4961 35.3367 34.7193 36.8174 34.4232C37 34.4232 37.4525 34.3939 38.0019 34.3522M27.7715 38.0568C27.2674 37.5654 26.8292 36.8202 26.4529 35.9406M27.7715 38.0568C28.2968 37.7596 29.1926 37.0171 29.6751 35.9406M38.0019 34.3522C38.3705 34.3242 38.7828 34.2906 39.1864 34.2566M38.0019 34.3522C38.3033 33.1282 38.2332 32.066 37.9496 31.1659M33.8561 26.4278C36.0277 27.0077 40.134 29.3853 39.1864 34.2566M39.1864 34.2566C39.7417 34.2098 40.2806 34.1622 40.667 34.1271C40.3709 31.7581 38.6534 26.7239 34.1522 25.5394C33.56 25.5394 28.5258 24.0588 24.6761 28.2045C24.7368 28.831 24.8346 29.5957 24.9723 30.4238M24.9723 30.4238C25.4658 29.1905 27.4005 26.6055 31.1909 26.1317M24.9723 30.4238C25.0903 31.1337 25.2375 31.8903 25.4156 32.6465M25.4156 32.6465C26.0575 30.771 28.4666 27.0793 32.9677 27.3162M25.4156 32.6465C25.6061 33.4559 25.8321 34.2648 26.0953 35.0155M26.0953 35.0155C26.503 34.6207 27.8538 33.8902 29.9951 34.1271M26.0953 35.0155C26.2076 35.336 26.3268 35.6459 26.4529 35.9406M29.9951 34.1271C30.0021 34.2469 30.0064 34.347 30.0064 34.4232C30.0064 34.6275 29.9891 34.8251 29.9573 35.0155M29.9951 34.1271C29.9201 32.8499 29.5412 29.3383 30.8948 28.7968C31.4871 28.5007 32.6716 27.9085 32.9677 29.093C33.2638 29.6852 33.8561 30.5736 34.4483 29.6852C34.6852 29.2114 34.7445 28.1059 34.7445 27.6123C35.2398 27.8276 35.8742 28.2225 36.4638 28.7968M26.4529 35.9406C26.815 35.4348 28.0228 34.5417 29.9573 35.0155M26.4529 35.9406H29.6751M29.9573 35.0155C29.9021 35.346 29.8031 35.6551 29.6751 35.9406M32.0793 26.1317C32.178 26.1317 32.4939 26.1317 32.9677 26.1317M37.4112 29.9813L36.2251 31.0661M37.4112 29.9813C37.1348 29.5258 36.8069 29.131 36.4638 28.7968M37.4112 29.9813C37.6282 30.3388 37.8135 30.7337 37.9496 31.1659M30.8948 35.9406L33.2638 33.7742M32.9677 30.4238C33.2638 31.0281 33.7376 32.5442 33.2638 33.7742M33.2638 33.7742C33.6587 33.5815 34.8037 33.3118 36.2251 33.7742M33.2638 33.7742L36.2251 31.0661M36.2251 31.0661L36.4638 28.7968M36.2251 31.0661L37.9496 31.1659" stroke="#F4C70F" stroke-width="0.486618" stroke-linecap="round"/>
<path d="M38.9146 28.9165C39.9016 28.1548 42.1127 26.5986 43.0603 26.467M38.9146 28.9165C38.5362 28.3741 38.0885 27.8431 37.5625 27.3554M38.9146 28.9165C39.4311 29.6571 39.8184 30.419 40.0991 31.1215M37.5625 27.3554C37.0911 26.9182 36.5569 26.5158 35.9533 26.1709C35.8546 25.2825 36.0125 23.5057 37.4339 23.5057C38.3223 23.5057 38.9146 24.098 38.9146 25.2825C38.9146 25.8748 39.2107 26.467 40.3952 26.1709C40.869 25.934 41.7534 25.0851 42.1482 24.6902L44.8371 26.7631C43.85 27.3554 41.8758 28.6584 41.8758 29.1322C41.8758 29.7244 42.7405 30.0205 43.6289 30.0205C43.3327 30.6128 43.3327 32.0934 43.3327 32.9818C42.8589 33.2187 41.1849 33.2779 40.6913 33.2779C40.6246 32.7446 40.4409 31.9772 40.0991 31.1215M37.5625 27.3554C37.6054 27.1703 37.6655 26.6482 37.5625 26.0412M40.0991 31.1215C40.3952 31.1494 41.0467 31.2643 41.2836 31.5012" stroke="#F4C70F" stroke-width="0.486618" stroke-linecap="round"/>
<path d="M47.4784 23.7606C47.7386 23.5799 47.9821 23.4187 48.1869 23.2883C47.5946 22.4987 46.2917 20.8601 45.8179 20.6232C44.3372 20.3271 41.9683 20.9193 40.7838 21.5116C39.5993 22.1038 40.1916 22.6961 40.4877 23.2883C40.9615 23.999 44.1223 26.0721 45.4055 26.7631C45.4055 26.1865 46.3591 24.5375 47.4784 23.7606ZM47.4784 23.7606C46.9848 23.2808 45.8793 22.262 45.4055 22.0251" stroke="#F4C70F" stroke-width="0.486618" stroke-linecap="round"/>
<path d="M41.8518 19.1728C41.378 20.1204 42.3454 20.347 42.7403 20.5444C43.3325 20.5444 43.0364 19.469 43.3325 17.9883C43.9248 15.9155 48.6628 16.8038 49.5512 16.8038C54.763 15.6193 58.435 11.3748 59.6195 9.40066C58.2376 9.00582 54.763 8.0977 51.9202 7.62389C48.1298 7.15009 45.4054 10.1903 44.517 11.7697C44.8132 8.80843 43.9248 7.32774 42.444 5.25485C39.4826 0.812941 34.7448 0.812941 34.1526 1.10907C34.4487 2.5897 34.1526 4.07034 34.1526 6.43936C34.1526 11.7696 38.8906 14.4348 40.0751 14.7309C41.2596 15.027 42.148 15.6193 42.444 16.2116C42.74 17.0999 42.444 17.9883 41.8518 19.1728Z" fill="white"/>
<path d="M44.517 11.7697C44.8132 8.80843 43.9248 7.32774 42.444 5.25485C39.4826 0.812941 34.7448 0.812941 34.1526 1.10907C34.4487 2.5897 34.1526 4.07034 34.1526 6.43936C34.1526 11.7696 38.8906 14.4348 40.0751 14.7309C41.2596 15.027 42.148 15.6193 42.444 16.2116C42.74 17.0999 42.444 17.9883 41.8518 19.1728C41.378 20.1204 42.3454 20.347 42.7403 20.5444C43.3325 20.5444 43.0364 19.469 43.3325 17.9883C43.9248 15.9155 48.6628 16.8038 49.5512 16.8038C54.763 15.6193 58.435 11.3748 59.6195 9.40066C58.2376 9.00582 54.763 8.0977 51.9202 7.62389C48.1298 7.15009 45.4054 10.1903 44.517 11.7697ZM44.517 11.7697C43.9248 12.9542 43.0364 15.0271 43.3325 16.5077M35.9294 2.58973C36.9523 3.47971 38.6008 5.28493 39.9556 7.62389M42.148 13.8426C42.1006 13.443 42.0346 13.0478 41.9523 12.6581M39.9556 7.62389C39.798 6.71963 39.6013 4.74296 40.0751 4.07037M39.9556 7.62389C39.1492 6.67629 36.9354 6.24197 35.9294 6.14326M39.9556 7.62389C40.4347 8.45114 40.8772 9.34515 41.2422 10.289M41.2422 10.289C41.248 9.40067 41.4373 7.50547 42.148 7.03164M41.2422 10.289C40.0437 9.10453 37.5958 9.00582 36.5216 9.10453M41.2422 10.289C41.5362 11.0493 41.78 11.8419 41.9523 12.6581M41.9523 12.6581C42.215 11.7697 42.8587 9.93369 43.3325 9.69679M41.9523 12.6581C40.5943 11.7105 38.7531 11.4735 38.0022 11.4735M44.8132 15.3232C44.9699 15.1062 45.1679 14.8636 45.4054 14.6052M56.066 10.289C54.1905 10.214 52.503 10.5132 51.0318 11.0135M53.4009 8.51228C52.5125 8.99524 50.7949 10.1716 51.0318 11.0135M51.0318 11.0135C50.0429 11.3498 49.1516 11.777 48.3667 12.2426M51.0318 11.0135C52.0189 11.0873 54.2892 11.4364 55.4737 12.2426M48.9589 8.8084C48.4654 9.40066 47.4191 10.8221 47.1822 11.7697M46.5899 11.0135C46.1951 11.5617 45.4054 12.895 45.4054 13.8426M45.4054 14.6052C46.5899 14.3659 49.1959 14.0309 50.1435 14.6052M45.4054 14.6052C46.0829 13.8686 47.0825 13.0043 48.3667 12.2426M48.3667 12.2426C49.4525 12.2824 51.8018 12.5396 52.5125 13.2503" stroke="#F4C70F" stroke-width="0.486618" stroke-linecap="round"/>
<path d="M50.7353 16.6946C50.4392 16.9908 48.9586 16.9908 48.0702 16.9908C47.1226 17.2277 45.8986 19.5572 45.7012 20.5443C46.4119 21.0181 47.7741 22.6172 48.3663 23.2094L52.8082 20.8404C52.6108 20.2482 51.2091 16.9315 50.7353 16.6946ZM50.7353 16.6946C49.847 17.2869 48.011 19.0637 47.7741 20.2482M48.6624 17.2869C48.0702 17.7804 46.8857 19.0044 46.8857 19.952" stroke="#F4C70F" stroke-width="0.486618" stroke-linecap="round"/>
<path d="M53.3598 22.5747C54.8145 21.4898 58.0937 18.8351 59.5731 16.8959M55.8321 22.0369C56.3631 21.815 57.5766 21.1538 58.182 20.2843M51.6893 25.8269C55.4785 26.5198 54.9872 29.5897 54.8814 30.3165C56.3556 29.4631 59.8011 26.9423 61.3962 25.5785C61.0908 24.9355 60.3713 24.1472 60.5078 23.2095C60.6785 22.0373 61.1001 21.4327 61.9884 21.4327C62.5062 21.4327 62.6762 21.5762 62.8768 21.7288M51.6893 25.8269C50.8955 25.6817 49.9142 25.6523 48.7025 25.7869C48.6323 25.6927 45.7551 26.9412 45.7012 26.763M51.6893 25.8269C51.6724 25.2578 51.9402 24.1037 53.1465 24.0399C54.3186 24.2106 56.7853 25.7667 59.0128 22.7993C59.3838 21.8957 59.7609 19.7162 59.9032 18.7394C60.2123 17.9864 61.1981 16.8332 62.6685 18.2443C63.4196 19.2514 63.3306 19.7002 62.8768 21.7288M62.8768 21.7288C63.3153 22.0625 63.6636 22.0487 63.8939 21.8769C64.2723 21.3335 65.2458 21.4327 65.4338 17.7492C65.4816 16.8139 62.9301 14.3921 62.3867 14.0138C61.396 13.7334 59.6191 14.3257 58.822 15.8888C57.1378 19.2346 47.4782 23.8017 46.5898 24.6901C46.4146 24.9418 45.627 26.5179 45.7012 26.763M45.7012 26.763C46.624 26.5302 51.4787 24.3956 52.3527 23.3259" stroke="#F4C70F" stroke-width="0.486618" stroke-linecap="round"/>
<path d="M61.2058 21.7288C60.2582 22.9134 60.8037 24.2953 61.3959 25.2824C61.9882 24.9862 64.0611 22.9134 64.9495 22.6172C66.4736 22.2016 67.6377 23.3449 68.3128 24.4358C68.792 25.2102 69.0952 26.0094 69.3914 26.763C69.5888 26.6643 69.8527 26.3484 70.0896 25.8746C71.2741 24.9862 71.8663 25.5785 72.1625 26.1708C72.1625 27.6514 73.0509 27.0591 73.6431 26.1708C74.5907 24.7493 73.6431 23.9992 73.0509 23.8017C72.8534 23.6043 72.5178 23.1503 72.7547 22.9134C74.2354 22.3211 75.4199 19.9521 75.1237 19.0637C74.8276 18.4714 73.9392 19.0637 72.7547 19.3598C71.2741 19.3598 73.6431 15.8063 73.9392 14.0295C74.2354 11.6605 73.0509 11.6605 71.8663 11.6605C69.4973 12.2528 68.6089 17.8792 68.3128 18.7676C67.7206 19.656 67.7206 18.4714 67.4244 17.2869C67.1283 16.3986 67.3185 16.1024 66.134 16.1024C64.6533 16.6947 66.134 17.8792 64.9495 20.8405C64.3572 21.7288 63.5748 22.3211 62.9825 21.7288C62.3903 21.4327 61.7981 21.4327 61.2058 21.7288Z" fill="white"/>
<path d="M68.3128 24.4358C68.792 25.2102 69.0952 26.0094 69.3914 26.763C69.5888 26.6643 69.8527 26.3484 70.0896 25.8746C71.2741 24.9862 71.8663 25.5785 72.1625 26.1708C72.1625 27.6514 73.0509 27.0591 73.6431 26.1708C74.5907 24.7493 73.6431 23.9992 73.0509 23.8017C72.8534 23.6043 72.5178 23.1503 72.7547 22.9134C74.2354 22.3211 75.4199 19.9521 75.1237 19.0637C74.8276 18.4714 73.9392 19.0637 72.7547 19.3598C71.2741 19.3598 73.6431 15.8063 73.9392 14.0295C74.2354 11.6605 73.0509 11.6605 71.8663 11.6605C69.4973 12.2528 68.6089 17.8792 68.3128 18.7676C67.7206 19.656 67.7206 18.4714 67.4244 17.2869C67.1283 16.3986 67.3185 16.1024 66.134 16.1024C64.6533 16.6947 66.134 17.8792 64.9495 20.8405C64.3572 21.7288 63.5748 22.3211 62.9825 21.7288C62.3903 21.4327 61.7981 21.4327 61.2058 21.7288C60.2582 22.9134 60.8037 24.2953 61.3959 25.2824C61.9882 24.9862 64.0611 22.9134 64.9495 22.6172C66.4736 22.2016 67.6377 23.3449 68.3128 24.4358ZM68.3128 24.4358C68.4752 24.1488 68.6784 23.7503 68.9051 23.2549M71.5702 14.0295C71.2373 16.3601 70.6747 18.4845 70.0896 20.2279M69.7935 16.3986C69.7935 17.6682 69.8527 20.2116 70.0896 20.2279M70.0896 20.2279C69.6824 21.4409 69.2644 22.4695 68.9051 23.2549M66.5361 19.3598C67.3257 20.3772 68.9051 22.5805 68.9051 23.2549M68.9051 23.2549C69.6947 22.4501 71.4518 20.8997 72.1625 21.1366" stroke="#F4C70F" stroke-width="0.486618" stroke-linecap="round"/>
<path d="M71.1688 25.5787C70.4581 25.5787 69.8856 26.9606 69.6882 27.6516C70.2108 30.134 69.7047 31.9247 69.6882 33.278C69.6672 34.9919 69.1307 36.0042 68.7998 36.8315C71.1688 35.0548 74.4262 35.3509 75.6107 35.3509C76.7952 34.8771 77.6836 34.1664 77.9797 33.5741C78.0785 33.3767 78.7497 32.9226 78.2759 32.6857C77.6836 32.3896 77.9797 31.7974 79.1643 31.2051C80.941 30.6129 83.31 30.0206 83.6062 28.8361C83.6062 27.9477 81.8294 27.6516 80.3488 27.6516C79.1643 27.6516 79.6578 26.6645 80.0526 26.1709C80.8423 25.48 82.5993 23.8019 83.31 22.6174C83.9023 20.5445 83.0139 20.2484 82.1255 19.9523C79.7565 19.9523 78.8681 24.3942 78.2759 25.5787C77.5652 26.0525 77.1901 25.3813 77.0914 24.9864C77.0914 24.5916 77.0321 23.6242 76.7952 22.9135C76.203 21.729 75.0185 22.6174 74.7223 23.5058C74.4262 24.9864 73.834 26.1709 73.2417 26.7632C73.022 26.9829 72.3533 27.3554 72.3533 26.7632C72.3533 25.5787 71.7611 25.5787 71.1688 25.5787Z" fill="white"/>
<path d="M69.6882 33.278C69.6672 34.9919 69.1307 36.0042 68.7998 36.8315C71.1688 35.0548 74.4262 35.3509 75.6107 35.3509C76.7952 34.8771 77.6836 34.1664 77.9797 33.5741C78.0785 33.3767 78.7497 32.9226 78.2759 32.6857C77.6836 32.3896 77.9797 31.7974 79.1643 31.2051C80.941 30.6129 83.31 30.0206 83.6062 28.8361C83.6062 27.9477 81.8294 27.6516 80.3488 27.6516C79.1643 27.6516 79.6578 26.6645 80.0526 26.1709C80.8423 25.48 82.5993 23.8019 83.31 22.6174C83.9023 20.5445 83.0139 20.2484 82.1255 19.9523C79.7565 19.9523 78.8681 24.3942 78.2759 25.5787C77.5652 26.0525 77.1901 25.3813 77.0914 24.9864C77.0914 24.5916 77.0321 23.6242 76.7952 22.9135C76.203 21.729 75.0185 22.6174 74.7223 23.5058C74.4262 24.9864 73.834 26.1709 73.2417 26.7632C73.022 26.9829 72.3533 27.3554 72.3533 26.7632C72.3533 25.5787 71.7611 25.5787 71.1688 25.5787C70.4581 25.5787 69.8856 26.9606 69.6882 27.6516C70.2108 30.134 69.7047 31.9247 69.6882 33.278ZM69.6882 33.278C69.9626 33.0988 70.9433 32.9004 71.2591 32.6857M80.941 22.9135C80.654 24.4919 78.057 27.539 75.3146 29.712M75.9069 25.5787C75.9069 26.5702 75.67 28.8777 74.7223 30.1753M74.7223 30.1753C74.92 30.0226 75.1177 29.868 75.3146 29.712M74.7223 30.1753C73.9135 30.8003 73.1055 31.3938 72.3533 31.9263M75.3146 29.712C76.5978 29.3213 79.4604 28.5992 80.6449 28.8361M71.4649 27.9477C72.0572 28.5272 73.064 30.1343 72.3533 31.9263M72.3533 31.9263C71.9719 32.1964 71.6047 32.4508 71.2591 32.6857M72.3533 31.9263C73.5378 31.8833 76.0845 31.9158 76.7952 32.3896M70.8727 29.1322C71.229 30.0206 71.8052 31.975 71.2591 32.6857" stroke="#F4C70F" stroke-width="0.486618" stroke-linecap="round"/>
<path d="M22.3068 17.8012C21.5961 18.275 21.221 21.3547 21.1223 22.8353C22.9299 22.2328 23.7839 24.0821 24.2388 25.7966M22.3068 17.8012C23.1952 17.2089 27.0449 15.136 28.8216 16.0244C30.0061 16.9128 32.9674 19.8741 32.6713 21.3547M22.3068 17.8012C22.7017 18.196 23.5506 19.1041 23.7875 19.5779C24.0836 20.1702 26.1565 22.8353 26.7487 22.8353M32.6713 21.3547C32.3751 22.8353 32.3751 24.69 31.1906 24.9862C30.0061 24.9862 26.1565 25.5005 24.6758 27.8695M32.6713 21.3547C30.8945 20.7624 27.341 21.9469 26.7487 22.8353M24.6758 27.8695C25.6234 26.9219 26.4526 24.1185 26.7487 22.8353M24.6758 27.8695C24.6292 27.6361 24.5751 27.3292 24.5068 26.9811M26.4526 16.9128C27.0449 16.6167 28.407 16.3205 29.1177 17.505M24.3797 21.9469C24.5819 22.6379 24.8368 24.3752 24.2388 25.7966M24.2388 25.7966C24.3489 26.2116 24.4356 26.6186 24.5068 26.9811M25.5642 22.8353C25.5502 23.625 25.3191 25.5597 24.5068 26.9811M27.0449 24.9082C27.341 23.9211 28.5847 21.9469 31.1906 21.9469M28.2294 24.6121C28.6242 23.9211 29.71 22.6577 30.8945 23.1315" stroke="#F4C70F" stroke-width="0.486618" stroke-linecap="round"/>
<path d="M32.6714 14.6131C32.2715 15.2464 31.3563 17.1817 32.0792 18.6723M32.0792 18.6723C31.0343 17.3537 29.3876 16.3719 28.8218 15.8062C34.1521 11.6604 36.5211 12.8449 37.1133 13.1411C37.7056 13.7333 40.3707 14.9178 41.5552 15.51C43.0359 16.2503 42.2614 17.879 41.8514 18.4713C40.963 19.7545 40.5484 21.0687 40.0746 22.0163C39.8377 22.9639 41.3578 24.4926 41.8514 24.69C41.3578 25.0848 40.8445 25.9337 40.3707 26.1706C39.7785 26.4667 38.8901 26.1706 38.8901 25.2822C38.8901 24.3938 38.594 23.8016 37.7056 23.5055C36.5211 23.2093 35.6327 24.9861 35.6327 25.8745C35.3001 25.5419 34.3126 25.3055 33.5598 25.2822M32.0792 18.6723C32.675 19.4242 33.0751 20.1866 32.9676 20.8318C32.6714 22.6086 32.6714 25.2822 31.1908 25.2822C31.7685 25.1772 32.7039 25.2557 33.5598 25.2822M33.8559 16.0938C33.3624 18.0406 32.3753 23.2357 33.5598 25.2822M35.0404 18.1667C34.6456 18.9563 34.0336 21.1872 34.7443 23.7931M36.225 19.6473C36.0275 20.0421 35.7512 21.0687 36.225 22.0163" stroke="#F4C70F" stroke-width="0.486618" stroke-linecap="round"/>
<path d="M18.4573 17.7586C18.6942 18.9431 19.3457 22.2224 19.0495 22.9133C17.9276 23.5865 17.0607 23.4936 16.3844 24.0978C15.2757 25.0884 14.0871 25.8433 13.7193 26.763C12.8309 26.763 10.1657 25.4579 9.8696 24.5695C9.57347 23.6811 9.57347 23.0889 10.1657 22.7927C11.3502 22.4966 10.758 21.9044 10.1657 21.3121C8.68509 20.4237 6.90833 18.0547 6.90833 17.1663C7.20445 15.9818 8.09283 16.5741 8.68509 16.5741C9.57347 16.2779 7.20445 13.9089 7.20445 12.4283C7.20445 11.2438 7.20445 10.3554 8.09283 8.87476C9.51425 7.92715 10.4619 11.0464 10.758 12.7244C10.758 13.1193 10.8764 14.1458 11.3502 15.0934C12.2386 15.9818 12.5347 14.7973 12.8309 13.9089C13.127 12.7244 13.7193 12.4283 14.6076 12.4283C15.7921 12.7244 14.9038 16.2779 14.9038 17.1663C14.9038 18.0547 15.7921 17.7586 16.3844 17.4625C17.865 16.5741 18.1612 17.1663 18.4573 17.7586Z" fill="white"/>
<path d="M8.68509 12.7244C9.27137 14.2335 10.2929 16.5555 11.4625 18.647M16.3844 24.0978C15.2757 25.0884 14.0871 25.8433 13.7193 26.763C12.8309 26.763 10.1657 25.4579 9.8696 24.5695C9.57347 23.6811 9.57347 23.0889 10.1657 22.7927C11.3502 22.4966 10.758 21.9044 10.1657 21.3121C8.68509 20.4237 6.90833 18.0547 6.90833 17.1663C7.20445 15.9818 8.09283 16.5741 8.68509 16.5741C9.57347 16.2779 7.20445 13.9089 7.20445 12.4283C7.20445 11.2438 7.20445 10.3554 8.09283 8.87476C9.51425 7.92715 10.4619 11.0464 10.758 12.7244C10.758 13.1193 10.8764 14.1458 11.3502 15.0934C12.2386 15.9818 12.5347 14.7973 12.8309 13.9089C13.127 12.7244 13.7193 12.4283 14.6076 12.4283C15.7921 12.7244 14.9038 16.2779 14.9038 17.1663C14.9038 18.0547 15.7921 17.7586 16.3844 17.4625C17.865 16.5741 18.1612 17.1663 18.4573 17.7586C18.6942 18.9431 19.3457 22.2224 19.0495 22.9133C17.9276 23.5865 17.0607 23.4936 16.3844 24.0978ZM16.3844 24.0978C15.7224 23.7962 13.8297 22.2041 13.127 21.2645M16.3844 24.0978C16.1475 23.4922 15.2986 20.3139 15.496 19.2392M11.3502 16.2779C11.2746 16.8702 11.1912 18.1731 11.4625 18.647M11.4625 18.647C10.6047 18.647 9.6483 18.0547 9.27734 17.7586M11.4625 18.647C11.9956 19.6004 12.5595 20.5058 13.127 21.2645M13.7193 16.5741C13.3244 17.6282 12.6532 20.042 13.127 21.2645M13.127 21.2645C11.9425 21.4634 10.6593 20.5894 10.1657 20.1276" stroke="#F4C70F" stroke-width="0.486618" stroke-linecap="round"/>
<path d="M0.393799 21.8037C1.57831 28.0223 11.3505 31.501 12.2389 31.501C12.535 30.3165 12.8569 29.1846 13.1273 28.2436C13.3103 27.6065 13.8563 27.0818 14.0157 26.763C13.1273 26.4668 10.3437 25.4757 9.86987 24.765C9.57374 23.8766 9.57374 23.2843 10.4621 22.9882C11.3751 22.9882 10.8807 22.1281 10.0234 21.2114C9.21241 20.3442 8.07669 19.4264 7.50085 19.1385C6.31634 18.6647 2.46669 18.7437 0.689926 18.8424C0.591217 19.3359 0.393799 20.6192 0.393799 21.8037Z" fill="white"/>
<path d="M2.46669 20.9153C3.46528 21.8133 5.06364 23.1687 6.7744 24.4688M13.1273 28.2436C13.3103 27.6065 13.8563 27.0818 14.0157 26.763C13.1273 26.4668 10.3437 25.4757 9.86987 24.765C9.57374 23.8766 9.57374 23.2843 10.4621 22.9882C11.3751 22.9882 10.8807 22.1281 10.0234 21.2114M13.1273 28.2436C12.8569 29.1846 12.535 30.3165 12.2389 31.501C11.3505 31.501 1.57831 28.0223 0.393799 21.8037C0.393799 20.6192 0.591217 19.3359 0.689926 18.8424C2.46669 18.7437 6.31634 18.6647 7.50085 19.1385C8.07669 19.4264 9.21241 20.3442 10.0234 21.2114M13.1273 28.2436C12.1814 27.9251 10.4213 27.0196 9.15688 26.1765M13.1273 28.2436C12.4451 28.7174 9.49882 28.812 8.38923 28.9107M5.72409 21.5076C6.12817 22.0998 6.90394 23.5212 6.7744 24.4688M6.7744 24.4688C5.71944 25.1795 3.85786 24.9624 3.05894 24.765M6.7744 24.4688C7.56059 25.0663 8.37052 25.6521 9.15688 26.1765M5.13183 27.134C6.13714 27.0879 8.34959 26.8319 9.15688 26.1765M9.15688 26.1765C9.29719 25.4105 8.70358 23.1395 8.38923 22.0998M3.6512 20.0269C4.93808 19.9282 8.01415 20.0269 10.0234 21.2114" stroke="#F4C70F" stroke-width="0.486618" stroke-linecap="round"/>
</svg>
