<svg width="78" height="62" viewBox="0 0 78 62" fill="none" xmlns="http://www.w3.org/2000/svg">
<path d="M1.53284 13.9377C2.3076 15.0074 3.50089 15.8361 4.3988 16.2851C32.1037 28.7042 70.925 19.4978 74.1378 16.2851C75.0187 15.4042 75.8995 14.7264 76.406 13.8771M1.53284 13.9377C0.658995 12.7312 1.43955 11.2182 2.65483 9.59784C5.52079 6.73188 17.8446 3.11539 27.3271 1.95529C35.1357 0.999969 41.5045 0.999969 43.7336 0.999969C53.2868 1.31841 72.9914 4.24805 76.0484 9.59784C77.0782 11.6574 76.9979 12.8844 76.406 13.8771M1.53284 13.9377C2.80682 24.5918 1.89064 47.8106 10.2974 55.4532C32.2698 66.917 69.3612 57.3638 70.3165 55.4532C76.4305 43.9893 76.9237 22.9592 76.406 13.8771M5.52085 20.1064C5.52085 25.8383 6.66723 39.7859 11.2528 49.7212" stroke="#F4C70F" stroke-linecap="round" stroke-linejoin="round"/>
<path d="M9.34286 14.3743C8.38754 13.4189 7.05009 11.1262 9.34286 9.59767C12.2088 7.68703 37.0462 0.999795 62.8398 7.68703C68.5718 9.59767 74.3037 11.5083 70.4824 14.3743M9.34286 14.3743C31.3161 23.9275 67.6164 16.2849 70.4824 14.3743M9.34286 14.3743C16.8063 12.1352 30.2173 9.37131 43.7335 9.31144M70.4824 14.3743C65.6951 11.9806 60.1095 10.5761 54.242 9.87548M26.5377 15.3296H28.4483M32.2696 16.2849L33.2249 18.1955M38.9569 12.4636V14.3743M43.7335 9.31144L44.6888 12.4636L45.6441 13.4189L44.6888 15.3296M43.7335 9.31144C47.2638 9.2958 50.8014 9.46463 54.242 9.87548M54.242 9.87548V11.5083L53.2866 13.4189H50.4207V15.3296L49.4654 16.2849M56.1526 14.3743H58.0632" stroke="#F4C70F" stroke-linecap="round" stroke-linejoin="round"/>
<path d="M72.3927 21.0617C72.3439 23.9273 71.3775 36.649 68.1129 48.8233" stroke="#F4C70F" stroke-linecap="round" stroke-linejoin="round"/>
<path d="M68.571 24.8827C68.571 26.7933 68.1889 32.3342 66.6604 39.2125" stroke="#F4C70F" stroke-linecap="round" stroke-linejoin="round"/>
</svg>
