<svg width="58" height="62" viewBox="0 0 58 62" fill="none" xmlns="http://www.w3.org/2000/svg">
<path d="M4.05282 22.8019C7.28273 16.988 15.0884 13.3813 18.5874 12.3047C20.8004 11.4972 25.0473 10.6897 30.6996 10.6897C50.8866 11.4972 54.924 24.4168 55.7314 28.4542C58.9608 47.0262 51.6935 53.486 46.0417 56.716C29.0846 65.5982 12.9345 58.7341 8.09021 53.486C-1.59953 42.9888 1.49592 27.4009 4.05282 22.8019Z" fill="white"/>
<path d="M13.742 17.957C9.43547 20.1103 1.95284 28.1312 6.47472 42.9888M18.5874 12.3047C15.0884 13.3813 7.28273 16.988 4.05282 22.8019C1.49592 27.4009 -1.59953 42.9888 8.09021 53.486C12.9345 58.7341 29.0846 65.5982 46.0417 56.716C51.6935 53.486 58.9608 47.0262 55.7314 28.4542C54.924 24.4168 50.8866 11.4972 30.6996 10.6897C25.0473 10.6897 20.8004 11.4972 18.5874 12.3047Z" stroke="#F4C70F" stroke-width="1.61891" stroke-linecap="round" stroke-linejoin="round"/>
<path d="M28.9261 15.7568C27.3111 15.7568 23.4352 16.4028 20.8513 18.9867C20.8513 17.0488 22.4662 14.9493 23.2737 14.1418C20.313 14.411 14.0685 13.4959 12.7765 7.68201C15.1989 9.29696 20.8513 12.5269 24.8887 12.5269C22.4662 10.9119 19.2363 8.48949 20.8513 4.4521C21.6588 6.87453 25.6962 10.9119 28.1186 10.9119C28.7646 9.61996 30.0027 4.4521 30.541 2.02966C31.3485 1.49134 33.2865 0.5762 34.5784 1.22218C35.2244 1.86816 34.8476 3.10642 34.5784 3.64481L31.3485 10.9121C31.8868 10.1046 33.7709 8.48968 37.0009 8.48968C36.2765 9.21399 34.9025 11.2378 34.0443 11.6469C37.4349 10.6978 45.1414 6.94045 47.4981 9.29715C46.6906 10.1046 42.6532 10.9123 41.0382 11.7196L41.036 11.7207C39.4188 12.5291 34.5777 14.9491 32.9635 14.142C33.7709 15.757 37.0009 18.9869 37.8083 18.9869C35.3859 18.9867 32.156 17.3721 31.3485 16.5645C30.7025 15.9183 29.4644 15.7568 28.9261 15.7568Z" fill="#F9E387" stroke="#F4C70F" stroke-width="1.13324" stroke-linecap="round" stroke-linejoin="round"/>
</svg>
